<!-- Generator: Adobe Illustrator 18.0.0, SVG Export Plug-In  -->
<svg version="1.1"
     xmlns="http://www.w3.org/2000/svg" xmlns:xlink="http://www.w3.org/1999/xlink" xmlns:a="http://ns.adobe.com/AdobeSVGViewerExtensions/3.0/"
     x="0px" y="0px" width="337.4px" height="99.8px" viewBox="0 0 337.4 99.8" enable-background="new 0 0 337.4 99.8"
     xml:space="preserve">
<defs>
</defs>
<g>
    <path fill="#FFFFFF" d="M120.7,46.3h-4.3l-14.6-16H90.2v16h-3.3V4c6.2,0,12.4,0,18.6,0c9.2,0,13.9,6.6,13.9,13.2
        c0.1,6.9-4.5,13-13.7,13L120.7,46.3z M90.2,27.2h15c7.4,0,10.7-4.2,10.7-10.1c0.1-5-3.3-10.1-10.3-10.1H90.2V27.2z"/>
    <path fill="#FFFFFF" d="M129.4,23.5h24.8v3h-24.8v16.7h26.8v3.1h-30V4h29.2V7h-26V23.5z"/>
    <path fill="#FFFFFF" d="M166.1,4l28.5,35V4h3.2v42.4h-1.3l-28.6-35v35h-3.3V4H166.1z"/>
    <path fill="#FFFFFF" d="M219.3,6.9H204V4h33.9v2.9h-15.3v39.4h-3.3V6.9z"/>
    <path fill="#FFFFFF" d="M274.4,46.3V27.1h-27v19.2h-3.3V4h3.3v20.2h27V4h3.3v42.4H274.4z"/>
    <path fill="#FFFFFF" d="M287,46.3V4h3.2v42.4H287z"/>
    <path fill="#FFFFFF" d="M333.3,46.3l-4.7-10.4h-25.3l-4.6,10.4h-3.5l19-42.4h3.6l19,42.4H333.3z M327.3,32.9L315.9,7.1l-11.4,25.8
        H327.3z"/>
</g>
<g>
    <path fill="#FFFFFF" d="M92.2,86.4l5-7.7h4.3v0.2L94,89.6v7.7h-3.5v-7.7l-7.2-10.9v-0.2h4.2L92.2,86.4z"/>
    <path fill="#FFFFFF" d="M121.5,88.1c-0.1,4.9-3,9.7-9.6,9.7s-9.6-4.7-9.6-9.7s3.2-9.9,9.6-9.9C118.3,78.2,121.5,83.2,121.5,88.1z
         M105.7,88.2c0.1,3.1,1.7,6.4,6.2,6.4c4.4,0,6.1-3.3,6.1-6.4c0.1-3.2-1.7-6.7-6.1-6.7C107.4,81.4,105.6,85,105.7,88.2z"/>
    <path fill="#FFFFFF" d="M140.5,78.6v10.7c0,5.5-3.4,8.4-8.1,8.4c-4.5,0-8.3-2.7-8.3-8.4V78.6h3.5v10.7c0,3.4,1.9,5.2,4.9,5.2
        c2.9,0,4.6-2,4.6-5.2V78.6H140.5z"/>
    <path fill="#FFFFFF" d="M162.7,93.8h-9.8l-1.6,3.5h-3.8l8.4-18.8h3.9l8.4,18.8h-3.9L162.7,93.8z M157.8,82.5l-3.5,8h7L157.8,82.5z"
        />
    <path fill="#FFFFFF" d="M186.4,97.4h-4.2l-5.5-6.3h-3.4v6.3h-3.5V78.6c3,0,5.9,0,8.9,0c4.4,0,6.8,3,6.8,6.2c0,2.6-1.2,5.2-4.7,5.9
        l5.7,6.4V97.4z M173.3,81.9v6h5.4c2.3,0,3.2-1.5,3.2-3s-1-3-3.2-3H173.3z"/>
    <path fill="#FFFFFF" d="M201.8,97.4h-14c0-6.2,0-12.5,0-18.8h14V82h-10.5v4.3h10.2v3.3h-10.2v4.2h10.5V97.4z"/>
    <path fill="#FFFFFF" d="M222.7,97.4v-7.6h-9.2v7.6H210V78.6h3.5v7.9h9.2v-7.9h3.5v18.8H222.7z"/>
    <path fill="#FFFFFF" d="M248,88.1c-0.1,4.9-3,9.7-9.6,9.7c-6.6,0-9.6-4.7-9.6-9.7s3.2-9.9,9.6-9.9C244.8,78.2,248,83.2,248,88.1z
         M232.2,88.2c0.1,3.1,1.7,6.4,6.2,6.4s6.1-3.3,6.1-6.4c0.1-3.2-1.7-6.7-6.1-6.7S232.1,85,232.2,88.2z"/>
    <path fill="#FFFFFF" d="M266.9,83.8l-6.1,8.1h-0.7l-6-8.2v13.6h-3.5V78.6h4.1l5.9,8.1l5.9-8.1h4v18.8h-3.5V83.8z"/>
    <path fill="#FFFFFF" d="M287.8,97.4h-14c0-6.2,0-12.5,0-18.8h14V82h-10.5v4.3h10.2v3.3h-10.2v4.2h10.5V97.4z"/>
</g>
<g>
    <rect x="83" y="62.4" fill="#FFFFFF" width="254.4" height="1.3"/>
</g>
<linearGradient id="SVGID_1_" gradientUnits="userSpaceOnUse" x1="32.3711" y1="99.803" x2="32.3711" y2="9.094947e-13">
    <stop  offset="0" style="stop-color:#AA4424"/>
    <stop  offset="1" style="stop-color:#FAA31C"/>
</linearGradient>
<path fill="url(#SVGID_1_)" d="M64.7,32.4C64.7,14.5,50.2,0,32.4,0S0,14.5,0,32.4c0,9.3,4,18.1,10.9,24.2L4.6,99.8h12.1l7.2-48.7
    L20.9,49c-5.5-3.8-8.7-10-8.7-16.6c0-11.2,9.1-20.2,20.2-20.2s20.2,9.1,20.2,20.2c0,11.1-9.1,20.2-20.2,20.2l-1.7,12.5
    c3.5,0,8.6-0.9,11.8-2l4.1,24.6H25.8l-1.5,12.1h37.3l-7.7-43.3C60.5,50.6,64.7,42,64.7,32.4z"/>
</svg>
