<?xml version="1.0" encoding="UTF-8" standalone="no"?>
<svg width="29px" height="26px" viewBox="0 0 29 26" version="1.1" xmlns="http://www.w3.org/2000/svg" xmlns:xlink="http://www.w3.org/1999/xlink" xmlns:sketch="http://www.bohemiancoding.com/sketch/ns">
    <!-- Generator: Sketch 3.3 (11970) - http://www.bohemiancoding.com/sketch -->
    <title>icon-rentout-property</title>
    <desc>Created with Sketch.</desc>
    <defs></defs>
    <g id="Page-1" stroke="none" stroke-width="1" fill="none" fill-rule="evenodd" sketch:type="MSPage">
        <g id="list-property-complete" sketch:type="MSArtboardGroup" transform="translate(-892.000000, -764.000000)" stroke="#1A1A1A" stroke-width="2">
            <g id="icon-rentout-property" sketch:type="MSLayerGroup" transform="translate(893.000000, 765.000000)">
                <path d="M15.8744609,1.84210526 L11.4654182,1.84210526 L11.4654182,1.84210526 L3.21404707,10.0934764 L3.21404707,24.9850865 L24.0561523,24.9850865 L24.0561523,10.0237967 L15.8744609,1.84210526 Z" id="Rectangle-13" sketch:type="MSShapeGroup"></path>
                <rect id="Path" sketch:type="MSShapeGroup" x="10.691252" y="15.8458845" width="5.88769533" height="9.13920203" rx="2"></rect>
                <path d="M18.3277143,4.41777183 L14.9626599,1.0527174 C14.6345808,0.724638305 14.2053307,0.562943381 13.7775347,0.566638706 L13.7775347,0.566638706 C13.2597295,0.471085341 12.706766,0.625085986 12.3063337,1.02551822 L0.915270173,12.4165818 C0.265994192,13.0658578 0.269136417,14.1121425 0.916403283,14.7594093 C1.56818277,15.4111888 2.61258977,15.4071835 3.25923084,14.7605425 L13.6243345,4.39543881 L24.0132,14.7843044 C24.662476,15.4335804 25.7079913,15.4312076 26.354309,14.7848899 C27.0051327,14.1340662 27.0003645,13.090422 26.3537234,12.443781 L21.5950158,7.68507329 C21.6267093,7.55674525 21.6435038,7.42250481 21.6435038,7.28431153 L21.6435038,3.9653743 C21.6435038,3.04408634 20.901239,2.30905344 19.985609,2.30905344 C19.0635955,2.30905344 18.3277143,3.05061355 18.3277143,3.9653743 L18.3277143,4.41777183 Z" id="Rectangle-11" fill="#F7F7F7" sketch:type="MSShapeGroup"></path>
            </g>
        </g>
    </g>
</svg>