<!-- Generator: Adobe Illustrator 18.0.0, SVG Export Plug-In  -->
<svg version="1.1"
	 xmlns="http://www.w3.org/2000/svg" xmlns:xlink="http://www.w3.org/1999/xlink" xmlns:a="http://ns.adobe.com/AdobeSVGViewerExtensions/3.0/"
	 x="0px" y="0px" width="437.1px" height="1000px" viewBox="281.5 0 437.1 1000" enable-background="new 281.5 0 437.1 1000"
	 xml:space="preserve">
<defs>
</defs>
<g>
	<g>
		<path d="M347.8,85.7c-7.1-16.7-17.2-31.7-30-44.6c-12.9-12.9-27.9-23-44.6-30c-17.3-7.3-35.7-11-54.6-11s-37.3,3.7-54.6,11
			c-16.7,7.1-31.7,17.2-44.6,30c-12.9,12.9-23,27.9-30,44.6c-7.3,17.3-11,35.7-11,54.6v473.6c-20.6,17.3-38,38.3-51,61.9
			C9.4,707.9,0,744.5,0,781.5c0,29.5,5.8,58.1,17.2,85.1c11,26,26.8,49.4,46.8,69.5c20.1,20.1,43.4,35.8,69.5,46.8
			c27,11.4,55.6,17.2,85.1,17.2s58.1-5.8,85.1-17.2c26-11,49.4-26.8,69.5-46.8c20.1-20.1,35.8-43.4,46.8-69.5
			c11.4-27,17.2-55.6,17.2-85.1c0-37-9.4-73.5-27.2-105.7c-13-23.5-30.4-44.6-51-61.9V140.3C358.8,121.4,355.1,103,347.8,85.7z
			 M391,781.5c0,95.2-77.2,172.4-172.4,172.4S46.1,876.7,46.1,781.5c0-60.5,31.2-113.7,78.3-144.5V140.3c0-52,42.1-94.1,94.1-94.1
			l0,0c52,0,94.1,42.1,94.1,94.1v6.9h-82.9c-12.7,0-23.1,10.3-23.1,23.1c0,12.7,10.3,23.1,23.1,23.1h82.9v46.1h-82.9
			c-12.7,0-23.1,10.3-23.1,23.1c0,12.7,10.3,23.1,23.1,23.1h82.9v46.1h-82.9c-12.7,0-23.1,10.3-23.1,23.1
			c0,12.7,10.3,23.1,23.1,23.1h82.9V637C359.8,667.8,391,721,391,781.5z"/>
		<path d="M293.1,667l-16.3-10.6V637V470.5c0-32.1-26.1-58.3-58.3-58.3s-58.3,26.1-58.3,58.3V637v19.4L144,667
			c-38.8,25.4-62,68.1-62,114.4c0,36.5,14.2,70.8,40,96.5c25.8,25.8,60.1,40,96.5,40s70.8-14.2,96.5-40c25.8-25.8,40-60.1,40-96.5
			C355.1,735.2,331.9,692.4,293.1,667z"/>
	</g>
</g>
</svg>
