<!-- Generator: Adobe Illustrator 18.0.0, SVG Export Plug-In  -->
<svg version="1.1"
	 xmlns="http://www.w3.org/2000/svg" xmlns:xlink="http://www.w3.org/1999/xlink" xmlns:a="http://ns.adobe.com/AdobeSVGViewerExtensions/3.0/"
	 x="0px" y="0px" width="434.4px" height="612px" viewBox="88.8 0 434.4 612" enable-background="new 88.8 0 434.4 612"
	 xml:space="preserve">
<defs>
</defs>
<g>
	<g>
		<g>
			<path d="M118.5,500.3h31.3c1.3,0.8,2.8,1.3,4.4,1.3c1.6,0,3.1-0.5,4.4-1.3h157.9c16.5,0,29.9-14,29.9-31.2V140
				c0-17.2-13.4-31.2-29.9-31.2h-198c-16.5,0-29.9,14-29.9,31.2v329C88.5,486.3,102,500.3,118.5,500.3z M106.9,140
				c0-7,5.2-12.8,11.6-12.8h198c6.4,0,11.6,5.8,11.6,12.8v329c0,7.1-5.2,12.8-11.6,12.8H163.3V344c0-5.1-4.1-9.2-9.2-9.2
				c-5.1,0-9.2,4.1-9.2,9.2v137.9h-26.5c-6.4,0-11.6-5.7-11.6-12.8V140L106.9,140z"/>
			<path d="M390.9,0H43.5C19.5,0,0,20.5,0,45.6v520.9C0,591.6,19.5,612,43.5,612h347.4c24,0,43.5-20.5,43.5-45.5V45.6
				C434.4,20.5,414.9,0,390.9,0z M43.5,18.4h347.4c13.9,0,25.2,12.2,25.2,27.2v15.3H18.4V45.6C18.4,30.6,29.6,18.4,43.5,18.4z
				 M416.1,79.2v461H18.4v-461H416.1z M390.9,593.6H43.5c-13.9,0-25.1-12.2-25.1-27.2v-7.8h397.7v7.8
				C416.1,581.4,404.8,593.6,390.9,593.6z"/>
			<circle cx="256.9" cy="218.4" r="17.1"/>
			<circle cx="205.5" cy="172.8" r="17.1"/>
			<circle cx="274" cy="418.2" r="17.1"/>
		</g>
	</g>
</g>
</svg>
