<!-- Generator: Adobe Illustrator 18.0.0, SVG Export Plug-In  -->
<svg version="1.1"
	 xmlns="http://www.w3.org/2000/svg" xmlns:xlink="http://www.w3.org/1999/xlink" xmlns:a="http://ns.adobe.com/AdobeSVGViewerExtensions/3.0/"
	 x="0px" y="0px" width="1000px" height="734.2px" viewBox="0 132.9 1000 734.2" enable-background="new 0 132.9 1000 734.2"
	 xml:space="preserve">
<defs>
</defs>
<g>
	<path d="M812.2,734.2c-21.5,0-39-17.5-39-39v-39h39c62.2,0,78-21.2,78-21.2v60.2c0,21.5-17.5,39-39,39H812.2z"/>
	<path d="M148.8,734.2c-21.5,0-39-17.5-39-39V635c0,0,15.8,21.2,78,21.2h39v39c0,21.5-17.5,39-39,39H148.8z"/>
	<g>
		<path d="M1000,324.4c0-49.8-40.4-90.3-90.3-90.3c-38.7,0-71.5,24.5-84.3,58.8l-42.8,95.9
			c-3.2-2-132.6-42.7-280.2-42.7S220.3,387,217,389.1l-40.5-89.9c-11-37.4-45.2-64.9-86.2-64.9C40.4,234.2,0,274.6,0,324.5
			c0,41.5,28.2,76.1,66.3,86.6L83,554.7c17.6,60.9,104.8,62.4,104.8,62.4h624.4c0,0,87.2-1.5,104.8-62.5L933.7,411
			C971.8,400.5,1000,365.9,1000,324.4z"/>
	</g>
	<path d="M90.3,187.3c59,0,112,38.9,130.1,95.1l19.7,43.9c38.2-13.8,175.6-27,262.4-27c84.4,0,219.8,12.3,257.3,26
		l22.4-50.3c20.3-52.5,71.4-87.7,127.6-87.7c4.1,0,8.1,0.9,12.2,1.2c0-0.2,0-0.5,0-0.7C922,84.1,837.9,0,734.2,0
		c-13,0-455.2,0-468.3,0C162.2,0,78.1,84.1,78.1,187.8c0,0.2,0,0.5,0,0.7C82.2,188.2,86.1,187.3,90.3,187.3z"/>
</g>
</svg>
