<!-- Generator: Adobe Illustrator 18.0.0, SVG Export Plug-In  -->
<svg version="1.1"
	 xmlns="http://www.w3.org/2000/svg" xmlns:xlink="http://www.w3.org/1999/xlink" xmlns:a="http://ns.adobe.com/AdobeSVGViewerExtensions/3.0/"
	 x="0px" y="0px" width="1000px" height="550px" viewBox="0 225 1000 550" enable-background="new 0 225 1000 550"
	 xml:space="preserve">
<defs>
</defs>
<path d="M965.5,349.7h-74.3H272.3H21.2C9.5,349.7,0,359.2,0,370.9v157.9C0,540.5,9.5,550,21.2,550h251.1h618.9h74.3
	c11.7,0,21.2-9.5,21.2-21.2V370.9C986.7,359.2,977.2,349.7,965.5,349.7z M293.5,392.1H870v115.5H293.5V392.1z M944.3,507.6h-31.8
	V392.1h31.8V507.6z M900.2,126c-15.9-41.6-3.7-91.2,29.7-120.7c8.8-7.8,22.2-6.9,29.9,1.8c7.8,8.8,6.9,22.2-1.8,29.9
	c-20,17.7-27.7,48.8-18.1,73.8c4.9,12.9,14,24.9,23.7,37.6c10.8,14.1,21.9,28.7,29.1,46.7c18.8,47.1,0.4,106.1-41.8,134.2
	c-3.6,2.4-7.7,3.6-11.8,3.6c-6.8,0-13.6-3.3-17.7-9.4c-6.5-9.7-3.9-22.9,5.9-29.4c25.7-17.1,37.3-54.5,25.9-83.2
	c-5-12.6-13.9-24.3-23.4-36.7C918.8,159.7,907.3,144.7,900.2,126z"/>
</svg>
