<?xml version="1.0" encoding="UTF-8" standalone="no"?>
<svg width="167px" height="167px" viewBox="0 0 167 167" version="1.1" xmlns="http://www.w3.org/2000/svg" xmlns:xlink="http://www.w3.org/1999/xlink" xmlns:sketch="http://www.bohemiancoding.com/sketch/ns">
    <!-- Generator: Sketch 3.3 (11970) - http://www.bohemiancoding.com/sketch -->
    <title>icon-inventory-alive</title>
    <desc>Created with Sketch.</desc>
    <defs></defs>
    <g id="icons" stroke="none" stroke-width="1" fill="none" fill-rule="evenodd" sketch:type="MSPage">
        <g id="icon-inventory-alive" sketch:type="MSLayerGroup" transform="translate(2.000000, 0.853553)">
            <circle id="Oval-39-Copy" stroke="#424242" stroke-width="3" fill="#E9E9E9" sketch:type="MSShapeGroup" cx="81.7157545" cy="82.448" r="81.5"></circle>
            <g id="Group" transform="translate(28.000000, 44.000000)" sketch:type="MSShapeGroup">
                <rect id="Rectangle-180" stroke="#424242" stroke-width="3" fill="#FFFFFF" x="11" y="0" width="86" height="54" rx="15"></rect>
                <g id="Oval-29-+-Oval-29-Copy-2" transform="translate(25.000000, 15.000000)" stroke="#FF9900" stroke-width="2" fill="#FF9900">
                    <circle id="Oval-29" cx="2.5" cy="2.5" r="2.5"></circle>
                    <circle id="Oval-29-Copy-2" cx="2.5" cy="15.5" r="2.5"></circle>
                </g>
                <g id="Oval-29-Copy-4-+-Oval-29-Copy-3-Copy" transform="translate(42.187500, 15.448000)" stroke="#FF9900" stroke-width="2" fill="#FF9900">
                    <circle id="Oval-29-Copy-4" cx="2.5" cy="2.5" r="2.5"></circle>
                    <circle id="Oval-29-Copy-3" cx="2.5" cy="15.5" r="2.5"></circle>
                </g>
                <g id="Oval-29-Copy-4-+-Oval-29-Copy-3-Copy-Copy" transform="translate(60.187500, 15.448000)" stroke="#FF9900" stroke-width="2" fill="#FF9900">
                    <circle id="Oval-29-Copy-4" cx="2.5" cy="2.5" r="2.5"></circle>
                    <circle id="Oval-29-Copy-3" cx="2.5" cy="15.5" r="2.5"></circle>
                </g>
                <g id="Oval-29-Copy-4-+-Oval-29-Copy-3-Copy-Copy-Copy" transform="translate(78.187500, 15.448000)" stroke="#FF9900" stroke-width="2" fill="#FF9900">
                    <circle id="Oval-29-Copy-4" cx="2.5" cy="2.5" r="2.5"></circle>
                    <circle id="Oval-29-Copy-3" cx="2.5" cy="15.5" r="2.5"></circle>
                </g>
                <rect id="Rectangle-181" stroke="#424242" stroke-width="3" fill="#FFFFFF" x="14" y="45.448" width="75.4315089" height="19"></rect>
                <rect id="Rectangle-181-Copy" stroke="#424242" stroke-width="3" fill="#FFFFFF" x="14" y="60.448" width="75.4315089" height="11"></rect>
                <path d="M11,33.448 C4.92486775,33.448 5.68434189e-14,38.3728678 5.68434189e-14,44.448 C5.68434189e-14,48.7226855 2.43832409,52.4278698 6,54.2485808 C6,54.2485808 10.4033871,56.8200436 10.4033871,61.072197 C10.4033871,65.3243504 8.92896366,75.448 8.92896366,75.448 L22,75.448 L22,43.448 C21.4499282,37.8415 16.7380426,33.448 11,33.448 Z" id="Oval-29" stroke="#424242" stroke-width="3" fill="#FFFFFF"></path>
                <path d="M97,33.448 C90.9248678,33.448 86,38.3728678 86,44.448 C86,48.7226855 88.4383241,52.4278698 92,54.2485808 C92,54.2485808 96.4033871,56.8200436 96.4033871,61.072197 C96.4033871,65.3243504 94.9289637,75.448 94.9289637,75.448 L108,75.448 L108,43.448 C107.449928,37.8415 102.738043,33.448 97,33.448 Z" id="Oval-29-Copy" stroke="#424242" stroke-width="3" fill="#FFFFFF" transform="translate(97.000000, 54.448000) scale(-1, 1) translate(-97.000000, -54.448000) "></path>
            </g>
        </g>
    </g>
</svg>