<?xml version="1.0" encoding="UTF-8" standalone="no"?>
<svg width="684px" height="770px" viewBox="0 0 684 770" version="1.1" xmlns="http://www.w3.org/2000/svg" xmlns:xlink="http://www.w3.org/1999/xlink" xmlns:sketch="http://www.bohemiancoding.com/sketch/ns">
    <!-- Generator: Sketch 3.3 (11970) - http://www.bohemiancoding.com/sketch -->
    <title>icon-aboutus-map</title>
    <desc>Created with Sketch.</desc>
    <defs></defs>
    <g id="about-us" stroke="none" stroke-width="1" fill="none" fill-rule="evenodd" sketch:type="MSPage">
        <g id="About-us" sketch:type="MSArtboardGroup" transform="translate(-560.000000, -3366.000000)">
            <g id="icon-aboutus-map" sketch:type="MSLayerGroup" transform="translate(561.000000, 3367.000000)">
                <g id="europe" stroke="#FFFFFF" fill="#FFDFBB" sketch:type="MSShapeGroup">
                    <path d="M463.216232,623.190113 L458.800834,632.022113 L459.994185,637.782113 L462.142216,640.623713 L460.948865,646.230113 L460.769863,658.671713 L462.380886,667.426913 L469.242653,673.570913 L469.779661,677.641313 L471.868025,678.946913 L476.701096,669.961313 L476.999434,663.970913 L480.639154,661.359713 L480.519819,656.521313 L475.38841,652.143713 L473.180711,644.310113 L474.195059,638.166113 L472.942041,631.638113 L470.018332,629.794913 L467.213957,624.956513 L464.170912,626.569313 L463.216232,623.190113 L463.216232,623.190113 Z" id="AL"></path>
                    <path d="M424.074325,516.361313 L418.704246,512.905313 L413.51317,513.826913 L404.503371,508.297313 L400.684648,509.679713 L394.837229,517.129313 L386.185436,511.292513 L382.724718,519.663713 L378.78666,521.967713 L380.99436,533.794913 L380.099346,536.866913 L376.399959,533.180513 L371.02988,532.566113 L363.094097,535.868513 L353.189285,535.100513 L351.757264,539.862113 L345.850178,534.793313 L342.508795,535.868513 L343.045803,539.094113 L341.494447,543.548513 L346.745191,546.850913 L352.532942,547.311713 L359.454377,549.922913 L360.647728,546.466913 L371.626556,543.318113 L374.490597,549.615713 L390.899171,554.300513 L400.326643,555.682913 L405.816057,551.612513 L415.661201,551.151713 L417.63023,548.079713 L420.673275,536.329313 L418.226905,532.412513 L424.551665,532.412513 L424.90967,524.962913 L423.358314,518.665313 L424.074325,516.361313 L424.074325,516.361313 Z" id="AT"></path>
                    <path d="M288.98701,464.444513 L278.903196,468.130913 L270.848078,466.748513 L262.076949,470.281313 L263.74764,476.578913 L268.879049,476.886113 L274.129793,484.105313 L282.005908,492.630113 L287.674325,491.170913 L297.519469,499.465313 L298.47415,489.327713 L301.338192,488.636513 L302.292872,476.502113 L296.147115,472.278113 L288.98701,464.444513 L288.98701,464.444513 Z" id="BE"></path>
                    <path d="M563.517327,604.834913 L556.536225,602.991713 L547.466759,596.463713 L534.339923,600.610913 L529.08918,605.218913 L512.08393,604.297313 L503.014482,601.455713 L498.658751,602.761313 L494.720694,595.388513 L492.214657,599.458913 L493.825681,605.986913 L500.031105,613.743713 L496.152715,619.350113 L494.661026,625.110113 L496.093047,627.260513 L494.362688,629.794913 L500.687448,635.554913 L502.477474,647.535713 L511.12925,648.073313 L520.079381,643.081313 L528.85051,649.378913 L539.292306,647.689313 L538.576295,638.703713 L549.913128,633.020513 L560.175945,635.401313 L555.402542,625.110113 L558.266584,612.284513 L563.517327,604.834913 L563.517327,604.834913 Z" id="BG"></path>
                    <path d="M428.609058,577.417313 L423.298646,577.801313 L421.03128,581.564513 L416.675549,577.417313 L414.766188,584.866913 L420.852277,593.314913 L423.716319,598.844513 L429.444403,605.602913 L434.098472,609.519713 L438.931542,617.046113 L449.612032,623.881313 L450.626381,613.974113 L454.087098,609.826913 L456.115794,608.137313 L458.800834,607.369313 L459.874849,598.921313 L453.78876,592.009313 L456.115794,584.098913 L451.939066,584.175713 L446.50932,580.182113 L438.633205,580.412513 L428.609058,577.417313 L428.609058,577.417313 Z" id="BA"></path>
                    <path d="M543.409366,385.954913 L531.654884,381.577313 L521.272732,388.335713 L515.24631,391.254113 L517.334674,399.087713 L509.339224,404.770913 L508.145873,414.678113 L497.286398,421.282913 L486.904246,421.206113 L488.276599,428.962913 L492.035654,435.721313 L492.811332,442.786913 L486.665576,446.396513 L490.961639,454.690913 L492.035654,462.601313 L497.167063,461.910113 L502.596809,457.071713 L511.009915,456.687713 L522.227412,458.070113 L534.936599,462.370913 L543.648036,462.678113 L548.063434,465.289313 L551.762822,462.217313 L555.223539,466.364513 L565.009016,465.519713 L569.603417,467.209313 L569.006741,458.223713 L571.811116,454.306913 L581.059585,453.231713 L576.644187,441.865313 L573.243137,436.028513 L575.033163,434.338913 L583.863959,434.953313 L587.444012,431.113313 L583.625289,426.351713 L575.868508,423.279713 L575.987844,420.054113 L571.154773,416.828513 L562.622314,405.385313 L564.17367,400.623713 L561.846636,392.406113 L550.808141,388.258913 L545.617065,390.332513 L543.409366,385.954913 L543.409366,385.954913 Z" id="BY"></path>
                    <path d="M342.508795,535.868513 L330.217282,530.262113 L328.06925,534.255713 L318.522444,534.102113 L315.479399,537.174113 L310.34799,535.561313 L310.825331,540.169313 L302.82988,550.383713 L302.82988,558.601313 L308.199959,555.759713 L312.257352,563.670113 L317.269425,567.586913 L322.758839,566.742113 L328.904596,560.598113 L330.99296,563.439713 L336.363038,562.902113 L338.570737,555.529313 L347.043528,557.833313 L351.936267,554.761313 L352.532942,547.311713 L346.745191,546.850913 L341.494447,543.548513 L343.045803,539.094113 L342.508795,535.868513 L342.508795,535.868513 Z" id="CH"></path>
                    <path d="M399.43163,471.049313 L394.658227,472.892513 L391.615182,470.818913 L389.109145,474.274913 L381.412032,477.730913 L377.59331,482.185313 L369.776862,486.102113 L371.984561,491.478113 L373.595584,499.081313 L379.443003,503.458913 L386.185436,511.292513 L394.837229,517.129313 L400.684648,509.679713 L404.503371,508.297313 L413.51317,513.826913 L418.704246,512.905313 L424.074325,516.361313 L425.38701,512.367713 L430.339416,512.674913 L434.038804,510.754913 L434.217807,509.065313 L436.246503,508.220513 L436.664176,504.073313 L439.170213,503.305313 L440.661901,500.079713 L443.943616,500.079713 L438.155864,491.170913 L429.862076,490.018913 L428.370388,484.412513 L420.613607,482.415713 L419.300921,487.023713 L413.035829,483.337313 L413.393835,478.345313 L405.040379,476.809313 L399.43163,471.049313 L399.43163,471.049313 Z" id="CZ"></path>
                    <path d="M386.424106,423.894113 L380.99436,418.287713 L368.464176,411.375713 L362.736092,416.137313 L351.995934,419.516513 L351.757264,413.218913 L340.718769,409.148513 L340.181761,402.313313 L333.498996,405.001313 L325.324543,402.697313 L326.279224,412.681313 L329.023931,419.286113 L322.042828,427.964513 L319.894797,424.047713 L310.944666,425.046113 L308.975637,428.809313 L311.183336,434.722913 L309.035304,451.004513 L306.4696,457.686113 L299.906171,457.686113 L302.292872,476.502113 L301.338192,488.636513 L303.665226,492.706913 L303.247553,500.617313 L308.617632,505.378913 L324.787535,508.681313 L319.536792,521.122913 L318.522444,534.102113 L328.06925,534.255713 L330.217282,530.262113 L342.508795,535.868513 L345.850178,534.793313 L351.757264,539.862113 L353.189285,535.100513 L363.094097,535.868513 L371.02988,532.566113 L376.399959,533.180513 L380.099346,536.866913 L380.99436,533.794913 L378.78666,521.967713 L382.724718,519.663713 L386.185436,511.292513 L379.443003,503.458913 L373.595584,499.081313 L371.984561,491.478113 L369.776862,486.102113 L377.59331,482.185313 L381.412032,477.730913 L389.109145,474.274913 L391.615182,470.818913 L394.658227,472.892513 L399.43163,471.049313 L394.180886,459.606113 L394.598559,453.462113 L391.257177,443.938913 L386.901446,437.641313 L389.586486,432.879713 L386.424106,423.894113 L386.424106,423.894113 Z" id="DE"></path>
                    <path d="M369.001184,391.330913 L365.063126,382.575713 L349.90757,388.412513 L351.757264,395.631713 L363.51177,405.538913 L369.001184,391.330913 L369.001184,391.330913 Z M349.310895,376.585313 L343.463476,373.897313 L341.91212,369.058913 L344.716494,363.375713 L344.537492,354.543713 L336.482374,359.382113 L333.021656,364.143713 L323.892522,365.218913 L321.088148,370.441313 L319.536792,375.126113 L320.610807,392.943713 L325.324543,402.697313 L333.498996,405.001313 L340.181761,402.313313 L336.900046,393.788513 L343.881149,381.270113 L347.103196,383.113313 L349.310895,376.585313 L349.310895,376.585313 Z" id="DK"></path>
                    <path d="M498.957089,322.210913 L486.426905,324.668513 L474.075724,329.430113 L476.283423,339.260513 L483.622531,345.404513 L487.142916,343.254113 L487.262251,353.391713 L495.735042,350.396513 L500.568113,352.470113 L510.413239,358.921313 L519.005365,358.921313 L522.645085,353.468513 L517.155671,337.340513 L523.003091,327.510113 L520.974394,324.514913 L510.472907,325.052513 L498.957089,322.210913 L498.957089,322.210913 Z" id="EE"></path>
                    <path d="M499.494097,166.921313 L501.224456,155.938913 L488.216932,149.794913 L474.970737,155.017313 L472.524368,166.460513 L464.827255,173.449313 L454.206433,169.609313 L442.213257,170.377313 L430.697422,162.159713 L425.745016,166.230113 L439.22988,173.986913 L455.459451,184.738913 L459.516844,209.391713 L463.693572,215.689313 L478.252452,223.369313 L480.340816,230.281313 L474.43373,233.660513 L454.683773,251.478113 L447.165663,261.922913 L443.645278,271.599713 L450.38771,286.729313 L450.208708,303.318113 L460.769863,308.924513 L467.810632,318.140513 L483.920869,314.607713 L500.926118,308.386913 L519.065033,307.004513 L537.024939,285.423713 L544.543049,275.746913 L546.691081,267.298913 L529.984193,255.855713 L532.012889,245.103713 L520.974394,232.892513 L524.852784,218.914913 L510.234237,200.559713 L516.678331,188.502113 L500.269775,177.903713 L499.494097,166.921313 L499.494097,166.921313 Z" id="FI"></path>
                    <path d="M173.94799,409.839713 L162.909495,399.010913 L153.959364,399.778913 L155.809058,409.148513 L153.243353,418.594913 L159.866451,418.364513 L167.861901,421.974113 L173.94799,409.839713 L173.94799,409.839713 Z M203.483423,338.876513 L191.012907,340.335713 L182.838454,339.030113 L174.365663,353.007713 L170.009933,370.902113 L175.022006,379.734113 L175.141341,396.630113 L181.108095,388.335713 L184.449478,393.174113 L180.392085,401.007713 L182.838454,405.692513 L195.726643,408.841313 L195.905646,409.071713 L202.886748,419.900513 L201.156389,430.114913 L201.096722,430.114913 L185.105821,428.578913 L182.778786,440.175713 L188.566538,449.698913 L177.050702,455.228513 L179.974412,462.294113 L196.979661,465.289313 L197.098996,465.289313 L187.194185,469.206113 L170.606608,488.022113 L176.39436,491.631713 L184.330143,484.796513 L194.533292,486.793313 L201.932067,478.422113 L207.063476,481.954913 L225.858751,476.962913 L240.536967,477.193313 L250.382111,467.746913 L245.966713,458.530913 L251.515794,453.308513 L252.768813,441.942113 L239.582286,438.562913 L236.479574,431.574113 L229.916144,411.452513 L222.577037,408.610913 L213.2689,387.951713 L212.493222,386.108513 L201.574062,385.033313 L211.240204,369.442913 L214.104246,355.311713 L202.707745,355.234913 L192.086923,357.538913 L203.483423,338.876513 L203.483423,338.876513 Z" id="GB"></path>
                    <path d="M531.953222,767.650944 L549.13745,766.038144 L550.271133,760.508544 L543.886706,762.735744 L543.946374,759.510144 L534.936599,758.127744 L525.628462,759.202944 L518.707028,752.828544 L516.976669,760.892544 L531.833887,764.578944 L531.953222,767.650944 L531.953222,767.650944 Z M544.722052,643.465313 L538.576295,638.703713 L539.292306,647.689313 L528.85051,649.378913 L520.079381,643.081313 L511.12925,648.073313 L502.477474,647.535713 L500.269775,648.150113 L498.599084,651.298913 L492.214657,650.914913 L488.097597,654.908513 L480.519819,656.521313 L480.639154,661.359713 L476.999434,663.970913 L476.701096,669.961313 L471.868025,678.946913 L473.001709,684.246113 L479.684473,694.921313 L484.875549,703.599713 L487.679924,716.118113 L493.050003,731.247744 L503.372487,739.542144 L511.308252,739.234944 L505.699503,722.569336 L513.157946,720.572536 L508.981218,710.895713 L520.318051,715.964513 L519.423038,705.289313 L513.157946,699.836513 L505.938174,691.158113 L510.114902,687.087713 L503.611157,678.332513 L500.15044,667.273313 L502.059801,663.279713 L508.981218,672.726113 L515.544648,672.726113 L521.272732,669.730913 L512.322601,659.362913 L526.105803,654.678113 L532.370895,656.367713 L539.530976,656.905313 L542.156348,654.831713 L544.722052,643.465313 L544.722052,643.465313 Z" id="GR"></path>
                    <path d="M434.87415,564.438113 L425.924018,556.604513 L422.164963,554.377313 L413.453502,559.215713 L412.737492,566.511713 L408.918769,568.431713 L409.276774,573.423713 L404.742041,573.116513 L400.744316,570.121313 L398.834954,573.193313 L390.839504,572.578913 L390.421831,572.886113 L390.481499,579.183713 L394.180886,585.174113 L397.283598,577.417313 L404.801709,580.258913 L405.338716,586.326113 L411.007133,593.929313 L408.739766,595.234913 L419.241254,608.444513 L430.100746,613.820513 L437.201184,620.271713 L448.538017,626.876513 L449.612032,623.881313 L438.931542,617.046113 L434.098472,609.519713 L429.444403,605.602913 L423.716319,598.844513 L420.852277,593.314913 L414.766188,584.866913 L416.675549,577.417313 L421.03128,581.564513 L423.298646,577.801313 L428.609058,577.417313 L438.633205,580.412513 L446.50932,580.182113 L451.939066,584.175713 L455.877124,577.340513 L451.879399,572.194913 L448.597684,565.206113 L444.540291,567.894113 L434.87415,564.438113 L434.87415,564.438113 Z" id="HR"></path>
                    <path d="M466.975287,515.823713 L463.395234,516.975713 L461.127868,521.276513 L456.056127,523.503713 L454.743441,522.351713 L449.492697,525.193313 L445.077299,525.730913 L444.480624,529.340513 L435.172487,531.567713 L430.936092,529.570913 L424.90967,524.962913 L424.551665,532.412513 L418.226905,532.412513 L420.673275,536.329313 L417.63023,548.079713 L419.539591,548.233313 L422.164963,554.377313 L425.924018,556.604513 L434.87415,564.438113 L444.540291,567.894113 L448.597684,565.206113 L456.95114,560.444513 L464.111245,561.212513 L472.942041,557.833313 L478.729793,545.468513 L483.025856,533.180513 L489.529618,529.340513 L488.336267,524.502113 L481.653502,519.510113 L479.445803,521.353313 L466.975287,515.823713 L466.975287,515.823713 Z" id="HU"></path>
                    <path d="M167.861901,421.974113 L159.866451,418.364513 L153.243353,418.594913 L155.809058,409.148513 L153.959364,399.778913 L145.546241,407.919713 L130.331017,421.743713 L135.164088,439.714913 L125.497947,458.300513 L140.892172,460.988513 L160.582461,450.466913 L169.293922,434.569313 L167.861901,421.974113 L167.861901,421.974113 Z" id="IE"></path>
                    <path d="M81.3025946,208.923008 L67.97983,207.241313 L54.0514853,219.910079 L44.3117369,213.183301 L31.0394374,226.076292 L19.6848085,210.044137 L7.1190192,213.51964 L0.25577685,228.991229 L16.9092326,234.484765 L16.7073725,241.435769 L1.82019239,246.0324 L18.7764382,257.804262 L9.79366512,268.454994 L32.3515278,276.078676 L43.0501115,279.666291 L50.5189341,275.181772 L75.3477226,258.701166 L86.9546765,240.426752 L78.5774837,224.282484 L81.3025946,208.923008 L81.3025946,208.923008 Z" id="IS"></path>
                    <path d="M418.525243,705.058913 L409.634779,706.671713 L397.581936,708.745313 L383.619731,707.055713 L382.307045,716.732536 L399.312295,726.332536 L405.458052,728.406144 L414.885523,735.548544 L416.973887,725.794936 L414.945191,719.958136 L418.525243,705.058913 L418.525243,705.058913 Z M342.091122,649.839713 L336.422706,655.522913 L329.978611,654.601313 L332.902321,665.046113 L333.976337,687.394913 L338.630405,692.386913 L343.224806,686.089313 L348.654552,687.318113 L349.549565,662.818913 L342.091122,649.839713 L342.091122,649.839713 Z M374.490597,549.615713 L371.626556,543.318113 L360.647728,546.466913 L359.454377,549.922913 L352.532942,547.311713 L351.936267,554.761313 L347.043528,557.833313 L338.570737,555.529313 L336.363038,562.902113 L330.99296,563.439713 L328.904596,560.598113 L322.758839,566.742113 L317.269425,567.586913 L312.257352,563.670113 L311.959014,568.815713 L315.479399,575.574113 L311.660676,581.103713 L315.002059,595.004513 L321.26715,597.308513 L320.193135,605.142113 L324.90687,603.759713 L331.291297,595.465313 L336.482374,593.007713 L346.088848,598.998113 L351.876599,601.071713 L356.172662,618.812513 L364.406783,629.180513 L375.564613,640.930913 L385.051752,649.071713 L393.703546,650.223713 L399.133292,657.596513 L406.830405,660.898913 L410.649128,668.809313 L415.661201,671.113313 L419.718594,680.482913 L424.850003,691.311713 L422.463301,695.305313 L420.55394,705.366113 L420.732942,711.126113 L425.625681,709.666913 L431.174762,693.538913 L436.0675,692.463713 L436.962514,682.710113 L428.07205,675.798113 L432.368113,663.894113 L442.750265,666.889313 L449.791035,675.490913 L451.581061,668.886113 L450.14904,665.430113 L439.528218,655.906913 L430.637754,650.377313 L419.778262,643.849313 L422.880974,640.239713 L419.778262,636.246113 L410.708795,636.399713 L396.985261,621.884513 L390.421831,606.985313 L379.204333,597.999713 L375.027605,588.783713 L376.161289,583.714913 L375.14694,574.729313 L384.097072,568.278113 L393.285873,570.966113 L390.123493,563.209313 L390.899171,554.300513 L374.490597,549.615713 L374.490597,549.615713 Z" id="IT"></path>
                    <path d="M515.24631,391.254113 L503.969145,382.806113 L498.181411,381.654113 L496.212382,378.044513 L486.128568,379.810913 L468.287973,378.658913 L456.831805,384.034913 L460.710195,398.703713 L472.166363,401.775713 L477.178437,404.540513 L476.641429,409.378913 L477.954115,413.833313 L483.682199,415.753313 L486.904246,421.206113 L497.286398,421.282913 L508.145873,414.678113 L509.339224,404.770913 L517.334674,399.087713 L515.24631,391.254113 L515.24631,391.254113 Z" id="LT"></path>
                    <path d="M303.247553,500.617313 L303.665226,492.706913 L301.338192,488.636513 L298.47415,489.327713 L297.519469,499.465313 L300.025506,501.001313 L303.247553,500.617313 L303.247553,500.617313 Z" id="LU"></path>
                    <path d="M519.005365,358.921313 L510.413239,358.921313 L500.568113,352.470113 L495.735042,350.396513 L487.262251,353.391713 L487.023581,366.678113 L478.670125,367.062113 L468.765313,354.082913 L459.636179,359.996513 L455.757789,370.902113 L456.831805,384.034913 L468.287973,378.658913 L486.128568,379.810913 L496.212382,378.044513 L498.181411,381.654113 L503.969145,382.806113 L515.24631,391.254113 L521.272732,388.335713 L531.654884,381.577313 L526.762146,371.362913 L524.614114,362.914913 L519.005365,358.921313 L519.005365,358.921313 Z" id="LV"></path>
                    <path d="M556.357222,572.809313 L558.982594,570.812513 L560.29528,564.591713 L562.741649,558.831713 L561.607966,555.606113 L563.815665,554.146913 L565.188019,556.681313 L571.930451,557.218913 L574.794493,555.836513 L572.467459,553.993313 L572.944799,551.305313 L568.469733,546.697313 L565.963697,539.094113 L561.548299,536.098913 L561.607966,529.954913 L555.999217,525.039713 L551.285481,524.348513 L542.395018,518.742113 L535.175269,520.508513 L532.788567,523.196513 L536.36862,524.962913 L540.425989,530.338913 L544.841387,538.018913 L552.5385,548.847713 L553.791518,556.834913 L553.433513,564.514913 L556.357222,572.809313 L556.357222,572.809313 Z" id="MD"></path>
                    <path d="M500.687448,635.554913 L494.362688,629.794913 L488.99261,630.102113 L485.173887,631.100513 L482.608183,631.791713 L475.925418,634.633313 L475.686748,638.319713 L474.195059,638.166113 L473.180711,644.310113 L475.38841,652.143713 L480.519819,656.521313 L488.097597,654.908513 L492.214657,650.914913 L498.599084,651.298913 L500.269775,648.150113 L502.477474,647.535713 L500.687448,635.554913 L500.687448,635.554913 Z" id="MK"></path>
                    <path d="M469.063651,620.962913 L469.898996,619.350113 L465.244928,615.663713 L461.30687,613.743713 L459.397509,611.209313 L456.115794,608.137313 L454.087098,609.826913 L450.626381,613.974113 L449.612032,623.881313 L448.538017,626.876513 L453.78876,630.486113 L457.488148,636.399713 L459.994185,637.782113 L458.800834,632.022113 L463.216232,623.190113 L464.170912,626.569313 L467.213957,624.956513 L469.063651,620.962913 L469.063651,620.962913 Z" id="ME"></path>
                    <path d="M299.906171,457.686113 L306.4696,457.686113 L309.035304,451.004513 L311.183336,434.722913 L308.975637,428.809313 L300.025506,428.271713 L285.406958,435.644513 L276.397159,461.833313 L270.848078,466.748513 L278.903196,468.130913 L288.98701,464.444513 L296.147115,472.278113 L302.292872,476.502113 L299.906171,457.686113 L299.906171,457.686113 Z" id="NL"></path>
                    <path d="M489.052277,134.050913 L473.359714,137.122913 L456.772137,136.431713 L445.077299,149.180513 L429.862076,148.412513 L410.768463,155.170913 L387.677124,174.831713 L373.297247,186.735713 L353.129618,217.762913 L337.079049,240.495713 L318.761114,257.545313 L293.223406,271.522913 L284.39261,282.274913 L288.74834,321.289313 L292.984736,339.721313 L307.603283,348.476513 L321.26715,344.406113 L340.539766,324.591713 L348.057877,335.113313 L351.936267,325.206113 L359.693047,313.532513 L361.602409,293.641313 L354.561639,285.116513 L352.35394,262.921313 L357.604683,247.407713 L367.330493,247.714913 L370.194535,241.186913 L366.196809,235.580513 L379.084998,212.617313 L386.782111,194.799713 L391.794185,183.510113 L400.803983,183.510113 L402.236004,174.754913 L420.136267,177.289313 L420.076599,166.921313 L425.745016,166.230113 L430.697422,162.159713 L442.213257,170.377313 L454.206433,169.609313 L464.827255,173.449313 L472.524368,166.460513 L474.970737,155.017313 L488.216932,149.794913 L501.224456,155.938913 L499.494097,166.921313 L506.654184,165.462113 L521.093729,159.164513 L508.921551,149.410913 L519.840711,145.340513 L489.052277,134.050913 L489.052277,134.050913 Z M419.63504,39.8439229 L408.979393,36.5169146 L405.224547,31.0273563 L391.372207,33.9384857 L396.344842,38.6794678 L392.133324,42.5055269 L405.072323,45.915707 L419.63504,39.8439229 L419.63504,39.8439229 Z M370.568326,13.311053 L361.384174,8.57007092 L351.540386,9.06912167 L349.561481,13.7269287 L339.971399,13.8932789 L335.709141,9.06912167 L317.746765,14.0596292 L324.038671,25.0387457 L338.70287,37.3486658 L349.612222,41.5906005 L343.827728,46.9138085 L360.064903,56.1462474 L368.538679,55.5640215 L370.263879,43.0877528 L376.048373,40.2597985 L378.331725,29.4470289 L394.721124,23.7911188 L370.568326,13.311053 L370.568326,13.311053 Z M399.7445,0.418908672 L393.757042,4.41131467 L383.456584,1.1674848 L363.413821,4.91036542 L371.684632,11.1484998 L381.426937,11.3980252 L383.253619,15.2240809 L403.702312,17.5529844 L423.085439,15.8894819 L431.508474,8.48689579 L417.300946,3.74591367 L399.7445,0.418908672 L399.7445,0.418908672 Z" id="NO"></path>
                    <path d="M444.898297,412.143713 L434.575812,411.913313 L433.382461,407.612513 L422.463301,404.694113 L409.515444,410.607713 L393.405208,418.748513 L386.424106,423.894113 L389.586486,432.879713 L386.901446,437.641313 L391.257177,443.938913 L394.598559,453.462113 L394.180886,459.606113 L399.43163,471.049313 L405.040379,476.809313 L413.393835,478.345313 L413.035829,483.337313 L419.300921,487.023713 L420.613607,482.415713 L428.370388,484.412513 L429.862076,490.018913 L438.155864,491.170913 L443.943616,500.079713 L444.659626,501.154913 L449.075024,498.697313 L455.161114,505.071713 L461.426206,501.231713 L466.855952,503.074913 L474.612732,500.540513 L485.83023,507.452513 L488.336267,508.527713 L484.696547,500.386913 L493.288673,485.410913 L498.539416,483.260513 L499.195759,478.268513 L492.035654,462.601313 L490.961639,454.690913 L486.665576,446.396513 L492.811332,442.786913 L492.035654,435.721313 L488.276599,428.962913 L486.904246,421.206113 L483.682199,415.753313 L477.954115,413.833313 L458.323493,414.140513 L444.898297,412.143713 L444.898297,412.143713 Z" id="PL"></path>
                    <path d="M145.665576,726.486136 L144.83023,720.188536 L149.364963,713.122913 L151.095322,707.977313 L147.097597,702.370913 L150.677649,690.082913 L146.202583,678.870113 L151.333992,677.334113 L151.990335,668.578913 L153.959364,665.890913 L154.436704,651.682913 L159.926118,646.767713 L156.883073,637.628513 L150.140641,637.014113 L148.052277,639.318113 L141.19051,639.318113 L138.505471,630.486113 L133.732067,633.097313 L129.316669,637.705313 L129.674674,643.772513 L131.822706,650.300513 L131.822706,658.057313 L129.077999,669.039713 L128.003983,676.566113 L123.111245,683.324513 L121.798559,695.535713 L124.423931,702.678113 L129.674674,704.367713 L130.51002,715.964513 L128.361989,730.786944 L134.567413,728.713344 L140.772837,731.401344 L145.665576,726.486136 L145.665576,726.486136 Z" id="PT"></path>
                    <path d="M532.788567,523.196513 L528.074832,523.196513 L525.68813,527.420513 L517.573344,529.186913 L513.993292,531.951713 L508.384543,527.497313 L501.164788,527.420513 L494.004683,525.423713 L489.529618,529.340513 L483.025856,533.180513 L478.729793,545.468513 L472.942041,557.833313 L464.111245,561.212513 L470.79401,568.354913 L472.524368,574.114913 L479.863476,578.338913 L481.355164,585.788513 L488.455602,591.010913 L491.737317,587.017313 L494.720694,589.244513 L492.333992,592.239713 L494.720694,595.388513 L498.658751,602.761313 L503.014482,601.455713 L512.08393,604.297313 L529.08918,605.218913 L534.339923,600.610913 L547.466759,596.463713 L556.536225,602.991713 L563.517327,604.834913 L564.352673,583.177313 L567.992393,584.866913 L573.123802,580.950113 L572.348124,576.342113 L566.799042,573.193313 L561.786969,576.111713 L556.357222,572.809313 L553.433513,564.514913 L553.791518,556.834913 L552.5385,548.847713 L544.841387,538.018913 L540.425989,530.338913 L536.36862,524.962913 L532.788567,523.196513 L532.788567,523.196513 Z" id="RO"></path>
                    <path d="M479.863476,578.338913 L472.524368,574.114913 L470.79401,568.354913 L464.111245,561.212513 L456.95114,560.444513 L448.597684,565.206113 L451.879399,572.194913 L455.877124,577.340513 L451.939066,584.175713 L456.115794,584.098913 L453.78876,592.009313 L459.874849,598.921313 L458.800834,607.369313 L456.115794,608.137313 L459.397509,611.209313 L461.30687,613.743713 L465.244928,615.663713 L469.898996,619.350113 L469.063651,620.962913 L471.74869,619.657313 L472.882374,613.666913 L474.91107,612.668513 L476.701096,615.202913 L478.968463,616.354913 L480.698821,619.196513 L482.66785,620.041313 L485.173887,623.343713 L486.844578,623.266913 L485.889898,627.644513 L484.636879,629.794913 L485.173887,631.100513 L488.99261,630.102113 L494.362688,629.794913 L496.093047,627.260513 L494.661026,625.110113 L496.152715,619.350113 L500.031105,613.743713 L493.825681,605.986913 L492.214657,599.458913 L494.720694,595.388513 L492.333992,592.239713 L494.720694,589.244513 L491.737317,587.017313 L488.455602,591.010913 L481.355164,585.788513 L479.863476,578.338913 L479.863476,578.338913 Z" id="RS"></path>
                    <path d="M485.83023,507.452513 L474.612732,500.540513 L466.855952,503.074913 L461.426206,501.231713 L455.161114,505.071713 L449.075024,498.697313 L444.659626,501.154913 L443.943616,500.079713 L440.661901,500.079713 L439.170213,503.305313 L436.664176,504.073313 L436.246503,508.220513 L434.217807,509.065313 L434.038804,510.754913 L430.339416,512.674913 L425.38701,512.367713 L424.074325,516.361313 L423.358314,518.665313 L424.90967,524.962913 L430.936092,529.570913 L435.172487,531.567713 L444.480624,529.340513 L445.077299,525.730913 L449.492697,525.193313 L454.743441,522.351713 L456.056127,523.503713 L461.127868,521.276513 L463.395234,516.975713 L466.975287,515.823713 L479.445803,521.353313 L481.653502,519.510113 L483.145191,512.214113 L485.83023,507.452513 L485.83023,507.452513 Z" id="SK"></path>
                    <path d="M422.164963,554.377313 L419.539591,548.233313 L417.63023,548.079713 L415.661201,551.151713 L405.816057,551.612513 L400.326643,555.682913 L390.899171,554.300513 L390.123493,563.209313 L393.285873,570.966113 L390.839504,572.578913 L398.834954,573.193313 L400.744316,570.121313 L404.742041,573.116513 L409.276774,573.423713 L408.918769,568.431713 L412.737492,566.511713 L413.453502,559.215713 L422.164963,554.377313 L422.164963,554.377313 Z" id="SI"></path>
                    <path d="M459.516844,209.391713 L455.459451,184.738913 L439.22988,173.986913 L425.745016,166.230113 L420.076599,166.921313 L420.136267,177.289313 L402.236004,174.754913 L400.803983,183.510113 L391.794185,183.510113 L386.782111,194.799713 L379.084998,212.617313 L366.196809,235.580513 L370.194535,241.186913 L367.330493,247.714913 L357.604683,247.407713 L352.35394,262.921313 L354.561639,285.116513 L361.602409,293.641313 L359.693047,313.532513 L351.936267,325.206113 L348.057877,335.113313 L357.425681,359.458913 L367.509495,379.196513 L371.924893,395.708513 L384.156739,394.940513 L389.168813,381.039713 L402.057002,382.729313 L406.651402,366.447713 L408.023756,337.417313 L418.346241,333.423713 L425.745016,314.146913 L415.064526,304.777313 L406.651402,292.873313 L411.544141,269.218913 L428.967063,254.934113 L442.8696,241.647713 L440.005558,231.663713 L447.822006,220.297313 L463.693572,215.689313 L459.516844,209.391713 Z" id="SE"></path>
                    <path d="M601.823889,449.084513 L590.785394,450.850913 L587.324676,449.929313 L585.236313,453.999713 L581.059585,453.231713 L571.811116,454.306913 L569.006741,458.223713 L569.603417,467.209313 L565.009016,465.519713 L555.223539,466.364513 L551.762822,462.217313 L548.063434,465.289313 L543.648036,462.678113 L534.936599,462.370913 L522.227412,458.070113 L511.009915,456.687713 L502.596809,457.071713 L497.167063,461.910113 L492.035654,462.601313 L499.195759,478.268513 L498.539416,483.260513 L493.288673,485.410913 L484.696547,500.386913 L488.336267,508.527713 L485.83023,507.452513 L483.145191,512.214113 L481.653502,519.510113 L488.336267,524.502113 L489.529618,529.340513 L494.004683,525.423713 L501.164788,527.420513 L508.384543,527.497313 L513.993292,531.951713 L517.573344,529.186913 L525.68813,527.420513 L528.074832,523.196513 L532.788567,523.196513 L535.175269,520.508513 L542.395018,518.742113 L551.285481,524.348513 L555.999217,525.039713 L561.607966,529.954913 L561.548299,536.098913 L565.963697,539.094113 L568.469733,546.697313 L572.944799,551.305313 L572.467459,553.993313 L574.794493,555.836513 L571.930451,557.218913 L565.188019,556.681313 L563.815665,554.146913 L561.607966,555.606113 L562.741649,558.831713 L560.29528,564.591713 L558.982594,570.812513 L556.357222,572.809313 L561.786969,576.111713 L566.799042,573.193313 L572.348124,576.342113 L579.627564,562.978913 L582.670608,552.918113 L592.873758,550.690913 L594.484781,557.526113 L612.683382,562.057313 L616.502104,566.204513 L606.358622,572.271713 L604.807266,575.727713 L617.934125,581.026913 L616.502104,589.474913 L623.304204,593.084513 L637.505079,582.716513 L649.61759,579.567713 L650.930276,573.116513 L639.474108,574.191713 L633.328351,569.890913 L631.120652,558.601313 L639.951448,551.842913 L650.452935,550.844513 L657.076033,545.007713 L665.906829,543.548513 L665.011816,535.407713 L670.083557,530.338913 L680.704379,529.033313 L681.539725,522.966113 L677.422664,512.982113 L680.406041,503.458913 L679.332026,498.159713 L662.028438,492.246113 L655.584344,492.476513 L647.350223,484.028513 L639.354773,486.870113 L624.318552,480.572513 L624.020215,477.039713 L618.888806,469.206113 L609.998342,468.361313 L608.208316,462.831713 L610.356348,459.222113 L601.823889,449.084513 L601.823889,449.084513 Z" id="UA"></path>
                    <path d="M345.611507,632.790113 L343.105471,617.353313 L335.885698,624.265313 L333.737667,630.946913 L336.840379,643.081313 L342.210458,646.767713 L345.611507,632.790113 L345.611507,632.790113 Z M274.129793,484.105313 L268.879049,476.886113 L263.74764,476.578913 L262.076949,470.281313 L252.530143,473.890913 L249.308095,488.636513 L223.531717,502.767713 L213.089898,495.010913 L216.43128,515.516513 L197.755339,510.831713 L183.196459,514.748513 L184.091472,528.034913 L201.156389,535.023713 L209.39051,544.239713 L220.966013,563.286113 L218.579311,599.228513 L212.55289,609.980513 L217.14729,616.969313 L238.448603,625.110113 L242.625331,621.193313 L255.692522,629.334113 L269.177387,627.030113 L270.370737,616.201313 L287.077649,610.364513 L309.989985,615.279713 L320.193135,605.142113 L321.26715,597.308513 L315.002059,595.004513 L311.660676,581.103713 L315.479399,575.574113 L311.959014,568.815713 L312.257352,563.670113 L308.199959,555.759713 L302.82988,558.601313 L302.82988,550.383713 L310.825331,540.169313 L310.34799,535.561313 L315.479399,537.174113 L318.522444,534.102113 L319.536792,521.122913 L324.787535,508.681313 L308.617632,505.378913 L303.247553,500.617313 L300.025506,501.001313 L297.519469,499.465313 L287.674325,491.170913 L282.005908,492.630113 L274.129793,484.105313 L274.129793,484.105313 Z" id="FR"></path>
                    <path d="M253.365488,696.764513 L253.365488,696.226913 L252.231805,695.996513 L251.515794,694.921313 L251.277124,695.458913 L251.098122,695.996513 L251.157789,696.764513 L252.291472,696.764513 L253.126818,696.994913 L253.365488,696.764513 L253.365488,696.764513 Z M251.575462,692.156513 L252.172137,691.849313 L253.663826,689.852513 L253.544491,689.007713 L253.007483,688.316513 L250.441779,689.084513 L249.904771,690.006113 L249.845103,690.927713 L249.367763,691.081313 L248.95009,692.386913 L249.367763,692.847713 L251.157789,693.308513 L251.575462,692.156513 L251.575462,692.156513 Z M212.55289,609.980513 L193.936617,609.366113 L184.330143,610.287713 L172.098297,607.292513 L156.644403,607.369313 L142.622531,604.143713 L125.855952,617.046113 L130.331017,624.879713 L129.316669,637.705313 L133.732067,633.097313 L138.505471,630.486113 L141.19051,639.318113 L148.052277,639.318113 L150.140641,637.014113 L156.883073,637.628513 L159.926118,646.767713 L154.436704,651.682913 L153.959364,665.890913 L151.990335,668.578913 L151.333992,677.334113 L146.202583,678.870113 L150.677649,690.082913 L147.097597,702.370913 L151.095322,707.977313 L149.364963,713.122913 L144.83023,720.188536 L145.665576,726.486136 L156.763738,729.404544 L159.926118,740.310144 L164.281849,746.684544 L170.0696,748.297344 L174.783336,741.154944 L182.361114,734.396544 L193.697947,734.780544 L208.853502,734.473344 L217.385961,719.958136 L226.395759,716.194913 L228.961464,703.906913 L235.823231,695.535713 L231.22883,684.783713 L235.763563,669.730913 L242.983336,659.516513 L243.997684,653.372513 L258.91457,649.532513 L269.893397,637.474913 L269.177387,627.030113 L255.692522,629.334113 L242.625331,621.193313 L238.448603,625.110113 L217.14729,616.969313 L212.55289,609.980513 L212.55289,609.980513 Z M271.504421,675.874913 L271.683423,675.030113 L272.041429,674.569313 L272.160764,674.031713 L271.743091,673.724513 L271.743091,673.417313 L272.101096,672.726113 L271.623756,672.572513 L268.700046,673.724513 L267.268025,674.722913 L262.434954,679.177313 L262.434954,679.945313 L262.733292,680.559713 L263.50897,680.713313 L263.986311,681.711713 L264.881324,680.713313 L265.537667,680.252513 L266.313345,680.482913 L266.850353,681.097313 L267.14869,682.940513 L267.506695,683.401313 L268.700046,683.708513 L270.728743,685.014113 L271.743091,684.399713 L272.757439,683.401313 L273.294447,681.711713 L273.95079,680.252513 L274.726468,678.946913 L275.263476,677.641313 L275.084473,676.412513 L274.487798,676.105313 L273.831455,675.951713 L272.638104,676.489313 L271.504421,675.874913 L271.504421,675.874913 Z M285.048953,674.953313 L285.34729,673.878113 L285.227955,673.570913 L284.15394,671.420513 L282.184911,670.652513 L279.798209,670.882913 L279.678874,671.343713 L279.678874,672.418913 L279.977212,672.802913 L281.170563,673.033313 L284.810283,675.183713 L285.048953,674.953313 L285.048953,674.953313 Z" id="ES"></path>
                </g>
                <ellipse id="Oval-8" fill="#EE7844" sketch:type="MSShapeGroup" cx="409.5" cy="322.5" rx="6.5" ry="6.5"></ellipse>
                <ellipse id="Oval-8-Copy" fill="#EE7844" sketch:type="MSShapeGroup" cx="366.5" cy="354.5" rx="6.5" ry="6.5"></ellipse>
                <ellipse id="Oval-8-Copy-2" fill="#EE7844" sketch:type="MSShapeGroup" cx="378.5" cy="384.5" rx="6.5" ry="6.5"></ellipse>
                <ellipse id="Oval-8-Copy-3" fill="#EE7844" sketch:type="MSShapeGroup" cx="298.5" cy="440.5" rx="6.5" ry="6.5"></ellipse>
            </g>
        </g>
    </g>
</svg>