<!-- Generator: Adobe Illustrator 18.0.0, SVG Export Plug-In  -->
<svg version="1.1"
	 xmlns="http://www.w3.org/2000/svg" xmlns:xlink="http://www.w3.org/1999/xlink" xmlns:a="http://ns.adobe.com/AdobeSVGViewerExtensions/3.0/"
	 x="0px" y="0px" width="612px" height="510.8px" viewBox="0 50.6 612 510.8" enable-background="new 0 50.6 612 510.8"
	 xml:space="preserve">
<defs>
</defs>
<g>
	<path d="M578.8,0.9V0h-3H35.9h-3v0.9C15.3,2.1,2.1,16.2,0,33.2v3v355.7c0,6.9,1.8,12.7,4.8,17.9c6.9,12.1,17.1,18.3,31.1,18.3h197
		v49.7h-37.4c-9.3,0-16.5,7.2-16.5,16.5c0,9.3,7.2,16.5,16.5,16.5h220.7c9.3,0,16.8-7.2,16.8-16.5c0-9.3-7.5-16.5-16.8-16.5h-37.4
		v-49.7h197c14.1,0,24.3-6.1,31.1-18.3c3.1-5.5,5.1-11.4,5.1-17.9V36.2v-3C609.9,16.2,595.8,2.1,578.8,0.9z M578.8,36.2v355.7
		c0,2.1-0.9,3-3,3H35.9c-2.1,0-3-0.9-3-3V36.2v-3h545.8L578.8,36.2L578.8,36.2z"/>
</g>
</svg>
