<!-- Generator: Adobe Illustrator 19.1.0, SVG Export Plug-In  -->
<svg version="1.1"
     xmlns="http://www.w3.org/2000/svg" xmlns:xlink="http://www.w3.org/1999/xlink" xmlns:a="http://ns.adobe.com/AdobeSVGViewerExtensions/3.0/"
     x="0px" y="0px" width="355.2px" height="466.1px" viewBox="0 0 355.2 466.1" style="enable-background:new 0 0 355.2 466.1;"
     xml:space="preserve">
<defs>
</defs>
<g>
    <path d="M233.8,191.9c28.8-18.5,48-50.8,48-87.7C281.8,46.7,235.2,0,177.6,0C120.1,0,73.4,46.7,73.4,104.2
        c0,36.8,19.2,69.1,48,87.7C53.5,197.9,0,255.2,0,324.7v108.2l0.3,1.7l7.5,2.3c70.2,21.9,131.2,29.3,181.4,29.3
        c98,0,154.9-28,158.4-29.7l7-3.5h0.7V324.7C355.2,255.2,301.8,198,233.8,191.9z"/>
</g>
</svg>
