<?xml version="1.0" encoding="UTF-8" standalone="no"?>
<svg width="30px" height="31px" viewBox="0 0 30 31" version="1.1" xmlns="http://www.w3.org/2000/svg" xmlns:xlink="http://www.w3.org/1999/xlink" xmlns:sketch="http://www.bohemiancoding.com/sketch/ns">
    <!-- Generator: Sketch 3.3 (11970) - http://www.bohemiancoding.com/sketch -->
    <title>icon-qa-payment</title>
    <desc>Created with Sketch.</desc>
    <defs></defs>
    <g id="icons" stroke="none" stroke-width="1" fill="none" fill-rule="evenodd" sketch:type="MSPage">
        <g id="icon-qa-payment" sketch:type="MSLayerGroup">
            <path d="M15,30.4344828 C23.2842712,30.4344828 30,23.718754 30,15.4344828 C30,7.15021151 23.2842712,0.434482759 15,0.434482759 C6.71572875,0.434482759 0,7.15021151 0,15.4344828 C0,23.718754 6.71572875,30.4344828 15,30.4344828 Z" id="Oval-18" fill="#D8D8D8" sketch:type="MSShapeGroup"></path>
            <rect id="Rectangle-168" stroke="#FFFFFF" stroke-width="2" sketch:type="MSShapeGroup" x="15" y="6.1862069" width="1" height="3.10344828"></rect>
            <rect id="Rectangle-168-Copy" stroke="#FFFFFF" stroke-width="2" sketch:type="MSShapeGroup" x="15" y="21.5793103" width="1" height="3.10344828"></rect>
            <path d="M17.6447606,11.8054868 C17.4132063,11.4581554 17.1035072,11.2036491 16.7156538,11.0419604 C16.3278004,10.8802716 15.9196921,10.7994285 15.4913168,10.7994285 C15.2366071,10.7994285 14.9905844,10.8293704 14.7532413,10.8892551 C14.5158981,10.9491398 14.3017137,11.0449539 14.1106814,11.1767003 C13.9196491,11.3084467 13.7662467,11.4791156 13.6504696,11.6887121 C13.5346925,11.8983087 13.4768048,12.1468265 13.4768048,12.4342732 C13.4768048,12.8654432 13.621524,13.1948042 13.9109669,13.4223662 C14.2004097,13.6499281 14.5593134,13.8475447 14.9876888,14.0152219 C15.4160641,14.1828992 15.8849545,14.3445855 16.3943738,14.5002858 C16.9037932,14.655986 17.3726836,14.8715678 17.8010589,15.1470375 C18.2294343,15.4225073 18.588338,15.7877986 18.8777808,16.2429225 C19.1672237,16.6980463 19.3119429,17.302873 19.3119429,18.0574205 C19.3119429,18.7401063 19.1903787,19.3359503 18.9472468,19.8449705 C18.7041148,20.3539906 18.3770493,20.7761716 17.9660405,21.111526 C17.5550317,21.4468804 17.0774582,21.6983925 16.5333057,21.8660697 C15.9891532,22.0337469 15.416065,22.1175843 14.8140239,22.1175843 C14.0498949,22.1175843 13.3147211,21.9858399 12.6084807,21.7223471 C11.9022402,21.4588543 11.2944194,21.015714 10.785,20.3929129 L12.4348158,18.7401029 C12.7011032,19.1592959 13.0513238,19.4856628 13.485488,19.7192132 C13.9196523,19.9527636 14.3798594,20.0695371 14.8661234,20.0695371 C15.1208331,20.0695371 15.3755389,20.0336068 15.6302486,19.9617451 C15.8849583,19.8898834 16.1165091,19.7820925 16.3249079,19.6383692 C16.5333068,19.4946459 16.7011811,19.3120002 16.8285359,19.0904267 C16.9558908,18.8688533 17.0195672,18.614347 17.0195672,18.3269004 C17.0195672,17.8597995 16.874848,17.5004966 16.5854052,17.2489808 C16.2959623,16.9974649 15.9370586,16.7848774 15.5086832,16.6112117 C15.0803079,16.437546 14.6114175,16.2728655 14.1019982,16.1171652 C13.5925788,15.9614649 13.1236885,15.7488773 12.6953131,15.4793961 C12.2669377,15.2099148 11.908034,14.8506119 11.6185912,14.4014765 C11.3291483,13.9523411 11.1844291,13.3505086 11.1844291,12.5959611 C11.1844291,11.9372292 11.3146764,11.3683329 11.575175,10.8892551 C11.8356735,10.4101773 12.1772109,10.0119499 12.5997974,9.69456087 C13.0223839,9.37717184 13.5057462,9.14063074 14.0498987,8.98493046 C14.5940512,8.82923019 15.1497731,8.75138122 15.717081,8.75138122 C16.365433,8.75138122 16.9935145,8.85318372 17.6013444,9.05679177 C18.2091743,9.26039982 18.756213,9.59574924 19.242477,10.0628501 L17.6447606,11.8054868 Z" id="S" fill="#FFFFFF" sketch:type="MSShapeGroup"></path>
        </g>
    </g>
</svg>