<!-- Generator: Adobe Illustrator 18.0.0, SVG Export Plug-In  -->
<svg version="1.1"
	 xmlns="http://www.w3.org/2000/svg" xmlns:xlink="http://www.w3.org/1999/xlink" xmlns:a="http://ns.adobe.com/AdobeSVGViewerExtensions/3.0/"
	 x="0px" y="0px" width="1000px" height="1000px" viewBox="0 0 1000 1000" enable-background="new 0 0 1000 1000"
	 xml:space="preserve">
<defs>
</defs>
<g>
	<g>
		<path d="M888.9,111.1h-50v111.1H661.1V111.1H338.9v111.1H161.1V111.1h-50C50,111.1,0,161.1,0,222.2v666.7
			C0,950,50,1000,111.1,1000h777.8c61.1,0,111.1-50,111.1-111.1V222.2C1000,161.1,950,111.1,888.9,111.1z M888.9,888.9H111.1V444.4
			h777.8V888.9z M288.9,0h-77.8v188.9h77.8V0z M788.9,0h-77.8v188.9h77.8V0z"/>
	</g>
</g>
</svg>
