<?xml version="1.0" encoding="UTF-8" standalone="no"?>
<svg width="98px" height="70px" viewBox="0 0 98 70" version="1.1" xmlns="http://www.w3.org/2000/svg" xmlns:xlink="http://www.w3.org/1999/xlink" xmlns:sketch="http://www.bohemiancoding.com/sketch/ns">
    <!-- Generator: Sketch 3.3 (11970) - http://www.bohemiancoding.com/sketch -->
    <title>icon-renout-villa-checked</title>
    <desc>Created with Sketch.</desc>
    <defs></defs>
    <g id="icons" stroke="none" stroke-width="1" fill="none" fill-rule="evenodd" sketch:type="MSPage">
        <g id="icon-renout-villa-checked" sketch:type="MSLayerGroup" transform="translate(0.000000, 1.000000)" stroke="#D24E13">
            <path d="M12.5174278,19.6446451 C12.400854,19.8729304 12.2884749,20.1019868 12.1802685,20.3316864 C6.6119223,23.501614 3.08361557,28.6655527 2.99287466,33.8398424 C4.7333843,31.5380155 7.16997962,29.3896915 10.1298324,27.5954603 C9.62661646,32.5142401 10.9389686,37.112923 13.847363,40.1251466 C13.2639606,35.9237631 13.9784645,30.8934822 16.0532134,25.8728077 L22.3076246,61.3433361 C22.5690763,62.8261024 23.9793099,63.8129673 25.4582849,63.5521842 C26.9342504,63.2919316 27.9245533,61.8796529 27.6634666,60.3989566 L21.1255045,23.320331 L21.1255045,23.320331 C21.1484939,23.3155656 21.1714787,23.3108251 21.1944591,23.3061095 C26.6388463,26.5050693 30.6032318,30.8283732 32.3399167,35.1569331 C33.392134,31.0208321 32.0590829,26.4551972 28.9755335,22.6455852 C32.402112,22.7881451 35.5043619,23.5375116 38,24.8167155 L37.9999971,24.8167097 C35.4791912,19.8104845 29.3673251,16.9442521 22.5115162,17.3014974 C22.1845473,17.121515 21.851044,16.9480357 21.5112073,16.7814349 C24.7374612,12.9047163 28.5310123,10.1800901 32.2208245,8.99105665 L32.2208184,8.99105465 C26.8293527,7.2107972 20.3850313,9.5888386 15.7767941,14.8289325 C9.50151247,13.5752031 3.45960021,15.1583894 -2.83106871e-15,19.0000328 C3.65130536,18.2302149 8.01263213,18.4176974 12.5174278,19.6446451 Z" id="Rectangle-39" fill="#EE7844" sketch:type="MSShapeGroup"></path>
            <g id="Rectangle-13-+-Rectangle-14-Copy" transform="translate(33.241699, 0.000000)" sketch:type="MSShapeGroup">
                <path d="M34.5127509,6 L25.2047717,6 L25.2047717,6 L7.78521048,23.4195612 L7.78521048,50.8591983 C7.78521048,53.0606006 9.57688184,54.8574048 11.7870205,54.8574048 L47.7834005,54.8574048 C49.9921192,54.8574048 51.7852105,53.0673468 51.7852105,50.8591983 L51.7852105,23.2724596 L34.5127509,6 Z" id="Rectangle-13" stroke-width="2" fill="#FFFFFF"></path>
                <rect id="Rectangle-14" fill="#EE7844" x="23.570421" y="30.4287024" width="12.429579" height="19.2938709" rx="2"></rect>
                <path d="M38.9332477,9.60746335 L30.8135886,1.48780425 C29.8063324,0.480548134 28.2052074,0.423870655 27.1274147,1.31886034 L27.1274147,1.31886034 C26.9973094,1.40964036 26.8733701,1.51305699 26.7573067,1.62912045 L1.63778091,26.7486462 C0.569509139,27.816918 0.570468832,29.5531864 1.64195856,30.6246761 C2.71126803,31.6939856 4.448806,31.6980363 5.51798848,30.6288538 L28.8561057,7.29073654 L52.0529068,30.4875376 C53.1211785,31.5558094 54.8574469,31.5548497 55.9289367,30.4833599 C56.9982461,29.4140505 57.0022968,27.6765125 55.9331143,26.60733 L45.7678796,16.4420952 C45.8752577,16.1065646 45.9332477,15.7490266 45.9332477,15.377991 L45.9332477,8.37134575 C45.9332477,6.43989495 44.3662443,4.87466838 42.4332477,4.87466838 C40.5041843,4.87466838 38.9332477,6.44018416 38.9332477,8.37134575 L38.9332477,9.60746335 Z" id="Rectangle-11" stroke-width="2" fill="#EE7844"></path>
            </g>
            <path d="M61.4958176,69 L42.8932209,69 L4,69 L5.33281576,60.3012134 C5.75126451,57.570156 8.31755411,55.0691701 11.0465973,54.7174489 L30.3765179,52.2261939 L30.3765224,52.2261925 C30.7763235,49.4515848 33.0285702,47.4348009 36.3299537,47.3114808 L52.7814931,46.6969491 C54.2449956,44.8051149 56.4796146,43.519411 58.9862162,43.3713472 L93.0146729,41.3613026 C95.767993,41.1986653 98,43.3054926 98,46.0607142 L98,69 L61.4958176,69 Z" id="Rectangle-36" fill="#EE7844" sketch:type="MSShapeGroup"></path>
        </g>
    </g>
</svg>