<!-- Generator: Adobe Illustrator 18.0.0, SVG Export Plug-In  -->
<svg version="1.1"
	 xmlns="http://www.w3.org/2000/svg" xmlns:xlink="http://www.w3.org/1999/xlink" xmlns:a="http://ns.adobe.com/AdobeSVGViewerExtensions/3.0/"
	 x="0px" y="0px" width="538.8px" height="501.6px" viewBox="0 18.6 538.8 501.6" enable-background="new 0 18.6 538.8 501.6"
	 xml:space="preserve">
<defs>
</defs>
<g>
	<path d="M41.4,501.6c43.3,0,26.2-41.2,9.2-51.1c-17-27.7,40.4-55.3,50.4-63.9c9.9-8.5,44.7-27.7,42.6-66.7
		c-0.7-16.3,75.9,17.7,100,22c24.1,4.3,74.5,3.5,83-5.7s-19.2,140.5,30.5,150.4c49.7,9.9,73.8-9.2,61.7-29.1
		c-12.1-19.9-39-14.9-24.8-68.8s0.7-56.1,0-58.9s75.2-77.3,76.6-112.1c1.4-34.8-11.4-92.2,33.3-110.7c44.7-18.4,34.1-42.6,32.6-49
		c-1.4-6.4-49.7-5-49.7-5s-5-23.4-40.4-23.4l-7.1-25.5l-14.2,14.9L418.2,0c0,0-69.5,88-91.5,129.1c-22,41.2-136.9,52.5-152.6,52.5
		s-90.8-6.4-63.2-44.7c16.4-12.1,39.7,24.8,41.9,30.5c2.1,5.7,63.9,14.2,33.3-56.8c-30.5-71-126.3-76.6-156.1-20.6
		C0.3,146.2,45.7,223.5,50.6,227.8c0,0-59.6,58.2-13.5,124.9c10.5,17.5-27,38.3-34.1,55.3C-4,425-1.8,501.6,41.4,501.6z"/>
</g>
</svg>
