<!-- Generator: Adobe Illustrator 18.0.0, SVG Export Plug-In  -->
<svg version="1.1"
	 xmlns="http://www.w3.org/2000/svg" xmlns:xlink="http://www.w3.org/1999/xlink" xmlns:a="http://ns.adobe.com/AdobeSVGViewerExtensions/3.0/"
	 x="0px" y="0px" width="926.8px" height="1000px" viewBox="36.6 0 926.8 1000" enable-background="new 36.6 0 926.8 1000"
	 xml:space="preserve">
<defs>
</defs>
<g>
	<path d="M286.2,33.3c0-18.4-14.9-33.3-33.3-33.3H33.3C14.9,0,0,14.9,0,33.3v500.4c0,8.5,6.9,15.4,15.4,15.4h255.3
		c8.5,0,15.4-6.9,15.4-15.4L286.2,33.3L286.2,33.3z"/>
	<path d="M911.4,549.1c8.5,0,15.4-6.9,15.4-15.4v-116c0-18.4-14.9-33.3-33.3-33.3H368.2c-8.5,0-15.4,6.9-15.4,15.4v133.8
		c0,8.5,6.9,15.4,15.4,15.4H911.4z"/>
	<path d="M15.4,615.6c-8.5,0-15.4,6.9-15.4,15.4v335.6c0,18.4,14.9,33.3,33.3,33.3h329.5c12.6,0,24.1-7.1,29.8-18.4l45.7-91.4h199.1
		c159.6,0,289.5-113.5,289.5-252.9v-6.2c0-8.5-6.9-15.4-15.4-15.4L15.4,615.6L15.4,615.6z"/>
</g>
</svg>
