<?xml version="1.0" encoding="UTF-8" standalone="no"?>
<svg width="31px" height="32px" viewBox="0 0 31 32" version="1.1" xmlns="http://www.w3.org/2000/svg" xmlns:xlink="http://www.w3.org/1999/xlink" xmlns:sketch="http://www.bohemiancoding.com/sketch/ns">
    <!-- Generator: Sketch 3.3 (11970) - http://www.bohemiancoding.com/sketch -->
    <title>icon-rentout-price</title>
    <desc>Created with Sketch.</desc>
    <defs></defs>
    <g id="Page-1" stroke="none" stroke-width="1" fill="none" fill-rule="evenodd" sketch:type="MSPage">
        <g id="list-property-complete" sketch:type="MSArtboardGroup" transform="translate(-893.000000, -860.000000)">
            <g id="icon-rentout-price" sketch:type="MSLayerGroup" transform="translate(893.500000, 861.768000)">
                <g id="Oval-18-+-Line-Copy-+-Oval-21-+-Rectangle-167-Copy" stroke="#1A1A1A" stroke-width="2" sketch:type="MSShapeGroup">
                    <ellipse id="Oval-18" cx="15" cy="14.5" rx="14.516129" ry="14.5"></ellipse>
                </g>
                <rect id="Rectangle-168" stroke="#1A1A1A" stroke-width="2" sketch:type="MSShapeGroup" x="15" y="4" width="1" height="3"></rect>
                <rect id="Rectangle-168-Copy" stroke="#1A1A1A" stroke-width="2" sketch:type="MSShapeGroup" x="15" y="22" width="1" height="3"></rect>
                <path d="M17.78,10.88 C17.513332,10.4933314 17.1566689,10.2100009 16.71,10.03 C16.2633311,9.8499991 15.7933358,9.76 15.3,9.76 C15.0066652,9.76 14.7233347,9.793333 14.45,9.86 C14.1766653,9.926667 13.9300011,10.0333326 13.71,10.18 C13.4899989,10.3266674 13.313334,10.5166655 13.18,10.75 C13.046666,10.9833345 12.98,11.2599984 12.98,11.58 C12.98,12.0600024 13.146665,12.4266654 13.48,12.68 C13.813335,12.9333346 14.2266642,13.1533324 14.72,13.34 C15.2133358,13.5266676 15.7533304,13.7066658 16.34,13.88 C16.9266696,14.0533342 17.4666642,14.2933318 17.96,14.6 C18.4533358,14.9066682 18.866665,15.3133308 19.2,15.82 C19.533335,16.3266692 19.7,16.9999958 19.7,17.84 C19.7,18.6000038 19.5600014,19.2633305 19.28,19.83 C18.9999986,20.3966695 18.6233357,20.8666648 18.15,21.24 C17.6766643,21.6133352 17.1266698,21.8933324 16.5,22.08 C15.8733302,22.2666676 15.2133368,22.36 14.52,22.36 C13.6399956,22.36 12.7933374,22.2133348 11.98,21.92 C11.1666626,21.6266652 10.4666696,21.1333368 9.88,20.44 L11.78,18.6 C12.0866682,19.066669 12.4899975,19.4299987 12.99,19.69 C13.4900025,19.9500013 14.0199972,20.08 14.58,20.08 C14.8733348,20.08 15.1666652,20.0400004 15.46,19.96 C15.7533348,19.8799996 16.0199988,19.7600008 16.26,19.6 C16.5000012,19.4399992 16.6933326,19.2366679 16.84,18.99 C16.9866674,18.7433321 17.06,18.4600016 17.06,18.14 C17.06,17.6199974 16.893335,17.2200014 16.56,16.94 C16.226665,16.6599986 15.8133358,16.4233343 15.32,16.23 C14.8266642,16.0366657 14.2866696,15.8533342 13.7,15.68 C13.1133304,15.5066658 12.5733358,15.2700015 12.08,14.97 C11.5866642,14.6699985 11.173335,14.2700025 10.84,13.77 C10.506665,13.2699975 10.34,12.6000042 10.34,11.76 C10.34,11.026663 10.4899985,10.393336 10.79,9.86 C11.0900015,9.326664 11.4833309,8.8833351 11.97,8.53 C12.4566691,8.1766649 13.0133302,7.9133342 13.64,7.74 C14.2666698,7.5666658 14.9066634,7.48 15.56,7.48 C16.3066704,7.48 17.0299965,7.5933322 17.73,7.82 C18.4300035,8.0466678 19.0599972,8.4199974 19.62,8.94 L17.78,10.88 Z" id="S" fill="#1A1A1A" sketch:type="MSShapeGroup"></path>
            </g>
        </g>
    </g>
</svg>