<!-- Generator: Adobe Illustrator 18.0.0, SVG Export Plug-In  -->
<svg version="1.1"
	 xmlns="http://www.w3.org/2000/svg" xmlns:xlink="http://www.w3.org/1999/xlink" xmlns:a="http://ns.adobe.com/AdobeSVGViewerExtensions/3.0/"
	 x="0px" y="0px" width="52px" height="96.1px" viewBox="22.1 0 52 96.1" enable-background="new 22.1 0 52 96.1"
	 xml:space="preserve">
<defs>
</defs>
<g>
	<path d="M50,0L37.5,0c-14,0-23.1,9.3-23.1,23.7v10.9H2c-1.1,0-2,0.9-2,2v15.8c0,1.1,0.9,2,2,2h12.5v39.9c0,1.1,0.9,2,2,2h16.4
		c1.1,0,2-0.9,2-2V54.3h14.7c1.1,0,2-0.9,2-2l0-15.8c0-0.5-0.2-1-0.6-1.4s-0.9-0.6-1.4-0.6H34.8v-9.2c0-4.4,1.1-6.7,6.8-6.7l8.4,0
		c1.1,0,2-0.9,2-2V2C52,0.9,51.1,0,50,0z"/>
</g>
</svg>
