<!-- Generator: Adobe Illustrator 18.0.0, SVG Export Plug-In  -->
<svg version="1.1"
	 xmlns="http://www.w3.org/2000/svg" xmlns:xlink="http://www.w3.org/1999/xlink" xmlns:a="http://ns.adobe.com/AdobeSVGViewerExtensions/3.0/"
	 x="0px" y="0px" width="612px" height="447.1px" viewBox="0 82.4 612 447.1" enable-background="new 0 82.4 612 447.1"
	 xml:space="preserve">
<defs>
</defs>
<g>
	<g id="Wi-Fi_1_">
		<g>
			<path d="M306,335.3c-30.9,0-55.9,25-55.9,55.9c0,30.8,25,55.9,55.9,55.9s55.9-25,55.9-55.9C361.9,360.4,336.8,335.3,306,335.3z
				 M605.4,139.9C530.7,51,421.5,0,306,0S81.3,51,6.6,139.9c-9.9,11.8-8.4,29.4,3.4,39.4c5.2,4.4,11.6,6.6,17.9,6.6
				c8,0,15.9-3.4,21.4-10C113.4,99.6,207,55.9,306,55.9s192.6,43.7,256.7,120c5.5,6.6,13.5,10,21.4,10c6.4,0,12.7-2.1,18-6.6
				C613.8,169.4,615.4,151.7,605.4,139.9z M306,111.8c-82.5,0-160.5,36.4-213.9,99.9c-9.9,11.8-8.4,29.4,3.4,39.4
				c5.2,4.4,11.6,6.6,18,6.6c8,0,15.9-3.4,21.4-10c42.7-50.8,105.1-80,171.1-80s128.4,29.2,171.1,80c5.5,6.6,13.5,10,21.4,10
				c6.4,0,12.7-2.1,18-6.6c11.8-9.9,13.4-27.6,3.4-39.4C466.5,148.2,388.5,111.8,306,111.8z M306,223.5
				c-49.6,0-96.3,21.9-128.3,59.9c-9.9,11.8-8.4,29.4,3.4,39.4c5.2,4.4,11.6,6.6,18,6.6c8,0,15.9-3.4,21.4-10
				c21.4-25.4,52.6-40,85.5-40s64.2,14.6,85.5,40c5.5,6.6,13.5,10,21.4,10c6.4,0,12.7-2.1,18-6.6c11.8-9.9,13.4-27.6,3.4-39.4
				C402.3,245.4,355.5,223.5,306,223.5z"/>
		</g>
	</g>
</g>
</svg>
