<!-- Generator: Adobe Illustrator 18.0.0, SVG Export Plug-In  -->
<svg version="1.1"
	 xmlns="http://www.w3.org/2000/svg" xmlns:xlink="http://www.w3.org/1999/xlink" xmlns:a="http://ns.adobe.com/AdobeSVGViewerExtensions/3.0/"
	 x="0px" y="0px" width="487.6px" height="621.3px" viewBox="66.8 0 487.6 621.3" enable-background="new 66.8 0 487.6 621.3"
	 xml:space="preserve">
<defs>
</defs>
<g>
	<path d="M285.1,402.3c-23.8,38.8-70.7,32-85.7,1.4c-39.5,42.9-71.6-1.4-71.6-1.4c7.2,57.2,56,101.4,115.1,101.4
		c60.1,0,109.5-45.6,115.4-104.2C358.4,399.4,305.5,430.1,285.1,402.3L285.1,402.3z"/>
	<path d="M243.1,531.9c-75.9,0-137.5-61.5-137.5-137.5c0-75.9,61.5-137.5,137.5-137.5c75.9,0,137.5,61.6,137.5,137.5
		C380.6,470.4,319,531.9,243.1,531.9L243.1,531.9z M0,177.5V605c0,9,7.6,16.3,17,16.3h453.6c9.4,0,17-7.3,17-16.3V177.5H0L0,177.5z"
		/>
	<path d="M170.2,97.5c-13.5,0-24.4-10.9-24.4-24.4c0-13.5,10.9-24.4,24.4-24.4c13.5,0,24.4,10.9,24.4,24.4
		C194.6,86.6,183.7,97.5,170.2,97.5L170.2,97.5z M89.7,97.5c-13.5,0-24.4-10.9-24.4-24.4c0-13.5,10.9-24.4,24.4-24.4
		c13.5,0,24.4,10.9,24.4,24.4C114.1,86.6,103.2,97.5,89.7,97.5L89.7,97.5z M470.6,0H17C7.6,0,0,7.9,0,17.6v128.7h487.6V17.6
		C487.6,7.9,480,0,470.6,0L470.6,0z"/>
</g>
</svg>
