<!-- Generator: Adobe Illustrator 18.0.0, SVG Export Plug-In  -->
<svg version="1.1"
	 xmlns="http://www.w3.org/2000/svg" xmlns:xlink="http://www.w3.org/1999/xlink" xmlns:a="http://ns.adobe.com/AdobeSVGViewerExtensions/3.0/"
	 x="0px" y="0px" width="933.8px" height="1000px" viewBox="33.1 0 933.8 1000" enable-background="new 33.1 0 933.8 1000"
	 xml:space="preserve">
<defs>
</defs>
<g>
	<g>
		<path d="M271.6,138.7c-5.3-12.1-8-25.3-8-39.5c0-13.5,2.7-26.3,8-38.4c5.3-12.1,12.5-22.6,21.3-31.5
			c8.9-8.9,19.4-16,31.5-21.3c12.1-5.3,25.3-8,39.5-8c13.5,0,26.3,2.7,38.4,8c12.1,5.3,22.8,12.5,32,21.3s16.4,19.4,21.3,31.5
			s7.5,24.9,7.5,38.4c0,27.7-9.6,51.4-28.8,71s-42.7,29.3-70.4,29.3c-14.2,0-27.4-2.7-39.5-8s-22.6-12.5-31.5-21.3
			C284.1,161.3,276.9,150.8,271.6,138.7z M659.5,685.2c-12.1-2.8-22.9-1.1-32.5,5.3s-15.8,15.3-18.7,26.7c-2.1,10.7-5.3,21-9.6,30.9
			c-9.2,24.9-22.2,47.7-39,68.3c-16.7,20.6-35.9,38.4-57.6,53.4c-21.7,14.9-45.5,26.5-71.5,34.7c-26,8.2-52.8,12.3-80.6,12.3
			c-36.3,0-70.4-6.8-102.5-20.3c-32-13.5-59.9-31.7-83.8-54.4c-23.8-22.8-42.7-49.6-56.6-80.6c-13.9-30.9-20.8-64.2-20.8-99.8
			c0-26.3,4.1-51.8,12.3-76.3c8.2-24.5,19.7-47.3,34.7-68.3c14.9-21,32.7-39.5,53.4-55.5c20.6-16,43.8-29,69.4-39
			c11.4-3.6,19.6-10.7,24.5-21.3s5.3-21.3,1.1-32c-4.3-10.7-11.9-18.3-22.9-22.9c-11-4.6-22.2-5.2-33.6-1.6
			c-33.4,12.8-64,29.9-91.8,51.2c-27.7,21.3-51.6,45.9-71.5,73.6s-35.2,58-45.9,90.7C5.3,593,0,626.8,0,661.7
			c0,47,9.2,90.9,27.7,131.8c18.5,40.9,43.6,76.7,75.2,107.3c31.7,30.6,68.7,54.8,111,72.6c42.3,17.8,87.7,26.7,136.1,26.7
			c37,0,72.6-5.3,106.7-16c34.1-10.7,65.8-25.8,95-45.4c29.2-19.6,54.8-43.2,76.8-71c22.1-27.7,39.1-58.3,51.2-91.8
			c5-12.1,9.2-25.6,12.8-40.6c2.8-12.1,1.1-22.8-5.3-32C680.9,694.1,671.6,688,659.5,685.2z M928.5,848.5L765.2,564.6
			c-5.7-12.1-14.2-21.7-25.6-28.8c-11.4-7.1-24.2-10.7-38.4-10.7H519.7l-21.3-104.6h141.9c8.5,0.7,16.7-0.7,24.5-4.3
			c7.8-3.6,13.9-9.2,18.1-17.1c5.7-10,6.9-20.6,3.7-32c-3.2-11.4-10.1-19.9-20.8-25.6c-5.7-3.6-12.1-5.3-19.2-5.3H480.2l-9.6-49.1
			c0-1.4-0.2-2.3-0.5-2.7c-0.4-0.4-0.5-1.2-0.5-2.7l-1.1-3.2c-5-16.4-14.4-29.9-28.3-40.6s-30.1-16-48.6-16
			c-22.8,0-42,7.6-57.6,22.9c-15.7,15.3-23.5,33.6-23.5,55c0,3.6,0.4,6.4,1.1,8.5h-1.1l58.7,282.8c2.8,16.4,10.7,29.7,23.5,40
			c12.8,10.3,27.7,15.5,44.8,15.5c5,0,8.9-0.4,11.7-1.1h242.3l140.9,245.5c4.3,9.2,10.7,16.7,19.2,22.4c8.5,5.7,18.5,8.5,29.9,8.5
			c14.2,0,26.5-5,36.8-14.9c10.3-10,15.5-22.1,15.5-36.3C933.8,863,932,855.6,928.5,848.5z"/>
	</g>
</g>
</svg>
