<?xml version="1.0" encoding="UTF-8" standalone="no"?>
<svg width="100px" height="84px" viewBox="0 0 100 84" version="1.1" xmlns="http://www.w3.org/2000/svg" xmlns:xlink="http://www.w3.org/1999/xlink" xmlns:sketch="http://www.bohemiancoding.com/sketch/ns">
    <!-- Generator: Sketch 3.3 (11970) - http://www.bohemiancoding.com/sketch -->
    <title>icon-rentout-apartment</title>
    <desc>Created with Sketch.</desc>
    <defs></defs>
    <g id="icons" stroke="none" stroke-width="1" fill="none" fill-rule="evenodd" sketch:type="MSPage">
        <g id="icon-rentout-apartment" sketch:type="MSLayerGroup">
            <g id="Group" transform="translate(0.000000, 0.000000)" stroke="#989898" sketch:type="MSShapeGroup">
                <g id="Group-Copy-2" transform="translate(6.722689, 10.924370)">
                    <rect id="Rectangle-16" fill="#FFFFFF" x="0.74899525" y="0.351103972" width="37.9978078" height="60.4276051"></rect>
                    <rect id="Rectangle-18" fill="#DDDDDD" x="9.06101571" y="11.4500519" width="9.49945195" height="12.3321643" rx="3"></rect>
                    <rect id="Rectangle-18-Copy-3" fill="#FFFFFF" x="8.76415784" y="29.3316901" width="9.49945195" height="12.3321643" rx="3"></rect>
                </g>
                <g id="Group-Copy-3" transform="translate(52.941176, 11.764706)">
                    <rect id="Rectangle-16" fill="#FFFFFF" x="0.74899525" y="0.351103972" width="37.9978078" height="60.4276051"></rect>
                    <rect id="Rectangle-18-Copy" fill="#DDDDDD" x="21.2321885" y="11.4500519" width="9.49945195" height="12.3321643" rx="3"></rect>
                    <rect id="Rectangle-18-Copy-2" fill="#FFFFFF" x="21.2321885" y="29.3316901" width="9.49945195" height="12.3321643" rx="3"></rect>
                </g>
                <g id="Group-Copy">
                    <rect id="Rectangle-15" fill="#989898" x="0" y="69.4954525" width="100" height="2.93944738"></rect>
                    <rect id="Rectangle-16" stroke-width="2" fill="#FFFFFF" x="27.4936061" y="0.418438981" width="45.0127877" height="72.0164609"></rect>
                    <rect id="Rectangle-18" fill="#DDDDDD" x="37.3401535" y="10.2846077" width="11.2531969" height="14.6972369" rx="3"></rect>
                    <rect id="Rectangle-18-Copy" fill="#DDDDDD" x="51.758312" y="10.2846077" width="11.2531969" height="14.6972369" rx="3"></rect>
                    <rect id="Rectangle-18-Copy-3" fill="#DDDDDD" x="36.988491" y="31.5956012" width="11.2531969" height="14.6972369" rx="3"></rect>
                    <rect id="Rectangle-18-Copy-4" stroke-width="2" fill="#FFFFFF" x="44.3734015" y="56.8973268" width="11.2531969" height="14.6972369" rx="3"></rect>
                    <rect id="Rectangle-18-Copy-2" fill="#DDDDDD" x="51.758312" y="31.5956012" width="11.2531969" height="14.6972369" rx="3"></rect>
                </g>
            </g>
            <g id="tree" transform="translate(1.680672, 36.974790)" sketch:type="MSShapeGroup">
                <ellipse id="Oval-13" stroke="#979797" fill="#D8D8D8" cx="12.605042" cy="12.605042" rx="12.605042" ry="12.605042"></ellipse>
                <path d="M12.53125,19.3277311 L12.605042,19.3277311 L12.605042,46.2184874 L11.7647059,46.2184874 L11.7647059,19.3277311 L11.8384979,19.3277311 L11.8384979,19.3277311 L6.20870143,11.2875485 L6.89706449,10.8055515 L12.1848739,18.3573261 L17.4726834,10.8055515 L18.1610465,11.2875485 L12.53125,19.3277311 Z" id="Rectangle-74" fill="#989898"></path>
            </g>
            <g id="tree-copy" transform="translate(73.109244, 36.974790)" sketch:type="MSShapeGroup">
                <ellipse id="Oval-13" stroke="#979797" fill="#D8D8D8" cx="12.605042" cy="12.605042" rx="12.605042" ry="12.605042"></ellipse>
                <path d="M12.53125,19.3277311 L12.605042,19.3277311 L12.605042,46.2184874 L11.7647059,46.2184874 L11.7647059,19.3277311 L11.8384979,19.3277311 L11.8384979,19.3277311 L6.20870143,11.2875485 L6.89706449,10.8055515 L12.1848739,18.3573261 L17.4726834,10.8055515 L18.1610465,11.2875485 L12.53125,19.3277311 Z" id="Rectangle-74" fill="#989898"></path>
            </g>
        </g>
    </g>
</svg>