<!-- Generator: Adobe Illustrator 18.0.0, SVG Export Plug-In  -->
<svg version="1.1"
	 xmlns="http://www.w3.org/2000/svg" xmlns:xlink="http://www.w3.org/1999/xlink" xmlns:a="http://ns.adobe.com/AdobeSVGViewerExtensions/3.0/"
	 x="0px" y="0px" width="44.9px" height="46px" viewBox="0 0 44.9 46" enable-background="new 0 0 44.9 46" xml:space="preserve">
<defs>
</defs>
<g>
	<g>
		<path d="M22.1,15c-1.2,0-1.9,0.1-2.4,0.2v7.5c0.5,0.1,1.1,0.1,1.9,0.1c3,0,4.9-1.5,4.9-4.1C26.5,16.4,24.9,15,22.1,15z"/>
		<path d="M39.5,0H5.4C2.4,0,0,2.4,0,5.4v35.1c0,3,2.4,5.4,5.4,5.4h34.1c3,0,5.4-2.4,5.4-5.4V5.4C44.9,2.4,42.5,0,39.5,0z
			 M41.6,39.6c0,1.6-1.3,3-3,3H6.3c-1.6,0-3-1.3-3-3V6.4c0-1.6,1.3-3,3-3h32.4c1.6,0,3,1.3,3,3L41.6,39.6L41.6,39.6z"/>
		<path d="M38.6,5.5H6.3c-0.5,0-0.9,0.4-0.9,0.9v33.3c0,0.5,0.4,0.9,0.9,0.9h32.4c0.5,0,0.9-0.4,0.9-0.9V6.4
			C39.5,5.9,39.1,5.5,38.6,5.5z M29.9,24.6c-2,1.8-4.9,2.7-8.2,2.7c-0.8,0-1.4,0-2-0.1v9.1h-5.6v-25c1.8-0.3,4.2-0.5,7.7-0.5
			c3.5,0,6,0.7,7.7,2c1.6,1.3,2.7,3.4,2.7,5.9C32.2,21,31.4,23.1,29.9,24.6z"/>
	</g>
</g>
</svg>
