<?xml version="1.0" encoding="UTF-8" standalone="no"?>
<svg width="24px" height="31px" viewBox="0 0 24 31" version="1.1" xmlns="http://www.w3.org/2000/svg" xmlns:xlink="http://www.w3.org/1999/xlink" xmlns:sketch="http://www.bohemiancoding.com/sketch/ns">
    <!-- Generator: Sketch 3.3 (11970) - http://www.bohemiancoding.com/sketch -->
    <title>icon-rentout-address</title>
    <desc>Created with Sketch.</desc>
    <defs></defs>
    <g id="Page-1" stroke="none" stroke-width="1" fill="none" fill-rule="evenodd" sketch:type="MSPage">
        <g id="list-property-complete" sketch:type="MSArtboardGroup" transform="translate(-894.000000, -709.000000)" stroke="#191919" stroke-width="2">
            <g id="icon-rentout-address" sketch:type="MSLayerGroup" transform="translate(895.000000, 710.000000)">
                <path d="M22,10.5001473 C22,4.70107608 17.1221464,0 11.105009,0 C5.08787167,0 0.210018064,4.70107608 0.210018064,10.5001473 C0.210018064,11.539128 0.690392706,13.9258561 0.808149742,14.1685885 C0.808149742,14.1685885 8.82559483,28.6842514 11.4635701,28.6842536 C14.1015454,28.6842558 21.3374306,14.1976791 21.3374306,14.1976791 C21.3962825,14.0597834 22,11.6524783 22,10.5001473 Z M11.105009,16.4538391 C14.3306909,16.4538391 16.9456227,13.9336746 16.9456227,10.8248941 C16.9456227,7.71611369 14.3306909,5.19594919 11.105009,5.19594919 C7.87932715,5.19594919 5.26439532,7.71611369 5.26439532,10.8248941 C5.26439532,13.9336746 7.87932715,16.4538391 11.105009,16.4538391 Z" id="Oval-3-Copy-2" sketch:type="MSShapeGroup"></path>
            </g>
        </g>
    </g>
</svg>