<!-- Generator: Adobe Illustrator 18.0.0, SVG Export Plug-In  -->
<svg version="1.1"
	 xmlns="http://www.w3.org/2000/svg" xmlns:xlink="http://www.w3.org/1999/xlink" xmlns:a="http://ns.adobe.com/AdobeSVGViewerExtensions/3.0/"
	 x="0px" y="0px" width="67.1px" height="79.5px" viewBox="0 0 67.1 79.5" enable-background="new 0 0 67.1 79.5"
	 xml:space="preserve">
<defs>
</defs>
<g>
	<path d="M60.1,36.5H7c0-9,7.3-16.3,16.3-16.3h4.6V0h11.5v20.2h4.6C52.8,20.2,60.1,27.5,60.1,36.5z M36.3,43L36.3,43
		c0-1.5-1.2-2.7-2.7-2.7c-1.5,0-2.7,1.2-2.7,2.7c0,1.5,1.2,2.7,2.7,2.7C35.1,45.7,36.3,44.5,36.3,43z M36.3,65.6L36.3,65.6
		c0-1.6-1.2-2.8-2.7-2.8c-1.5,0-2.7,1.2-2.7,2.8c0,1.5,1.2,2.7,2.7,2.7C35.1,68.3,36.3,67.1,36.3,65.6z M36.3,54.3L36.3,54.3
		c0-1.6-1.2-2.7-2.7-2.7c-1.5,0-2.7,1.2-2.7,2.7c0,1.5,1.2,2.7,2.7,2.7C35.1,57,36.3,55.8,36.3,54.3z M36.3,76.8L36.3,76.8
		c0-1.5-1.2-2.7-2.7-2.7c-1.5,0-2.7,1.2-2.7,2.7c0,1.5,1.2,2.7,2.7,2.7C35.1,79.5,36.3,78.3,36.3,76.8z M65.4,76.3
		c1.4-0.6,2.1-2.1,1.5-3.5l0-0.1c-0.6-1.4-2.1-2.1-3.5-1.5c-1.4,0.5-2.1,2.2-1.5,3.5c0.4,1.1,1.4,1.7,2.5,1.7
		C64.8,76.5,65.1,76.4,65.4,76.3z M61.7,66.1c1.4-0.5,2.1-2.1,1.5-3.5l0-0.1c-0.6-1.4-2.1-2.1-3.5-1.5c-1.4,0.6-2.1,2.2-1.5,3.5
		c0.4,1.1,1.4,1.7,2.5,1.7C61,66.2,61.4,66.2,61.7,66.1z M57.7,55.9c1.4-0.4,2.2-1.9,1.8-3.4l0-0.1c-0.4-1.4-1.9-2.2-3.4-1.8
		c-1.4,0.4-2.2,2-1.8,3.4c0.3,1.2,1.4,1.9,2.6,1.9C57.2,56,57.5,56,57.7,55.9z M54.2,45.6c1.4-0.5,2.1-2.1,1.5-3.5l0-0.1
		c-0.6-1.4-2.1-2.1-3.5-1.5c-1.4,0.6-2.1,2.2-1.5,3.6c0.4,1.1,1.4,1.7,2.5,1.7C53.5,45.8,53.9,45.7,54.2,45.6z M49.4,78
		c1.5-0.3,2.4-1.7,2.1-3.2l0-0.1c-0.3-1.5-1.7-2.4-3.2-2.1c-1.5,0.3-2.4,1.8-2.1,3.2c0.3,1.3,1.4,2.2,2.7,2.2
		C49.1,78.1,49.3,78.1,49.4,78z M47.5,67.3c1.5-0.2,2.6-1.5,2.4-3l0-0.1c-0.1-1.5-1.5-2.6-3-2.4c-1.5,0.1-2.6,1.5-2.4,3
		c0.1,1.4,1.3,2.4,2.7,2.4C47.3,67.3,47.4,67.3,47.5,67.3z M46.1,56.5c1.5-0.3,2.4-1.7,2.1-3.2l0-0.1c-0.3-1.5-1.7-2.4-3.2-2.1
		c-1.5,0.3-2.4,1.7-2.1,3.2c0.3,1.3,1.4,2.2,2.7,2.2C45.7,56.5,45.9,56.5,46.1,56.5z M44.4,45.7c1.5-0.3,2.4-1.7,2.1-3.2l0-0.1
		c-0.3-1.5-1.8-2.4-3.2-2.1c-1.5,0.3-2.4,1.7-2.1,3.2c0.3,1.3,1.4,2.2,2.7,2.2C44.1,45.8,44.2,45.7,44.4,45.7z M5.2,74.8L5.2,74.8
		c0.6-1.4-0.1-3-1.5-3.5c-1.4-0.6-3,0.1-3.5,1.5c-0.6,1.4,0.1,3,1.5,3.5c0.3,0.1,0.7,0.2,1,0.2C3.8,76.5,4.8,75.8,5.2,74.8z M9,64.5
		L9,64.5c0.6-1.4-0.1-3-1.5-3.5c-1.4-0.6-3,0.1-3.5,1.5c-0.6,1.4,0.1,3,1.5,3.5c0.3,0.1,0.7,0.2,1,0.2C7.5,66.2,8.5,65.6,9,64.5z
		 M12.8,54.1L12.8,54.1c0.4-1.5-0.4-3-1.8-3.4c-1.5-0.5-3,0.4-3.4,1.8C7.2,54,8,55.5,9.4,55.9C9.7,56,9.9,56,10.2,56
		C11.4,56,12.5,55.3,12.8,54.1z M16.5,44.1L16.5,44.1c0.6-1.5-0.1-3-1.5-3.6c-1.4-0.6-3,0.1-3.5,1.5c-0.6,1.4,0.1,3,1.5,3.5
		c0.3,0.1,0.7,0.2,1,0.2C15,45.8,16,45.1,16.5,44.1z M20.9,75.9L20.9,75.9c0.3-1.5-0.6-2.9-2.1-3.2c-1.5-0.3-2.9,0.7-3.2,2.2
		c-0.3,1.5,0.7,2.9,2.1,3.2c0.2,0,0.4,0.1,0.5,0.1C19.5,78.1,20.6,77.2,20.9,75.9z M22.6,64.9L22.6,64.9c0.2-1.5-0.9-2.8-2.4-3
		c-1.5-0.2-2.8,1-3,2.4c-0.1,1.5,0.9,2.8,2.4,3c0.1,0,0.2,0,0.3,0C21.3,67.3,22.5,66.3,22.6,64.9z M24.2,54.4L24.2,54.4
		c0.3-1.5-0.7-2.9-2.1-3.2c-1.4-0.3-2.9,0.7-3.2,2.1c-0.3,1.5,0.7,2.9,2.1,3.2c0.2,0,0.4,0.1,0.5,0.1C22.8,56.5,24,55.7,24.2,54.4z
		 M25.9,43.6L25.9,43.6c0.3-1.5-0.6-2.9-2.1-3.2c-1.4-0.3-2.9,0.7-3.2,2.2c-0.3,1.5,0.7,2.9,2.1,3.2c0.2,0,0.4,0.1,0.5,0.1
		C24.5,45.8,25.6,44.9,25.9,43.6z"/>
</g>
</svg>
