<!-- Generator: Adobe Illustrator 18.0.0, SVG Export Plug-In  -->
<svg version="1.1"
	 xmlns="http://www.w3.org/2000/svg" xmlns:xlink="http://www.w3.org/1999/xlink" xmlns:a="http://ns.adobe.com/AdobeSVGViewerExtensions/3.0/"
	 x="0px" y="0px" width="490.4px" height="421.9px" viewBox="0 34.3 490.4 421.9" enable-background="new 0 34.3 490.4 421.9"
	 xml:space="preserve">
<defs>
</defs>
<g>
	<path d="M472,24.1l-13.1-11.3c-21.8-18.7-54.6-16.6-73.8,4.7L165.4,261.1L99.1,204c-21.8-18.8-54.5-16.7-73.8,4.6l-11.6,12.8
		c-9.4,10.4-14.3,24.1-13.6,38.2c0.7,14,7,27.2,17.4,36.6L139,407.5c10.5,9.9,24.6,15,39,14.3c14.4-0.8,27.9-7.4,37.3-18.3
		L477.6,98.7c9.2-10.6,13.7-24.5,12.7-38.5C489.2,46.2,482.7,33.2,472,24.1z"/>
</g>
</svg>
