<!-- Generator: Adobe Illustrator 18.0.0, SVG Export Plug-In  -->
<svg version="1.1"
	 xmlns="http://www.w3.org/2000/svg" xmlns:xlink="http://www.w3.org/1999/xlink" xmlns:a="http://ns.adobe.com/AdobeSVGViewerExtensions/3.0/"
	 x="0px" y="0px" width="268.7px" height="383.3px" viewBox="57.3 0 268.7 383.3" enable-background="new 57.3 0 268.7 383.3"
	 xml:space="preserve">
<defs>
</defs>
<g>
	<path d="M215.9,106.9c-27.2-44.9-57.4-83.7-73-102.8c-2.1-2.6-5.2-4.1-8.5-4.1c-3.3,0-6.4,1.5-8.5,4.1c-15.6,19.2-45.8,58-73,102.9
		C17.8,164.7,0,212.6,0,249c0,74.1,60.3,134.3,134.3,134.3S268.7,323.1,268.7,249C268.7,212.5,250.9,164.7,215.9,106.9z
		 M152.8,333.9c-7.8,2-16,3-24.2,3c-50.2,0-91-37.9-91-84.6c0-11.3,3-24.4,8.8-39.1c1-2.5,3.8-3.9,6.6-3.3c2.8,0.6,4.6,3,4.4,5.6
		c-0.3,3.1-0.5,6.2-0.5,9.1c0,50.7,40.9,93.2,95.1,98.8c2.7,0.3,4.8,2.3,5,4.8C157.1,330.9,155.4,333.2,152.8,333.9z"/>
</g>
</svg>
