<?xml version="1.0" ?><svg height="128px" version="1.1" viewBox="0 0 128 128" width="128px" xmlns="http://www.w3.org/2000/svg" xmlns:xlink="http://www.w3.org/1999/xlink"><title/><desc/><defs/><g fill="none" fill-rule="evenodd" id="128x128" stroke="none" stroke-width="1"><g id="Umbrella"><g id="Content" transform="translate(8.000000, 20.000000)"><rect height="16" id="Shape-7" stroke="#000000" stroke-width="2" width="16" x="5" y="72"/><rect fill="#000000" height="68.5" id="Shape-6" width="2" x="12" y="12.5"/><path d="M0.0480218405,28.6011082 C3.41198121,22.1275144 11.2549219,10.3193194 26,4.00000019 C43.1147022,-3.33487219 62.015597,1.53911256 68.5000024,3.49999988 C69.0338817,3.66144522 70,4 70,4" id="Shape-5" stroke="#000000" stroke-width="2"/><path d="M70.8676985,10.3792348 L111.5,36.5 C111.5,36.5 89.3947368,32.6428571 68.1736842,32.6428571 C46.9526316,32.6428571 27.5,36.5 27.5,36.5 L68.1716262,10.3539546 L68.1716262,10.3539546" id="Shape-4" stroke="#000000" stroke-width="2"/><path d="M71.0000004,9 L53.6045231,32.9406732" id="Shape-3" stroke="#000000" stroke-width="2"/><path d="M68,9 L85.6844855,33.3486855" id="Shape-2" stroke="#000000" stroke-width="2"/><path d="M69.5,4 C75.0125,4 73.91,9 73.91,9 L65.09,9 C65.09,9 63.9875,4 69.5,4 Z" id="Shape-1" stroke="#000000" stroke-width="2"/></g></g></g></svg>