<!-- Generator: Adobe Illustrator 18.0.0, SVG Export Plug-In  -->
<svg version="1.1"
	 xmlns="http://www.w3.org/2000/svg" xmlns:xlink="http://www.w3.org/1999/xlink" xmlns:a="http://ns.adobe.com/AdobeSVGViewerExtensions/3.0/"
	 x="0px" y="0px" width="1000px" height="1000px" viewBox="0 0 1000 1000" enable-background="new 0 0 1000 1000"
	 xml:space="preserve">
<defs>
</defs>
<g>
	<g>
		<path d="M500,1000c-46,0-90.3-6-133-18c-42.7-12-82.5-28.8-119.5-50.5s-70.7-47.7-101-78
			c-30.3-30.3-56.3-64-78-101C46.8,715.5,30,675.7,18,633C6,590.3,0,546,0,500s6-90.3,18-133s28.8-82.5,50.5-119.5s47.7-70.7,78-101
			s64-56.3,101-78S324.3,30,367,18S454,0,500,0c68.7,0,133.5,13.2,194.5,39.5s114,62,159,107c45,45,80.7,98,107,159
			S1000,431.3,1000,500c0,46-6,90.3-18,133c-12,42.7-28.8,82.5-50.5,119.5c-21.7,37-47.7,70.7-78,101c-30.3,30.3-64,56.3-101,78
			c-37,21.7-76.8,38.5-119.5,50.5C590.3,994,546,1000,500,1000z M741,294H267c-4.7,0-8.7,1.5-12,4.5c-3.3,3-5,7.2-5,12.5v53
			c0,2.7,1,4,3,4l249,142l2,1c1.3,0,2.3-0.3,3-1l241-142c1.3-0.7,2.3-1,3-1c0.7,0,1.7-0.3,3-1c2.7,0,4-1.3,4-4v-51
			c0-5.3-1.7-9.5-5-12.5C749.7,295.5,745.7,294,741,294z M401,507c0.7-0.7,1-1.7,1-3c0-2-0.7-3-2-3l-143-82c-2-0.7-3.7-0.7-5,0
			c-1.3,0-2,1-2,3v215c0,2,1,3.3,3,4h2c1.3,0,2-0.3,2-1L401,507z M575,523c-0.7-2-2.3-2.3-5-1l-55,32c-6.7,4-13.7,4-21,0l-48-27
			c-2-1.3-3.7-1.3-5,0L258,697c-0.7,0.7-1,2-1,4c0,0.7,0.7,1.7,2,3c4,1.3,6.7,2,8,2h469c1.3,0,2.7-0.7,4-2c0-2.7-0.3-4.3-1-5
			L575,523z M755,415h-4l-136,81c-1.3,0-2,1-2,3c-0.7,0.7-0.3,1.7,1,3l136,147c1.3,1.3,2.3,2,3,2h2c2-2,3-3.3,3-4V419
			C758,417.7,757,416.3,755,415z"/>
	</g>
</g>
</svg>
