<?xml version="1.0" encoding="UTF-8" standalone="no"?>
<svg width="100px" height="84px" viewBox="0 0 100 84" version="1.1" xmlns="http://www.w3.org/2000/svg" xmlns:xlink="http://www.w3.org/1999/xlink" xmlns:sketch="http://www.bohemiancoding.com/sketch/ns">
    <!-- Generator: Sketch 3.3 (11970) - http://www.bohemiancoding.com/sketch -->
    <title>icon-rentout-apartment-checked</title>
    <desc>Created with Sketch.</desc>
    <defs></defs>
    <g id="icons" stroke="none" stroke-width="1" fill="none" fill-rule="evenodd" sketch:type="MSPage">
        <g id="icon-rentout-apartment-checked" sketch:type="MSLayerGroup">
            <g id="Group" stroke="#D24E13" sketch:type="MSShapeGroup">
                <g id="Group-Copy-2" transform="translate(6.722689, 10.924370)">
                    <rect id="Rectangle-16" fill="#FFFFFF" x="0.74899525" y="0.351103972" width="37.9978078" height="60.4276051"></rect>
                    <rect id="Rectangle-18" fill="#EE7844" x="9.06101571" y="11.4500519" width="9.49945195" height="12.3321643" rx="3"></rect>
                    <rect id="Rectangle-18-Copy-3" fill="#EE7844" x="8.76415784" y="29.3316901" width="9.49945195" height="12.3321643" rx="3"></rect>
                </g>
                <g id="Group-Copy-3" transform="translate(52.941176, 11.764706)">
                    <rect id="Rectangle-16" fill="#FFFFFF" x="0.74899525" y="0.351103972" width="37.9978078" height="60.4276051"></rect>
                    <rect id="Rectangle-18-Copy" fill="#EE7844" x="21.2321885" y="11.4500519" width="9.49945195" height="12.3321643" rx="3"></rect>
                    <rect id="Rectangle-18-Copy-2" fill="#EE7844" x="21.2321885" y="29.3316901" width="9.49945195" height="12.3321643" rx="3"></rect>
                </g>
                <g id="Group-Copy">
                    <rect id="Rectangle-15" fill="#D24E13" x="0" y="69.4954525" width="100" height="2.93944738"></rect>
                    <rect id="Rectangle-16" stroke-width="2" fill="#FFFFFF" x="27.4936061" y="0.418438981" width="45.0127877" height="72.0164609"></rect>
                    <rect id="Rectangle-18" fill="#EE7844" x="36.988491" y="10.2846077" width="11.2531969" height="14.6972369" rx="3"></rect>
                    <rect id="Rectangle-18-Copy" fill="#EE7844" x="51.758312" y="10.2846077" width="11.2531969" height="14.6972369" rx="3"></rect>
                    <rect id="Rectangle-18-Copy-3" fill="#EE7844" x="36.988491" y="31.5956012" width="11.2531969" height="14.6972369" rx="3"></rect>
                    <rect id="Rectangle-18-Copy-4" stroke-width="2" fill="#FFFFFF" x="44.3734015" y="56.8973268" width="11.2531969" height="14.6972369" rx="3"></rect>
                    <rect id="Rectangle-18-Copy-2" fill="#EE7844" x="51.758312" y="31.5956012" width="11.2531969" height="14.6972369" rx="3"></rect>
                </g>
            </g>
            <g id="tree" transform="translate(4.201681, 36.974790)" sketch:type="MSShapeGroup">
                <ellipse id="Oval-13" stroke="#D24E13" fill="#EE7844" cx="12.605042" cy="12.605042" rx="12.605042" ry="12.605042"></ellipse>
                <rect id="Rectangle-74" fill="#D24E13" x="11.7647059" y="19.3277311" width="0.840336134" height="26.8907563"></rect>
                <path d="M6.20870143,11.2875485 L6.89706449,10.8055515 L12.6810286,19.0659083 L11.9926655,19.5479053 L6.20870143,11.2875485 L6.20870143,11.2875485 Z" id="Rectangle-74-Copy" fill="#D24E13"></path>
                <path d="M18.1610465,11.2875485 L17.4726834,10.8055515 L11.6887193,19.0659083 L12.3770824,19.5479053 L18.1610465,11.2875485 L18.1610465,11.2875485 Z" id="Rectangle-74-Copy-2" fill="#D24E13"></path>
            </g>
            <g id="tree-copy" transform="translate(73.109244, 36.974790)" sketch:type="MSShapeGroup">
                <path d="M12.605042,25.210084 C19.5666145,25.210084 25.210084,19.5666145 25.210084,12.605042 C25.210084,5.64346954 19.5666145,0 12.605042,0 C5.64346954,0 0,5.64346954 0,12.605042 C0,19.5666145 5.64346954,25.210084 12.605042,25.210084 Z" id="Oval-13" stroke="#D24E13" fill="#EE7844"></path>
                <rect id="Rectangle-74" fill="#D24E13" x="11.7647059" y="19.3277311" width="0.840336134" height="26.8907563"></rect>
                <path d="M6.20870143,11.2875485 L6.89706449,10.8055515 L12.6810286,19.0659083 L11.9926655,19.5479053 L6.20870143,11.2875485 L6.20870143,11.2875485 Z" id="Rectangle-74-Copy" fill="#D24E13"></path>
                <path d="M18.1610465,11.2875485 L17.4726834,10.8055515 L11.6887193,19.0659083 L12.3770824,19.5479053 L18.1610465,11.2875485 L18.1610465,11.2875485 Z" id="Rectangle-74-Copy-2" fill="#D24E13"></path>
            </g>
        </g>
    </g>
</svg>