<?xml version="1.0" encoding="UTF-8" standalone="no"?>
<svg width="30px" height="30px" viewBox="0 0 30 30" version="1.1" xmlns="http://www.w3.org/2000/svg" xmlns:xlink="http://www.w3.org/1999/xlink" xmlns:sketch="http://www.bohemiancoding.com/sketch/ns">
    <!-- Generator: Sketch 3.3 (11970) - http://www.bohemiancoding.com/sketch -->
    <title>icon-qa-insurance</title>
    <desc>Created with Sketch.</desc>
    <defs></defs>
    <g id="icons" stroke="none" stroke-width="1" fill="none" fill-rule="evenodd" sketch:type="MSPage">
        <g id="icon-qa-insurance" sketch:type="MSLayerGroup">
            <path d="M15,30 C23.2842712,30 30,23.2842712 30,15 C30,6.71572875 23.2842712,0 15,0 C6.71572875,0 0,6.71572875 0,15 C0,23.2842712 6.71572875,30 15,30 Z" id="Oval-39-Copy-3" fill="#DDDDDD" sketch:type="MSShapeGroup"></path>
            <path d="M10.1898739,11.2422691 C13.2835938,10.4579441 13.9510575,9.37212526 15.095414,8.82409148 C16.2102905,9.37867903 16.7543007,10.4673978 19.8101261,11.2422691 C19.4770294,17.3188018 17.5270293,20.129545 17.5270293,20.129545 C17.5270293,20.129545 16.979574,20.4726204 15.4699213,21.0711118 C15.4699213,21.0711118 15.1506658,21.1756975 15,21.1759082 C14.8393143,21.1761329 14.5333236,21.0724181 14.5333236,21.0724181 C13.0212159,20.4731197 12.4729707,20.129545 12.4729707,20.129545 C12.4729707,20.129545 10.5229706,17.3188018 10.1898739,11.2422691 Z" id="Path-51" stroke="#FFFFFF" stroke-width="2" fill="#FFFFFF" sketch:type="MSShapeGroup"></path>
        </g>
    </g>
</svg>