<?xml version="1.0" encoding="UTF-8" standalone="no"?>
<svg width="106px" height="92px" viewBox="0 0 106 92" version="1.1" xmlns="http://www.w3.org/2000/svg" xmlns:xlink="http://www.w3.org/1999/xlink" xmlns:sketch="http://www.bohemiancoding.com/sketch/ns">
    <!-- Generator: Sketch 3.3 (11970) - http://www.bohemiancoding.com/sketch -->
    <title>real-estate</title>
    <desc>Created with Sketch.</desc>
    <defs></defs>
    <g id="about-us" stroke="none" stroke-width="1" fill="none" fill-rule="evenodd" sketch:type="MSPage">
        <g id="About-us" sketch:type="MSArtboardGroup" transform="translate(-257.000000, -3618.000000)" stroke="#EE7844">
            <g id="Group" sketch:type="MSLayerGroup" transform="translate(154.500000, 3588.500000)">
                <g id="real-estate" transform="translate(101.000000, 32.000000)" sketch:type="MSShapeGroup">
                    <g id="Rectangle-13-+-Rectangle-14" transform="translate(0.000000, 12.134831)">
                        <path d="M32.6418282,4.54184295 L26.5052734,4.54184295 L26.5052734,4.54184295 L7.5,23.5471163 L7.5,55.1553444 C7.5,57.3627665 9.29167136,59.1485845 11.50181,59.1485845 L47.49819,59.1485845 C49.7069088,59.1485845 51.5,57.36075 51.5,55.1553444 L51.5,23.4000147 L32.6418282,4.54184295 Z" id="Rectangle-13" stroke-width="4" fill="#FFFFFF"></path>
                        <rect id="Rectangle-14" stroke-width="2" fill="#F49D76" x="25" y="41.4606742" width="9" height="15.1685393" rx="2"></rect>
                        <path d="M9.0118331,11.5881807 C9.14109434,10.1932129 10.3133377,9.1011236 11.737813,9.1011236 L47.262187,9.1011236 C48.7742394,9.1011236 50,10.3326127 50,11.8448447 C50,13.36016 48.7729514,14.5885658 47.262187,14.5885658 L14.4569564,14.5885658 L14.4569564,47.5936477 C14.4569564,49.1057 13.2254672,50.3314607 11.7132353,50.3314607 C10.19792,50.3314607 8.96951421,49.1044121 8.96951421,47.5936477 L8.96951421,12.0692737 C8.96951421,11.9051352 8.9840259,11.7443703 9.0118331,11.5881807 Z" id="Rectangle-11" stroke-width="4" fill="#FFFFFF" transform="translate(29.500000, 29.831461) rotate(-315.000000) translate(-29.500000, -29.831461) "></path>
                    </g>
                    <g id="Group" transform="translate(30.500000, 0.000000)">
                        <rect id="Rectangle-15" stroke-width="4" fill="#FFFFFF" x="0" y="85.6995885" width="77" height="3.49794239"></rect>
                        <rect id="Rectangle-16" stroke-width="4" fill="#FFFFFF" x="11.7173913" y="3.49794239" width="53.5652174" height="85.6995885"></rect>
                        <rect id="Rectangle-18" stroke-width="2" fill="#FFFFFF" x="23.4347826" y="19.2386831" width="13.3913043" height="17.4897119" rx="3"></rect>
                        <rect id="Rectangle-18-Copy" stroke-width="2" fill="#FFFFFF" x="40.5923913" y="19.2386831" width="13.3913043" height="17.4897119" rx="3"></rect>
                        <rect id="Rectangle-18-Copy-3" stroke-width="2" fill="#FFFFFF" x="23.0163043" y="44.5987654" width="13.3913043" height="17.4897119" rx="3"></rect>
                        <rect id="Rectangle-18-Copy-4" stroke-width="2" fill="#F49D76" x="34.361715" y="71.3628162" width="8.27657005" height="14.9746324" rx="3"></rect>
                        <rect id="Rectangle-18-Copy-2" stroke-width="2" fill="#FFFFFF" x="40.5923913" y="44.5987654" width="13.3913043" height="17.4897119" rx="3"></rect>
                        <rect id="Rectangle-17" stroke-width="4" fill="#F49D76" x="8.36956522" y="0" width="60.2608696" height="8.74485597" rx="1"></rect>
                    </g>
                </g>
            </g>
        </g>
    </g>
</svg>