<?xml version="1.0" encoding="UTF-8" standalone="no"?>
<svg width="51px" height="51px" viewBox="0 0 51 51" version="1.1" xmlns="http://www.w3.org/2000/svg" xmlns:xlink="http://www.w3.org/1999/xlink" xmlns:sketch="http://www.bohemiancoding.com/sketch/ns">
    <!-- Generator: Sketch 3.3 (11970) - http://www.bohemiancoding.com/sketch -->
    <title>insta-black</title>
    <desc>Created with Sketch.</desc>
    <defs></defs>
    <g id="front-page" stroke="none" stroke-width="1" fill="none" fill-rule="evenodd" sketch:type="MSPage">
        <g id="social-media-icons" sketch:type="MSLayerGroup" transform="translate(-77.000000, 0.000000)" fill="#232323">
            <path d="M109.764509,19.315 L109.764509,19.31 C110.182842,19.31 110.602009,19.3183333 111.021176,19.3083333 C111.559509,19.295 111.997842,18.8333333 111.997842,18.2941667 L111.997842,15.8858333 C111.997842,15.31 111.542009,14.8525 110.967842,14.8516667 C110.167009,14.8516667 109.366176,14.8508333 108.565342,14.8516667 C107.992009,14.8525 107.535342,15.3116667 107.535342,15.8875 C107.534509,16.6833333 107.532009,17.4791667 107.537842,18.275 C107.538676,18.3941667 107.561176,18.5175 107.598676,18.63 C107.742842,19.0533333 108.131176,19.3133333 108.606176,19.3158333 C108.992009,19.3158333 109.378676,19.315 109.764509,19.315 L109.764509,19.315 Z M102.038676,20.3475 C99.2186758,20.3458333 96.9261758,22.615 96.8870091,25.4216667 C96.8461758,28.305 99.1536758,30.5891667 101.920342,30.6483333 C104.798676,30.71 107.127009,28.41 107.187842,25.6125 C107.250342,22.7291667 104.923676,20.3458333 102.038676,20.3475 L102.038676,20.3475 Z M92.0770091,23.0966667 L92.0770091,23.165 C92.0770091,26.9275 92.0761758,30.69 92.0770091,34.4525 C92.0770091,34.9933333 92.5453424,35.4591667 93.0870091,35.4591667 C99.0536758,35.46 105.019509,35.46 110.986176,35.4591667 C111.532842,35.4591667 111.998676,34.995 111.998676,34.4491667 C111.999509,30.6916667 111.998676,26.9325 111.998676,23.1758333 L111.998676,23.0975 L109.572009,23.0975 C109.914509,24.1925 110.019509,25.3066667 109.885342,26.4425 C109.751176,27.5783333 109.384509,28.635 108.788676,29.6116667 C108.192842,30.5883333 107.418676,31.3991667 106.472842,32.0433333 C104.019509,33.715 100.788676,33.8616667 98.1845091,32.4 C96.8686758,31.6625 95.8353424,30.6333333 95.1136758,29.3058333 C94.0395091,27.3283333 93.8678424,25.2516667 94.4978424,23.0966667 C93.6911758,23.0966667 92.8895091,23.0966667 92.0770091,23.0966667 L92.0770091,23.0966667 Z M112.209509,38.2125 C112.342009,38.1908333 112.474509,38.1716667 112.605342,38.1433333 C113.643676,37.9225 114.492009,37.0566667 114.695342,36.0125 C114.716176,35.8983333 114.732842,35.785 114.751176,35.6716667 L114.751176,15.3283333 C114.733676,15.2175 114.717842,15.105 114.697009,14.9941667 C114.473676,13.855 113.533676,12.9708333 112.380342,12.8125 C112.332009,12.8066667 112.286176,12.7958333 112.238676,12.7875 L91.8395091,12.7875 C91.7170091,12.81 91.5928424,12.8266667 91.4720091,12.8541667 C90.3453424,13.1108333 89.5120091,14.0175 89.3511758,15.1591667 C89.3445091,15.2066667 89.3345091,15.2541667 89.3270091,15.3016667 L89.3270091,35.7 C89.3503424,35.8283333 89.3686758,35.9591667 89.3978424,36.0875 C89.6470091,37.1891667 90.5870091,38.0433333 91.7061758,38.1875 C91.7595091,38.1941667 91.8145091,38.205 91.8686758,38.2125 L112.209509,38.2125 L112.209509,38.2125 Z M102.038676,50.5 C88.2320091,50.5 77.0386758,39.3066667 77.0386758,25.5 C77.0386758,11.6925 88.2320091,0.5 102.038676,0.5 C115.845342,0.5 127.038676,11.6925 127.038676,25.5 C127.038676,39.3066667 115.845342,50.5 102.038676,50.5 L102.038676,50.5 Z" id="insta-black" sketch:type="MSShapeGroup"></path>
        </g>
    </g>
</svg>