<?xml version="1.0" encoding="UTF-8" standalone="no"?>
<svg width="51px" height="51px" viewBox="0 0 51 51" version="1.1" xmlns="http://www.w3.org/2000/svg" xmlns:xlink="http://www.w3.org/1999/xlink" xmlns:sketch="http://www.bohemiancoding.com/sketch/ns">
    <!-- Generator: Sketch 3.3 (11970) - http://www.bohemiancoding.com/sketch -->
    <title>insta-color</title>
    <desc>Created with Sketch.</desc>
    <defs></defs>
    <g id="front-page" stroke="none" stroke-width="1" fill="none" fill-rule="evenodd" sketch:type="MSPage">
        <g id="social-media-icons" sketch:type="MSLayerGroup" transform="translate(-77.000000, -77.000000)" fill="#517FA6">
            <path d="M109.764509,96.315 L109.764509,96.31 C110.182842,96.31 110.602009,96.3183333 111.021176,96.3083333 C111.559509,96.295 111.997842,95.8333333 111.997842,95.2941667 L111.997842,92.8858333 C111.997842,92.31 111.542009,91.8525 110.967842,91.8516667 C110.167009,91.8516667 109.366176,91.8508333 108.565342,91.8516667 C107.992009,91.8525 107.535342,92.3116667 107.535342,92.8875 C107.534509,93.6833333 107.532009,94.4791667 107.537842,95.275 C107.538676,95.3941667 107.561176,95.5175 107.598676,95.63 C107.742842,96.0533333 108.131176,96.3133333 108.606176,96.3158333 C108.992009,96.3158333 109.378676,96.315 109.764509,96.315 L109.764509,96.315 Z M102.038676,97.3475 C99.2186758,97.3458333 96.9261758,99.615 96.8870091,102.421667 C96.8461758,105.305 99.1536758,107.589167 101.920342,107.648333 C104.798676,107.71 107.127009,105.41 107.187842,102.6125 C107.250342,99.7291667 104.923676,97.3458333 102.038676,97.3475 L102.038676,97.3475 Z M92.0770091,100.096667 L92.0770091,100.165 C92.0770091,103.9275 92.0761758,107.69 92.0770091,111.4525 C92.0770091,111.993333 92.5453424,112.459167 93.0870091,112.459167 C99.0536758,112.46 105.019509,112.46 110.986176,112.459167 C111.532842,112.459167 111.998676,111.995 111.998676,111.449167 C111.999509,107.691667 111.998676,103.9325 111.998676,100.175833 L111.998676,100.0975 L109.572009,100.0975 C109.914509,101.1925 110.019509,102.306667 109.885342,103.4425 C109.751176,104.578333 109.384509,105.635 108.788676,106.611667 C108.192842,107.588333 107.418676,108.399167 106.472842,109.043333 C104.019509,110.715 100.788676,110.861667 98.1845091,109.4 C96.8686758,108.6625 95.8353424,107.633333 95.1136758,106.305833 C94.0395091,104.328333 93.8678424,102.251667 94.4978424,100.096667 C93.6911758,100.096667 92.8895091,100.096667 92.0770091,100.096667 L92.0770091,100.096667 Z M112.209509,115.2125 C112.342009,115.190833 112.474509,115.171667 112.605342,115.143333 C113.643676,114.9225 114.492009,114.056667 114.695342,113.0125 C114.716176,112.898333 114.732842,112.785 114.751176,112.671667 L114.751176,92.3283333 C114.733676,92.2175 114.717842,92.105 114.697009,91.9941667 C114.473676,90.855 113.533676,89.9708333 112.380342,89.8125 C112.332009,89.8066667 112.286176,89.7958333 112.238676,89.7875 L91.8395091,89.7875 C91.7170091,89.81 91.5928424,89.8266667 91.4720091,89.8541667 C90.3453424,90.1108333 89.5120091,91.0175 89.3511758,92.1591667 C89.3445091,92.2066667 89.3345091,92.2541667 89.3270091,92.3016667 L89.3270091,112.7 C89.3503424,112.828333 89.3686758,112.959167 89.3978424,113.0875 C89.6470091,114.189167 90.5870091,115.043333 91.7061758,115.1875 C91.7595091,115.194167 91.8145091,115.205 91.8686758,115.2125 L112.209509,115.2125 L112.209509,115.2125 Z M102.038676,127.5 C88.2320091,127.5 77.0386758,116.306667 77.0386758,102.5 C77.0386758,88.6925 88.2320091,77.5 102.038676,77.5 C115.845342,77.5 127.038676,88.6925 127.038676,102.5 C127.038676,116.306667 115.845342,127.5 102.038676,127.5 L102.038676,127.5 Z" id="insta-color" sketch:type="MSShapeGroup"></path>
        </g>
    </g>
</svg>