<?xml version="1.0" encoding="UTF-8" standalone="no"?>
<svg width="51px" height="51px" viewBox="0 0 51 51" version="1.1" xmlns="http://www.w3.org/2000/svg" xmlns:xlink="http://www.w3.org/1999/xlink" xmlns:sketch="http://www.bohemiancoding.com/sketch/ns">
    <!-- Generator: Sketch 3.3 (11970) - http://www.bohemiancoding.com/sketch -->
    <title>linkedin-color</title>
    <desc>Created with Sketch.</desc>
    <defs></defs>
    <g id="front-page" stroke="none" stroke-width="1" fill="none" fill-rule="evenodd" sketch:type="MSPage">
        <g id="social-media-icons" sketch:type="MSLayerGroup" transform="translate(-152.000000, -77.000000)" fill="#007AB9">
            <path d="M191.069509,114.280833 L191.069509,104.520833 C191.069509,99.2916667 188.277842,96.8583333 184.556176,96.8583333 C181.552842,96.8583333 180.207009,98.5108333 179.457009,99.67 L179.457009,97.2583333 L173.798676,97.2583333 C173.873676,98.8558333 173.798676,114.280833 173.798676,114.280833 L179.457009,114.280833 L179.457009,104.774167 C179.457009,104.266667 179.493676,103.758333 179.643676,103.395 C180.052009,102.378333 180.982842,101.325833 182.545342,101.325833 C184.593676,101.325833 185.412009,102.886667 185.412009,105.174167 L185.412009,114.281667 L191.069509,114.281667 L191.069509,114.280833 Z M167.837842,94.935 C169.810342,94.935 171.039509,93.6266667 171.039509,91.9925 C171.002842,90.3233333 169.810342,89.0525 167.875342,89.0525 C165.940342,89.0525 164.674509,90.3225 164.674509,91.9925 C164.674509,93.6266667 165.902842,94.935 167.802009,94.935 L167.837842,94.935 L167.837842,94.935 Z M177.038676,127.5 C163.232009,127.5 152.038676,116.306667 152.038676,102.5 C152.038676,88.6925 163.232009,77.5 177.038676,77.5 C190.845342,77.5 202.038676,88.6925 202.038676,102.5 C202.038676,116.306667 190.845342,127.5 177.038676,127.5 L177.038676,127.5 Z M170.667009,114.280833 L170.667009,97.2583333 L165.009509,97.2583333 L165.009509,114.280833 L170.667009,114.280833 L170.667009,114.280833 Z" id="linkedin-color" sketch:type="MSShapeGroup"></path>
        </g>
    </g>
</svg>