<?xml version="1.0" encoding="UTF-8" standalone="no"?>
<svg width="51px" height="51px" viewBox="0 0 51 51" version="1.1" xmlns="http://www.w3.org/2000/svg" xmlns:xlink="http://www.w3.org/1999/xlink" xmlns:sketch="http://www.bohemiancoding.com/sketch/ns">
    <!-- Generator: Sketch 3.3 (11970) - http://www.bohemiancoding.com/sketch -->
    <title>linkedin-black</title>
    <desc>Created with Sketch.</desc>
    <defs></defs>
    <g id="front-page" stroke="none" stroke-width="1" fill="none" fill-rule="evenodd" sketch:type="MSPage">
        <g id="social-media-icons" sketch:type="MSLayerGroup" transform="translate(-152.000000, 0.000000)" fill="#232323">
            <path d="M191.069509,37.2808333 L191.069509,27.5208333 C191.069509,22.2916667 188.277842,19.8583333 184.556176,19.8583333 C181.552842,19.8583333 180.207009,21.5108333 179.457009,22.67 L179.457009,20.2583333 L173.798676,20.2583333 C173.873676,21.8558333 173.798676,37.2808333 173.798676,37.2808333 L179.457009,37.2808333 L179.457009,27.7741667 C179.457009,27.2666667 179.493676,26.7583333 179.643676,26.395 C180.052009,25.3783333 180.982842,24.3258333 182.545342,24.3258333 C184.593676,24.3258333 185.412009,25.8866667 185.412009,28.1741667 L185.412009,37.2816667 L191.069509,37.2816667 L191.069509,37.2808333 Z M167.837842,17.935 C169.810342,17.935 171.039509,16.6266667 171.039509,14.9925 C171.002842,13.3233333 169.810342,12.0525 167.875342,12.0525 C165.940342,12.0525 164.674509,13.3225 164.674509,14.9925 C164.674509,16.6266667 165.902842,17.935 167.802009,17.935 L167.837842,17.935 L167.837842,17.935 Z M177.038676,50.5 C163.232009,50.5 152.038676,39.3066667 152.038676,25.5 C152.038676,11.6925 163.232009,0.5 177.038676,0.5 C190.845342,0.5 202.038676,11.6925 202.038676,25.5 C202.038676,39.3066667 190.845342,50.5 177.038676,50.5 L177.038676,50.5 Z M170.667009,37.2808333 L170.667009,20.2583333 L165.009509,20.2583333 L165.009509,37.2808333 L170.667009,37.2808333 L170.667009,37.2808333 Z" id="linkedin-black" sketch:type="MSShapeGroup"></path>
        </g>
    </g>
</svg>