<?xml version="1.0" encoding="UTF-8" standalone="no"?>
<svg width="33px" height="43px" viewBox="0 0 33 43" version="1.1" xmlns="http://www.w3.org/2000/svg" xmlns:xlink="http://www.w3.org/1999/xlink" xmlns:sketch="http://www.bohemiancoding.com/sketch/ns">
    <!-- Generator: Sketch 3.3 (11970) - http://www.bohemiancoding.com/sketch -->
    <title>list</title>
    <desc>Created with Sketch.</desc>
    <defs></defs>
    <g id="how-it-works" stroke="none" stroke-width="1" fill="none" fill-rule="evenodd" sketch:type="MSPage">
        <g id="How-it-works" sketch:type="MSArtboardGroup" transform="translate(-362.000000, -395.000000)" stroke="#FFFFFF">
            <g id="list" sketch:type="MSLayerGroup" transform="translate(362.000000, 395.000000)">
                <path d="M8.85365854,4.54433498 L3.00135749,4.54433498 C1.33451092,4.54433498 0,5.88816744 0,7.54586878 L0,39.9984662 C0,41.6538911 1.34375352,43 3.00135749,43 L29.9986425,43 C31.6654891,43 33,41.6561675 33,39.9984662 L33,7.54586878 C33,5.89044392 31.6562465,4.54433498 29.9986425,4.54433498 L24.1463415,4.54433498 L24.1463415,2.58357268 C24.1463415,2.02667085 23.6971059,1.5862069 23.1429458,1.5862069 L9.85705418,1.5862069 C9.29484635,1.5862069 8.85365854,2.03274277 8.85365854,2.58357268 L8.85365854,4.54433498 Z" id="Rectangle-12" stroke-width="2" sketch:type="MSShapeGroup"></path>
                <path d="M6.43902439,32.1034483 L26.5609756,32.1034483 L26.5609756,32.8965517 L6.43902439,32.8965517 L6.43902439,32.1034483 Z" id="Rectangle-16-Copy-2" fill="#D8D8D8" sketch:type="MSShapeGroup"></path>
                <rect id="Rectangle-16-Copy-3" fill="#D8D8D8" sketch:type="MSShapeGroup" x="6.43902439" y="24.1724138" width="20.1219512" height="0.793103448"></rect>
                <rect id="Rectangle-16-Copy-4" fill="#D8D8D8" sketch:type="MSShapeGroup" x="6.43902439" y="17.0344828" width="20.1219512" height="0.793103448"></rect>
                <rect id="Rectangle-15" fill="#FFFFFF" sketch:type="MSShapeGroup" x="15.2926829" y="0" width="2.41463415" height="3.17241379" rx="8"></rect>
            </g>
        </g>
    </g>
</svg>