<svg xmlns="http://www.w3.org/2000/svg" width="337.4" height="99.8" viewBox="0 0 337.4 99.8"><g fill="#FFF"><path d="M120.7 46.3h-4.3l-14.6-16H90.2v16h-3.3V4h18.6c9.2 0 13.9 6.6 13.9 13.2.1 6.9-4.5 13-13.7 13l15 16.1zM90.2 27.2h15c7.4 0 10.7-4.2 10.7-10.1.1-5-3.3-10.1-10.3-10.1H90.2v20.2zM129.4 23.5h24.8v3h-24.8v16.7h26.8v3.1h-30V4h29.2v3h-26v16.5zM166.1 4l28.5 35V4h3.2v42.4h-1.3l-28.6-35v35h-3.3V4h1.5zM219.3 6.9H204V4h33.9v2.9h-15.3v39.4h-3.3V6.9zM274.4 46.3V27.1h-27v19.2h-3.3V4h3.3v20.2h27V4h3.3v42.4h-3.3zM287 46.3V4h3.2v42.4H287zM333.3 46.3l-4.7-10.4h-25.3l-4.6 10.4h-3.5l19-42.4h3.6l19 42.4h-3.5zm-6-13.4L315.9 7.1l-11.4 25.8h22.8z"/></g><g fill="#FFF"><path d="M92.2 86.4l5-7.7h4.3v.2L94 89.6v7.7h-3.5v-7.7l-7.2-10.9v-.2h4.2l4.7 7.9zM121.5 88.1c-.1 4.9-3 9.7-9.6 9.7s-9.6-4.7-9.6-9.7 3.2-9.9 9.6-9.9c6.4 0 9.6 5 9.6 9.9zm-15.8.1c.1 3.1 1.7 6.4 6.2 6.4 4.4 0 6.1-3.3 6.1-6.4.1-3.2-1.7-6.7-6.1-6.7-4.5-.1-6.3 3.5-6.2 6.7zM140.5 78.6v10.7c0 5.5-3.4 8.4-8.1 8.4-4.5 0-8.3-2.7-8.3-8.4V78.6h3.5v10.7c0 3.4 1.9 5.2 4.9 5.2 2.9 0 4.6-2 4.6-5.2V78.6h3.4zM162.7 93.8h-9.8l-1.6 3.5h-3.8l8.4-18.8h3.9l8.4 18.8h-3.9l-1.6-3.5zm-4.9-11.3l-3.5 8h7l-3.5-8zM186.4 97.4h-4.2l-5.5-6.3h-3.4v6.3h-3.5V78.6h8.9c4.4 0 6.8 3 6.8 6.2 0 2.6-1.2 5.2-4.7 5.9l5.7 6.4v.3zm-13.1-15.5v6h5.4c2.3 0 3.2-1.5 3.2-3s-1-3-3.2-3h-5.4zM201.8 97.4h-14V78.6h14V82h-10.5v4.3h10.2v3.3h-10.2v4.2h10.5v3.6zM222.7 97.4v-7.6h-9.2v7.6H210V78.6h3.5v7.9h9.2v-7.9h3.5v18.8h-3.5zM248 88.1c-.1 4.9-3 9.7-9.6 9.7s-9.6-4.7-9.6-9.7 3.2-9.9 9.6-9.9c6.4 0 9.6 5 9.6 9.9zm-15.8.1c.1 3.1 1.7 6.4 6.2 6.4s6.1-3.3 6.1-6.4c.1-3.2-1.7-6.7-6.1-6.7s-6.3 3.5-6.2 6.7zM266.9 83.8l-6.1 8.1h-.7l-6-8.2v13.6h-3.5V78.6h4.1l5.9 8.1 5.9-8.1h4v18.8H267V83.8zM287.8 97.4h-14V78.6h14V82h-10.5v4.3h10.2v3.3h-10.2v4.2h10.5v3.6z"/></g><path fill="#FFF" d="M83 62.4h254.4v1.3H83z"/><linearGradient id="a" gradientUnits="userSpaceOnUse" x1="32.371" y1="99.803" x2="32.371"><stop offset="0" stop-color="#aa4424"/><stop offset="1" stop-color="#faa31c"/></linearGradient><path fill="url(#a)" d="M64.7 32.4C64.7 14.5 50.2 0 32.4 0S0 14.5 0 32.4c0 9.3 4 18.1 10.9 24.2L4.6 99.8h12.1l7.2-48.7-3-2.1c-5.5-3.8-8.7-10-8.7-16.6 0-11.2 9.1-20.2 20.2-20.2s20.2 9.1 20.2 20.2-9.1 20.2-20.2 20.2l-1.7 12.5c3.5 0 8.6-.9 11.8-2l4.1 24.6H25.8l-1.5 12.1h37.3l-7.7-43.3c6.6-5.9 10.8-14.5 10.8-24.1z"/></svg>