<?xml version="1.0" encoding="UTF-8"?><!DOCTYPE svg PUBLIC "-//W3C//DTD SVG 1.1//EN" "http://www.w3.org/Graphics/SVG/1.1/DTD/svg11.dtd"><svg xmlns="http://www.w3.org/2000/svg"><symbol id="icon-aboutus-landlord" viewBox="0 0 108 91"><title>landlord</title><g fill="none" fill-rule="evenodd"><g transform="translate(.906 15.378)" stroke="#EE7844" stroke-width="4" fill="#FFF"><ellipse cx="13.878" cy="10.674" rx="10.724" ry="10.674"/><path d="M0 21.348h27.756v32.79H0z"/></g><g transform="translate(71.813 2.106)" stroke="#EE7844" stroke-width="4" fill="#FFF"><ellipse cx="17.813" cy="13.88" rx="13.764" ry="13.88"/><path d="M0 27.761h35.625v45.782H0z"/></g><g transform="translate(21.813 13.106)"><rect stroke="#EE7844" stroke-width="4" fill="#FFF" x="10.313" width="44.063" height="59.4" rx="15"/><rect stroke="#EE7844" stroke-width="4" fill="#F59D76" y="33" width="64.688" height="44.314" rx="6"/><path fill="#FFF" d="M12.5 36.771h39.688v36.771H12.5z"/><path d="M34.688 61.826a7.072 7.072 0 0 0 4.687-6.669c0-3.905-3.148-7.071-7.031-7.071-3.884 0-7.032 3.166-7.032 7.071A7.072 7.072 0 0 0 30 61.827V64.6a2.34 2.34 0 0 0 2.344 2.343 2.338 2.338 0 0 0 2.343-2.343v-2.774z" fill="#EE7844"/></g></g></symbol><symbol id="icon-aboutus-map" viewBox="0 0 684 770"><title>icon-aboutus-map</title><g transform="translate(1 1)" fill="none" fill-rule="evenodd"><g stroke="#FFF" fill="#FFDFBB"><path d="M463.216 623.19l-4.415 8.832 1.193 5.76 2.148 2.842-1.193 5.606-.18 12.442 1.612 8.755 6.862 6.144.537 4.07 2.088 1.306 4.833-8.986.298-5.99 3.64-2.611-.12-4.839-5.13-4.377-2.208-7.834 1.014-6.144-1.253-6.528-2.924-1.843-2.804-4.838-3.043 1.612-.955-3.379zM424.074 516.361l-5.37-3.456-5.19.922-9.01-5.53-3.82 1.383-5.847 7.45-8.652-5.837-3.46 8.37-3.938 2.305 2.207 11.827-.895 3.072-3.699-3.686-5.37-.615-7.936 3.303-9.905-.768-1.432 4.761-5.907-5.069-3.341 1.076.537 3.225-1.552 4.455 5.251 3.302 5.788.46 6.921 2.612 1.194-3.456 10.979-3.149 2.864 6.298 16.408 4.685 9.428 1.382 5.49-4.07 9.844-.461 1.97-3.072 3.042-11.75-2.446-3.917h6.325l.358-7.45-1.552-6.298.716-2.304zM288.987 464.445l-10.084 3.686-8.055-1.382-8.771 3.532 1.67 6.298 5.132.307 5.25 7.22 7.877 8.524 5.668-1.46 9.845 8.295.955-10.137 2.864-.691.955-12.135-6.146-4.224-7.16-7.833zM563.517 604.835l-6.98-1.843-9.07-6.528-13.127 4.147-5.25 4.608-17.006-.922-9.07-2.841-4.355 1.305-3.938-7.372-2.506 4.07 1.61 6.528 6.206 7.757-3.878 5.606-1.492 5.76 1.432 2.15-1.73 2.535 6.324 5.76 1.79 11.98 8.652.538 8.95-4.992 8.772 6.298 10.441-1.69-.716-8.985 11.337-5.683 10.263 2.38-4.773-10.29 2.864-12.826 5.25-7.45zM428.61 577.417l-5.311.384-2.268 3.764-4.355-4.148-1.91 7.45 6.086 8.448 2.864 5.53 5.728 6.758 4.654 3.917 4.834 7.526 10.68 6.835 1.014-9.907 3.461-4.147 2.029-1.69 2.685-.768 1.074-8.448-6.086-6.912 2.327-7.91-4.177.077-5.43-3.994-7.876.23-10.024-2.995zM543.41 385.955l-11.755-4.378-10.382 6.759-6.027 2.918 2.089 7.834-7.996 5.683-1.193 9.907-10.86 6.605-10.382-.077 1.373 7.757 3.759 6.758.775 7.066-6.145 3.61 4.296 8.294 1.074 7.91 5.131-.69 5.43-4.84 8.413-.383 11.217 1.382 12.71 4.3 8.711.308 4.415 2.611 3.7-3.072 3.46 4.148 9.786-.845 4.594 1.69-.596-8.986 2.804-3.917 9.249-1.075-4.416-11.367-3.4-5.836 1.79-1.69 8.83.614 3.58-3.84-3.819-4.761-7.756-3.072.119-3.226-4.833-3.225-8.533-11.444 1.552-4.761-2.327-8.218-11.039-4.147-5.19 2.074-2.209-4.378z"/><path d="M342.509 535.869l-12.292-5.607-2.148 3.994-9.547-.154-3.043 3.072-5.131-1.613.477 4.608-7.995 10.215v8.217l5.37-2.841 4.057 7.91 5.012 3.917 5.49-.845 6.146-6.144 2.088 2.842 5.37-.538 2.208-7.373 8.473 2.304 4.892-3.072.597-7.45-5.788-.46-5.25-3.302 1.55-4.455-.536-3.225zM399.432 471.05l-4.774 1.843-3.043-2.074-2.506 3.456-7.697 3.456-3.819 4.454-7.816 3.917 2.208 5.376 1.61 7.603 5.848 4.378 6.742 7.834 8.652 5.836 5.848-7.45 3.818-1.382 9.01 5.53 5.191-.922 5.37 3.456 1.313-3.993 4.952.307 3.7-1.92.179-1.69 2.029-.844.417-4.148 2.506-.768 1.492-3.225h3.282l-5.788-8.91-8.294-1.151-1.492-5.606-7.756-1.997-1.313 4.608-6.265-3.687.358-4.992-8.354-1.536-5.608-5.76z"/><path d="M386.424 423.894l-5.43-5.606-12.53-6.912-5.728 4.761-10.74 3.38-.239-6.298-11.038-4.07-.537-6.836-6.683 2.688-8.174-2.304.954 9.984 2.745 6.605-6.981 8.679-2.148-3.917-8.95.998-1.97 3.763 2.208 5.914-2.148 16.282-2.565 6.681h-6.564l2.387 18.816-.955 12.135 2.327 4.07-.417 7.91 5.37 4.762 16.17 3.302-5.251 12.442-1.015 12.98 9.547.153 2.148-3.994 12.292 5.607 3.341-1.076 5.907 5.07 1.432-4.762 9.905.768 7.936-3.303 5.37.615 3.7 3.686.894-3.072-2.207-11.827 3.938-2.304 3.46-8.371-6.742-7.834-5.847-4.378-1.611-7.603-2.208-5.376 7.816-3.917 3.819-4.454 7.697-3.456 2.506-3.456 3.043 2.074 4.774-1.844-5.251-11.443.418-6.144-3.342-9.523-4.356-6.298 2.685-4.761-3.162-8.986z"/><path d="M369.001 391.33l-3.938-8.754-15.155 5.837 1.85 7.219 11.754 9.907 5.49-14.208zm-19.69-14.745l-5.848-2.688-1.55-4.838 2.803-5.683-.179-8.832-8.055 4.838-3.46 4.762-9.13 1.075-2.804 5.222-1.551 4.685 1.074 17.818 4.714 9.753 8.174 2.304 6.683-2.688-3.282-8.524 6.981-12.519 3.222 1.843 2.208-6.528zM498.957 322.21l-12.53 2.459-12.351 4.761 2.207 9.83 7.34 6.145 3.52-2.15.12 10.137 8.472-2.995 4.833 2.073 9.845 6.451h8.592l3.64-5.452-5.49-16.128 5.848-9.83-2.029-2.996-10.501.538-11.516-2.842zM499.494 166.921l1.73-10.982-13.007-6.144-13.246 5.222-2.447 11.444-7.697 6.988-10.62-3.84-11.994.768-11.516-8.217-4.952 4.07 13.485 7.757 16.23 10.752 4.057 24.653 4.177 6.297 14.558 7.68 2.089 6.912-5.907 3.38-19.75 17.817-7.518 10.445-3.52 9.677 6.742 15.13-.18 16.588 10.562 5.607 7.04 9.216 16.11-3.533 17.006-6.221 18.139-1.382 17.96-21.581 7.518-9.677 2.148-8.448-16.707-11.443 2.029-10.752-11.039-12.211 3.879-13.978-14.619-18.355 6.444-12.058-16.408-10.598-.776-10.983zM173.948 409.84l-11.039-10.83-8.95.769 1.85 9.37-2.566 9.446 6.623-.23 7.996 3.61 6.086-12.135zm29.535-70.963l-12.47 1.459-8.175-1.306-8.472 13.978-4.356 17.894 5.012 8.832.12 16.896 5.966-8.294 3.341 4.838-4.057 7.834 2.446 4.685 12.889 3.148.179.23 6.98 10.83-1.73 10.214h-.06l-15.99-1.536-2.327 11.597 5.788 9.523-11.516 5.53 2.923 7.065 17.006 2.995h.119l-9.905 3.917-16.587 18.816 5.787 3.61 7.936-6.835 10.203 1.996 7.4-8.37 5.13 3.532 18.796-4.992 14.678.23 9.845-9.446-4.415-9.216 5.549-5.222 1.253-11.367-13.187-3.38-3.102-6.988-6.564-20.121-7.339-2.842-9.308-20.66-.776-1.842-10.919-1.076 9.666-15.59 2.864-14.131-11.396-.077-10.621 2.304 11.396-18.662zM531.953 767.65l17.184-1.612 1.134-5.53-6.384 2.228.06-3.226-9.01-1.382-9.309 1.075-6.921-6.374-1.73 8.064 14.857 3.686.12 3.072zm12.77-124.185l-6.147-4.761.716 8.985-10.441 1.69-8.772-6.298-8.95 4.992-8.652-.537-2.207.614-1.67 3.149-6.385-.384-4.117 3.994-7.578 1.612.12 4.839-3.64 2.61-.299 5.991-4.833 8.986 1.134 5.3 6.682 10.674 5.192 8.679 2.804 12.518 5.37 15.13 10.322 8.294 7.936-.307-5.608-16.666 7.458-1.996-4.177-9.677 11.337 5.069-.895-10.676-6.265-5.452-7.22-8.679 4.177-4.07-6.504-8.755-3.46-11.06 1.909-3.993 6.921 9.446h6.564l5.728-2.995-8.95-10.368 13.783-4.685 6.265 1.69 7.16.537 2.625-2.073 2.566-11.367zM434.874 564.438l-8.95-7.833-3.759-2.228-8.711 4.839-.717 7.296-3.818 1.92.358 4.992-4.535-.307-3.998-2.996-1.909 3.072-7.995-.614-.418.307.06 6.298 3.699 5.99 3.103-7.757 7.518 2.842.537 6.067 5.668 7.603-2.267 1.306 10.501 13.21 10.86 5.376 7.1 6.45 11.337 6.606 1.074-2.996-10.68-6.835-4.834-7.526-4.654-3.917-5.728-6.758-2.864-5.53-6.086-8.448 1.91-7.45 4.355 4.148 2.268-3.764 5.31-.384 10.024 2.996 7.876-.23 5.43 3.993 3.938-6.835-3.998-5.146-3.281-6.989-4.058 2.688-9.666-3.456z"/><path d="M466.975 515.824l-3.58 1.152-2.267 4.3-5.072 2.228-1.313-1.152-5.25 2.841-4.416.538-.596 3.61-9.309 2.227-4.236-1.997-6.026-4.608-.358 7.45h-6.325l2.446 3.916-3.043 11.75 1.91.154 2.625 6.144 3.759 2.228 8.95 7.833 9.666 3.456 4.058-2.688 8.353-4.761 7.16.768 8.831-3.38 5.788-12.364 4.296-12.288 6.504-3.84-1.194-4.839-6.682-4.992-2.208 1.843-12.47-5.53zM167.862 421.974l-7.996-3.61-6.623.23 2.566-9.445-1.85-9.37-8.413 8.14-15.215 13.825 4.833 17.97-9.666 18.587 15.394 2.688 19.69-10.522 8.712-15.898-1.432-12.595zM81.303 208.923l-13.323-1.682-13.929 12.67-9.74-6.728-13.272 12.893-11.354-16.032-12.566 3.476L.256 228.99l16.653 5.494-.202 6.95-14.887 4.597 16.956 11.772-8.982 10.651 22.558 7.624 10.698 3.587 7.469-4.484 24.829-16.48 11.607-18.275-8.378-16.145 2.726-15.359zM418.525 705.059l-8.89 1.613-12.053 2.073-13.962-1.69-1.313 9.678 17.005 9.6 6.146 2.073 9.428 7.143 2.088-9.754-2.029-5.837 3.58-14.9zm-76.434-55.22l-5.668 5.684-6.444-.922 2.923 10.445 1.074 22.349 4.654 4.992 4.595-6.298 5.43 1.23.895-24.5-7.459-12.98zm32.4-100.223l-2.864-6.298-10.98 3.149-1.193 3.456-6.921-2.611-.597 7.45-4.892 3.071-8.473-2.304-2.208 7.373-5.37.538-2.088-2.842-6.146 6.144-5.49.845-5.012-3.917-.298 5.146 3.52 6.758-3.818 5.53 3.341 13.9 6.265 2.305-1.074 7.833 4.714-1.382 6.384-8.295 5.191-2.457 9.607 5.99 5.788 2.074 4.296 17.74 8.234 10.369 11.158 11.75 9.487 8.14 8.652 1.153 5.43 7.373 7.696 3.302 3.82 7.91 5.011 2.304 4.058 9.37 5.131 10.829-2.387 3.993-1.91 10.061.18 5.76 4.893-1.46 5.549-16.127 4.892-1.075.896-9.754-8.891-6.912 4.296-11.904 10.382 2.995 7.041 8.602 1.79-6.605-1.432-3.456-10.62-9.523-8.891-5.53-10.86-6.528 3.103-3.61-3.103-3.993-9.07.154-13.723-14.515-6.563-14.9L379.204 598l-4.176-9.216 1.133-5.07-1.014-8.985 8.95-6.45 9.189 2.687-3.163-7.757.776-8.908-16.408-4.685zM515.246 391.254l-11.277-8.448-5.788-1.152-1.969-3.61-10.083 1.767-17.841-1.152-11.456 5.376 3.878 14.669 11.456 3.072 5.012 2.765-.537 4.838 1.313 4.454 5.728 1.92 3.222 5.453 10.382.077 10.86-6.605 1.193-9.907 7.996-5.683-2.089-7.834zM303.248 500.617l.417-7.91-2.327-4.07-2.864.69-.955 10.138 2.507 1.536 3.222-.384z"/><path d="M519.005 358.921h-8.592l-9.845-6.45-4.833-2.074-8.473 2.995-.238 13.286-8.354.384-9.905-12.98-9.129 5.915-3.878 10.905 1.074 13.133 11.456-5.376 17.84 1.152 10.084-1.766 1.97 3.61 5.787 1.151 11.277 8.448 6.027-2.918 10.382-6.759-4.893-10.214-2.148-8.448-5.609-3.994zM556.357 572.81l2.626-1.997 1.312-6.221 2.447-5.76-1.134-3.226 2.208-1.46 1.372 2.535 6.742.538 2.864-1.382-2.327-1.844.478-2.688-4.475-4.608-2.506-7.603-4.416-2.995.06-6.144-5.609-4.915-4.714-.691-8.89-5.607-7.22 1.767-2.386 2.688 3.58 1.766 4.057 5.376 4.415 7.68 7.697 10.829 1.254 7.987-.358 7.68 2.923 8.294zM500.687 635.555l-6.324-5.76-5.37.307-3.82.999-2.565.69-6.683 2.842-.238 3.687-1.492-.154-1.014 6.144 2.207 7.834 5.132 4.377 7.578-1.612 4.117-3.994 6.384.384 1.67-3.149 2.208-.614-1.79-11.981zM469.064 620.963l.835-1.613-4.654-3.686-3.938-1.92-1.91-2.535-3.281-3.072-2.029 1.69-3.46 4.147-1.015 9.907-1.074 2.996 5.25 3.61 3.7 5.913 2.506 1.382-1.193-5.76 4.415-8.832.955 3.38 3.043-1.613 1.85-3.994zM299.906 457.686h6.564l2.565-6.681 2.148-16.282-2.207-5.914-8.95-.537-14.619 7.373-9.01 26.188-5.549 4.916 8.055 1.382 10.084-3.686 7.16 7.833 6.146 4.224-2.387-18.816zM489.052 134.05l-15.692 3.073-16.588-.691-11.695 12.749-15.215-.768-19.094 6.758-23.09 19.66-14.38 11.905-20.168 31.027-16.051 22.733-18.318 17.05-25.538 13.977-8.83 10.752 4.355 39.014 4.237 18.432 14.618 8.756 13.664-4.07 19.273-19.815 7.518 10.521 3.878-9.907 7.757-11.673 1.91-19.892-7.041-8.524-2.208-22.196 5.25-15.513 9.726.307 2.865-6.528-3.998-5.606 12.888-22.964 7.697-17.817 5.012-11.29h9.01l1.432-8.755 17.9 2.534-.06-10.368 5.669-.69 4.952-4.071 11.516 8.217 11.993-.768 10.621 3.84 7.697-6.988 2.447-11.444 13.246-5.222 13.007 6.144-1.73 10.982 7.16-1.459 14.44-6.297-12.172-9.754 10.919-4.07-30.789-11.29zm-69.417-94.206l-10.656-3.327-3.754-5.49-13.853 2.911 4.973 4.741-4.212 3.827 12.94 3.41 14.562-6.072zM370.568 13.31l-9.184-4.74-9.844.498-1.979 4.658-9.59.166-4.262-4.824-17.962 4.99 6.292 10.98 14.664 12.31 10.91 4.242-5.785 5.323 16.237 9.232 8.474-.582 1.725-12.476 5.784-2.828 2.284-10.813 16.39-5.656-24.154-10.48zM399.745.42l-5.988 3.992-10.3-3.244-20.043 3.743 8.27 6.238 9.743.25 1.827 3.826 20.448 2.329 19.383-1.664 8.423-7.402-14.207-4.741L399.745.419zM444.898 412.144l-10.322-.23-1.194-4.301-10.919-2.919-12.948 5.914-16.11 8.14-6.98 5.146 3.161 8.986-2.685 4.761 4.356 6.298 3.342 9.523-.418 6.144 5.25 11.443 5.61 5.76 8.353 1.536-.358 4.992 6.265 3.687 1.313-4.608 7.756 1.997 1.492 5.606 8.294 1.152 5.788 8.909.716 1.075 4.415-2.458 6.086 6.375 6.265-3.84 5.43 1.843 7.757-2.534 11.217 6.912 2.506 1.075-3.64-8.141 8.593-14.976 5.25-2.15.657-4.992-7.16-15.668-1.074-7.91-4.296-8.294 6.145-3.61-.775-7.066-3.76-6.758-1.372-7.757-3.222-5.453-5.728-1.92-19.63.308-13.426-1.997zM145.666 726.486l-.836-6.297 4.535-7.066 1.73-5.146-3.997-5.606 3.58-12.288-4.475-11.213 5.131-1.536.656-8.755 1.97-2.688.477-14.208 5.49-4.915-3.044-9.14-6.742-.614-2.089 2.304h-6.861l-2.686-8.832-4.773 2.611-4.415 4.608.358 6.068 2.148 6.528v7.756l-2.745 10.983-1.074 7.526-4.893 6.759-1.312 12.21 2.625 7.143 5.25 1.69.836 11.597-2.148 14.822 6.205-2.074 6.206 2.688 4.893-4.915z"/><path d="M532.789 523.197h-4.714l-2.387 4.224-8.115 1.766-3.58 2.765-5.608-4.455-7.22-.076-7.16-1.997-4.475 3.917-6.504 3.84-4.296 12.288-5.788 12.364-8.83 3.38 6.682 7.142 1.73 5.76 7.34 4.224 1.491 7.45 7.1 5.222 3.282-3.994 2.984 2.228-2.387 2.995 2.387 3.149 3.938 7.372 4.355-1.305 9.07 2.841 17.005.922 5.25-4.608 13.128-4.147 9.07 6.528 6.98 1.843.836-21.658 3.64 1.69 5.13-3.917-.775-4.608-5.549-3.149-5.012 2.919-5.43-3.303-2.923-8.294.358-7.68-1.254-7.987-7.697-10.83-4.415-7.68-4.057-5.375-3.58-1.766z"/><path d="M479.863 578.339l-7.339-4.224-1.73-5.76-6.683-7.142-7.16-.768-8.353 4.761 3.281 6.989 3.998 5.146-3.938 6.835 4.177-.077-2.327 7.91 6.086 6.912-1.074 8.448-2.685.768 3.282 3.072 1.909 2.535 3.938 1.92 4.654 3.686-.835 1.613 2.685-1.306 1.133-5.99 2.03-.998 1.79 2.534 2.266 1.152 1.73 2.842 1.97.844 2.506 3.303 1.67-.077-.954 4.378-1.253 2.15.537 1.306 3.819-.999 5.37-.307 1.73-2.534-1.432-2.15 1.492-5.76 3.878-5.607-6.205-7.757-1.611-6.528 2.506-4.07-2.387-3.15 2.387-2.994-2.984-2.228-3.281 3.994-7.1-5.222-1.493-7.45zM485.83 507.453l-11.217-6.912-7.757 2.534-5.43-1.843-6.265 3.84-6.086-6.375-4.415 2.458-.716-1.075h-3.282l-1.492 3.225-2.506.768-.417 4.148-2.03.844-.178 1.69-3.7 1.92-4.952-.307-1.313 3.993-.716 2.304 1.552 6.298 6.026 4.608 4.236 1.997 9.309-2.227.596-3.61 4.416-.538 5.25-2.841 1.313 1.152 5.072-2.227 2.267-4.301 3.58-1.152 12.47 5.53 2.209-1.844 1.491-7.296 2.685-4.761zM422.165 554.377l-2.625-6.144-1.91-.153-1.969 3.072-9.845.46-5.49 4.07-9.427-1.381-.776 8.908 3.163 7.757-2.446 1.613 7.995.614 1.91-3.072 3.997 2.996 4.535.307-.358-4.992 3.818-1.92.717-7.296 8.711-4.839zM459.517 209.392l-4.058-24.653-16.23-10.752-13.484-7.757-5.668.691.06 10.368-17.901-2.534-1.432 8.755h-9.01l-5.012 11.29-7.697 17.817-12.888 22.964 3.998 5.606-2.865 6.528-9.725-.307-5.251 15.513 2.208 22.196 7.04 8.524-1.909 19.892-7.757 11.673-3.878 9.907 9.368 24.346 10.083 19.738 4.416 16.512 12.232-.768 5.012-13.901 12.888 1.69 4.594-16.282 1.373-29.03 10.322-3.994 7.399-19.277-10.68-9.37-8.414-11.904 4.893-23.654 17.423-14.285 13.903-13.286-2.864-9.984 7.816-11.367 15.872-4.608-4.177-6.297z"/><path d="M601.824 449.085l-11.039 1.766-3.46-.922-2.089 4.07-4.176-.767-9.249 1.075-2.804 3.917.596 8.985-4.594-1.69-9.785.846-3.461-4.148-3.7 3.072-4.415-2.61-8.711-.308-12.71-4.3-11.217-1.383-8.413.384-5.43 4.838-5.131.691 7.16 15.668-.657 4.992-5.25 2.15-8.592 14.976 3.64 8.14-2.507-1.074-2.685 4.761-1.491 7.296 6.682 4.992 1.194 4.839 4.475-3.917 7.16 1.997 7.22.076 5.608 4.455 3.58-2.765 8.115-1.766 2.387-4.224h4.714l2.386-2.688 7.22-1.767 8.89 5.607 4.714.69 5.609 4.916-.06 6.144 4.416 2.995 2.506 7.603 4.475 4.608-.478 2.688 2.327 1.844-2.864 1.382-6.742-.538-1.372-2.534-2.208 1.46 1.134 3.225-2.447 5.76-1.312 6.22-2.626 1.997 5.43 3.303 5.012-2.919 5.55 3.15 7.279-13.364 3.043-10.06 10.203-2.228 1.61 6.835 18.2 4.531 3.818 4.148-10.143 6.067-1.552 3.456 13.127 5.299-1.432 8.448 6.802 3.61 14.201-10.368 12.113-3.15 1.312-6.45-11.456 1.075-6.146-4.301-2.207-11.29 8.83-6.758 10.502-.998 6.623-5.837 8.83-1.46-.894-8.14 5.072-5.07 10.62-1.305.836-6.067-4.117-9.984 2.983-9.523-1.074-5.3-17.304-5.913-6.444.23-8.234-8.447-7.995 2.841-15.036-6.297-.299-3.533-5.131-7.834-8.89-.845-1.79-5.53 2.147-3.609-8.532-10.137zM345.612 632.79l-2.507-15.437-7.22 6.912-2.147 6.682 3.102 12.134 5.37 3.687 3.402-13.978zM274.13 484.105l-5.251-7.219-5.131-.307-1.671-6.298-9.547 3.61-3.222 14.746-25.776 14.13-10.442-7.756 3.341 20.506-18.676-4.685-14.559 3.917.895 13.286 17.065 6.989 8.235 9.216 11.575 19.046-2.387 35.943-6.026 10.752 4.594 6.988 21.302 8.141 4.176-3.917 13.068 8.141 13.484-2.304 1.194-10.829 16.707-5.836 22.912 4.915 10.203-10.138 1.074-7.833-6.265-2.304-3.341-13.901 3.818-5.53-3.52-6.758.298-5.146-4.057-7.91-5.37 2.841v-8.217l7.995-10.215-.477-4.608 5.131 1.613 3.043-3.072 1.015-12.98 5.25-12.44-16.17-3.303-5.37-4.762-3.221.384-2.507-1.536-9.845-8.294-5.668 1.46-7.876-8.526z"/><path d="M253.365 696.765v-.538l-1.133-.23-.716-1.076-.239.538-.179.538.06.768h1.133l.836.23.238-.23zm-1.79-4.608l.597-.308 1.492-1.996-.12-.845-.537-.691-2.565.768-.537.921-.06.922-.477.153-.418 1.306.418.46 1.79.462.417-1.152zm-39.022-82.176l-18.616-.615-9.607.922-12.232-2.995-15.454.076-14.021-3.225-16.767 12.902 4.475 7.834-1.014 12.825 4.415-4.608 4.773-2.61 2.686 8.831h6.861l2.089-2.304 6.742.615 3.043 9.139-5.49 4.915-.477 14.208-1.969 2.688-.656 8.755-5.131 1.536 4.475 11.213-3.58 12.288 3.997 5.606-1.73 5.146-4.535 7.066.836 6.297 11.098 2.919 3.162 10.905 4.356 6.375 5.788 1.612 4.713-7.142 7.578-6.758 11.337.384 15.156-.308 8.532-14.515 9.01-3.763 2.565-12.288 6.862-8.371-4.594-10.752 4.535-15.053 7.22-10.214 1.014-6.144 14.917-3.84 10.978-12.058-.716-10.445-13.484 2.304-13.068-8.14-4.176 3.916-21.302-8.14-4.594-6.99zm58.951 65.894l.18-.845.357-.46.12-.538-.418-.307v-.308l.358-.69-.477-.154-2.924 1.152-1.432.998-4.833 4.454v.768l.298.615.776.153.477.999.895-.999.657-.46.775.23.537.614.299 1.844.358.46 1.193.308 2.029 1.305 1.014-.614 1.014-.999.537-1.69.657-1.458.775-1.306.537-1.306-.179-1.228-.596-.308-.657-.153-1.193.537-1.134-.614zm13.545-.922l.298-1.075-.119-.307-1.074-2.15-1.97-.768-2.386.23-.12.46v1.076l.3.384 1.193.23 3.64 2.15.238-.23z"/></g><ellipse fill="#EE7844" cx="409.5" cy="322.5" rx="6.5" ry="6.5"/><ellipse fill="#EE7844" cx="366.5" cy="354.5" rx="6.5" ry="6.5"/><ellipse fill="#EE7844" cx="378.5" cy="384.5" rx="6.5" ry="6.5"/><ellipse fill="#EE7844" cx="298.5" cy="440.5" rx="6.5" ry="6.5"/></g></symbol><symbol id="icon-aboutus-real-estate" viewBox="0 0 106 92"><title>real-estate</title><g stroke="#EE7844" fill="none" fill-rule="evenodd"><g transform="translate(-1.5 14.635)"><path d="M32.642 4.542h-6.137L7.5 23.547v31.608a3.996 3.996 0 0 0 4.002 3.994h35.996a3.998 3.998 0 0 0 4.002-3.994V23.4L32.642 4.542z" stroke-width="4" fill="#FFF"/><rect stroke-width="2" fill="#F49D76" x="25" y="41.461" width="9" height="15.169" rx="2"/><path d="M27.913 2.444a2.741 2.741 0 0 1 3.686.17l25.12 25.119a2.743 2.743 0 0 1-.005 3.876 2.742 2.742 0 0 1-3.876.004L29.641 8.416 6.303 31.754a2.743 2.743 0 0 1-3.876-.004 2.742 2.742 0 0 1-.004-3.876l25.12-25.12c.116-.116.24-.219.37-.31z" stroke-width="4" fill="#FFF"/></g><g transform="translate(29 2.5)"><path stroke-width="4" fill="#FFF" d="M0 85.7h77v3.498H0z"/><path stroke-width="4" fill="#FFF" d="M11.717 3.498h53.565v85.7H11.717z"/><rect stroke-width="2" fill="#FFF" x="23.435" y="19.239" width="13.391" height="17.49" rx="3"/><rect stroke-width="2" fill="#FFF" x="40.592" y="19.239" width="13.391" height="17.49" rx="3"/><rect stroke-width="2" fill="#FFF" x="23.016" y="44.599" width="13.391" height="17.49" rx="3"/><rect stroke-width="2" fill="#F49D76" x="34.362" y="71.363" width="8.277" height="14.975" rx="3"/><rect stroke-width="2" fill="#FFF" x="40.592" y="44.599" width="13.391" height="17.49" rx="3"/><rect stroke-width="4" fill="#F49D76" x="8.37" width="60.261" height="8.745" rx="1"/></g></g></symbol><symbol id="icon-aboutus-view" viewBox="0 0 118 83"><title>view</title><g fill="none" fill-rule="evenodd"><g transform="translate(0 2)"><ellipse stroke="#EE7844" stroke-width="4" fill="#FFF" cx="27.289" cy="22.034" rx="21.953" ry="22.034"/><path fill="#EE7844" d="M10.958 39.964h3.526v14.347h-3.526z"/><path d="M9.514 43.084L18.103 48 9.955 61.986c-1.369 2.35-4.406 3.15-6.773 1.796-2.371-1.357-3.177-4.375-1.816-6.71l8.148-13.988z" stroke="#EE7844" stroke-width="4" fill="#FFF"/><path d="M13.273 22.7c.48-9.362 8.66-15.513 16.51-14.486" stroke="#F49D76" stroke-width="4"/></g><g transform="translate(22 25)" stroke="#EE7844" stroke-width="4"><path d="M49.904 55.862c-.718.091-1.458.138-2.22.138-.229 0-.457-.002-.684-.005a46.35 46.35 0 0 1-.684.005c-.762 0-1.502-.047-2.22-.138C19.437 53.973 0 33.242 0 28 0 22.758 19.437 2.027 44.096.138A17.628 17.628 0 0 1 46.316 0c.229 0 .457.002.684.005.227-.003.455-.005.684-.005.762 0 1.502.047 2.22.138C74.563 2.027 94 22.758 94 28c0 5.242-19.437 25.973-44.096 27.862z" fill="#FFF"/><ellipse fill="#F49D76" cx="47.511" cy="28" rx="15.326" ry="15.556"/></g></g></symbol><symbol id="icon-arrows" viewBox="0 0 1000 1000"><path d="M34.8 302.2c19.2 0 34.8-15.6 34.8-34.8V118.9L294 343.2c6.8 6.8 15.7 10.2 24.6 10.2 8.9 0 17.8-3.4 24.6-10.2 13.6-13.6 13.6-35.7 0-49.3L118.9 69.7h148.5c19.2 0 34.8-15.6 34.8-34.8S286.7 0 267.4 0H34.8C15.6 0 0 15.6 0 34.8v232.6c0 19.2 15.6 34.8 34.8 34.8zM965.2 697.7c-19.2 0-34.8 15.6-34.8 34.8V881L699.1 649.9c-13.6-13.6-35.7-13.6-49.3 0-13.6 13.6-13.6 35.7 0 49.3L881 930.4H732.6c-19.2 0-34.8 15.6-34.8 34.8 0 19.2 15.6 34.8 34.8 34.8h232.6c19.2 0 34.8-15.6 34.8-34.8V732.6c0-19.3-15.6-34.9-34.8-34.9zM300.9 649.9L69.7 881.1V732.6c0-19.2-15.6-34.8-34.8-34.8S0 713.3 0 732.6v232.6c0 19.2 15.6 34.8 34.8 34.8h232.6c19.2 0 34.8-15.6 34.8-34.8 0-19.2-15.6-34.8-34.8-34.8H118.9l231.2-231.2c13.6-13.6 13.6-35.7 0-49.3-13.6-13.6-35.6-13.6-49.2 0zM965.2 0H732.6c-19.2 0-34.8 15.6-34.8 34.8s15.6 34.8 34.8 34.8h148.5L656.8 293.9c-13.6 13.6-13.6 35.7 0 49.3 6.8 6.8 15.7 10.2 24.6 10.2 8.9 0 17.8-3.4 24.6-10.2l224.3-224.3v148.5c0 19.2 15.6 34.8 34.8 34.8s34.8-15.6 34.8-34.8V34.8C1000 15.6 984.4 0 965.2 0z"/></symbol><symbol id="icon-box" viewBox="0 0 256.1 261.4"><path d="M128 0l111.2 49.6L128 108.8 16.9 49.6zM0 70.5l114.8 61.3v127.5L0 179.1zM256.1 193.4l-114.8 68V131.8l114.8-61.3z"/></symbol><symbol id="icon-calendar" viewBox="0 0 1000 1000"><path d="M888.9 111.1h-50v111.1H661.1V111.1H338.9v111.1H161.1V111.1h-50C50 111.1 0 161.1 0 222.2v666.7C0 950 50 1000 111.1 1000h777.8c61.1 0 111.1-50 111.1-111.1V222.2c0-61.1-50-111.1-111.1-111.1zm0 777.8H111.1V444.4h777.8v444.5zM288.9 0h-77.8v188.9h77.8V0zm500 0h-77.8v188.9h77.8V0z"/></symbol><symbol id="icon-chevron" viewBox="0 0 55.8 100"><path d="M5.8 100c-1.5 0-3-.6-4.1-1.7-2.3-2.3-2.3-5.9 0-8.2L41.8 50 1.7 9.9C-.6 7.6-.6 4 1.7 1.7 4-.6 7.6-.6 9.9 1.7l44.2 44.2c2.3 2.3 2.3 5.9 0 8.2L9.9 98.3c-1.1 1.1-2.6 1.7-4.1 1.7z"/></symbol><symbol id="icon-cigarette" viewBox="0 225 1000 550"><path d="M965.5 349.7H21.2C9.5 349.7 0 359.2 0 370.9v157.9C0 540.5 9.5 550 21.2 550h944.3c11.7 0 21.2-9.5 21.2-21.2V370.9c0-11.7-9.5-21.2-21.2-21.2zm-672 42.4H870v115.5H293.5V392.1zm650.8 115.5h-31.8V392.1h31.8v115.5zM900.2 126c-15.9-41.6-3.7-91.2 29.7-120.7 8.8-7.8 22.2-6.9 29.9 1.8 7.8 8.8 6.9 22.2-1.8 29.9-20 17.7-27.7 48.8-18.1 73.8 4.9 12.9 14 24.9 23.7 37.6 10.8 14.1 21.9 28.7 29.1 46.7 18.8 47.1.4 106.1-41.8 134.2-3.6 2.4-7.7 3.6-11.8 3.6-6.8 0-13.6-3.3-17.7-9.4-6.5-9.7-3.9-22.9 5.9-29.4 25.7-17.1 37.3-54.5 25.9-83.2-5-12.6-13.9-24.3-23.4-36.7-11-14.5-22.5-29.5-29.6-48.2z"/></symbol><symbol id="icon-circle" viewBox="0 0 40 40"><circle cx="20" cy="20" r="20"/></symbol><symbol id="icon-clock" viewBox="0 0 97.2 97.2"><path d="M48.6 0C21.8 0 0 21.8 0 48.6s21.8 48.6 48.6 48.6 48.6-21.8 48.6-48.6S75.4 0 48.6 0zm0 86.8c-21.1 0-38.2-17.2-38.2-38.2s17.2-38.2 38.2-38.2 38.2 17.2 38.2 38.2-17.1 38.2-38.2 38.2z"/><path d="M73.9 47.1H52.1V20.8c0-2.2-1.8-4-4-4s-4 1.8-4 4v30.3c0 2.2 1.8 4 4 4h25.8c2.2 0 4-1.8 4-4s-1.8-4-4-4z"/></symbol><symbol id="icon-contract-alive" viewBox="0 0 163 163"><title>icon-contract-alive</title><g fill="none" fill-rule="evenodd"><circle fill="#E9E9E9" cx="81.5" cy="81.5" r="81.5"/><g transform="translate(41 34)"><path stroke="#424242" stroke-width="3" fill="#FFF" d="M0 0h69.499v96H0z"/><g transform="translate(73.72 7.233)" stroke="#424242" stroke-width="3"><rect fill="#FFF" width="7.281" height="63.781" rx="8"/><path fill="#424242" d="M0 59.801h7.281v3.945H0z"/><path d="M6.222 77.85c.655-3.71 1.059-8.822 1.059-14.466H0c0 5.644.404 10.756 1.059 14.465h5.163z" fill="#FFF"/><path d="M3.64 84.3c.671 0 2.16-4.553 2.16-7.108H1.481c0 2.555 1.488 7.109 2.158 7.109z" fill="#FFF"/></g><path stroke="#F90" fill="#F90" d="M20.519 10.521h29.785v2.63H20.519zM8.605 20.415h52.952v2.63H8.605zM8.605 26.163h52.952v2.63H8.605zM8.605 31.912h52.952v2.63H8.605z"/><ellipse stroke="#F90" stroke-width="3" fill="#FFF" cx="17.54" cy="75.288" rx="6.95" ry="6.904"/><ellipse fill="#F90" cx="17.54" cy="75.288" rx="2.979" ry="2.959"/><path d="M33.095 83.223c2.626.12 3.971.32 6.764 0 7.246-.829-9.653-10.086 1.91-11.074 8.98-.768 1.335 8.636 1.947 10.144.612 1.508 6.998.93 6.998.93.803-.425.03-1.943 1.296-1.943s.624 2.262 1.266 2.262l2.854-.32c2.276-3.796-4.262-1.464 2.343.64.797.254 1.384-.084 2.207 0 .587.06 1.045-.947 1.526-.64.055.036.685.274.74.32" stroke="#F90" stroke-width="3"/></g></g></symbol><symbol id="icon-contract" viewBox="0 0 167 167"><title>icon-contract</title><g transform="translate(2 2)" fill="none" fill-rule="evenodd"><circle stroke="#979797" stroke-width="3" fill="#FFF" cx="81.5" cy="81.5" r="81.5"/><g transform="translate(41 34)"><path stroke="#979797" stroke-width="3" fill="#FFF" d="M0 0h69.499v96H0z"/><g transform="translate(73.72 7.233)" stroke="#979797" stroke-width="3"><rect fill="#FFF" width="7.281" height="63.781" rx="8"/><path fill="#989898" d="M0 59.801h7.281v3.945H0z"/><path d="M6.222 77.85c.655-3.71 1.059-8.822 1.059-14.466H0c0 5.644.404 10.756 1.059 14.465h5.163z" fill="#FFF"/><path d="M3.64 84.706c.671 0 2.16-4.96 2.16-7.514H1.481c0 2.555 1.488 7.514 2.158 7.514z" fill="#FFF"/></g><path stroke="#979797" fill="#989898" d="M20.519 10.521h29.785v2.63H20.519zM8.605 20.415h52.952v2.63H8.605zM8.605 26.163h52.952v2.63H8.605zM8.605 31.912h52.952v2.63H8.605z"/><ellipse stroke="#979797" stroke-width="3" fill="#FFF" cx="17.54" cy="75.288" rx="6.95" ry="6.904"/><ellipse fill="#989898" cx="17.54" cy="75.288" rx="2.979" ry="2.959"/><path d="M33.095 83.223c2.626.12 3.971.32 6.764 0 7.246-.829-9.653-10.086 1.91-11.074 8.98-.768 1.335 8.636 1.947 10.144.612 1.508 6.998.93 6.998.93.803-.425.03-1.943 1.296-1.943s.624 2.262 1.266 2.262l2.854-.32c2.276-3.796-4.262-1.464 2.343.64.797.254 1.384-.084 2.207 0 .587.06 1.045-.947 1.526-.64.055.036.685.274.74.32" stroke="#979797" stroke-width="3"/></g></g></symbol><symbol id="icon-cross" viewBox="0 0 348.3 348.3"><path d="M336.6 68.6L231 174.2l105.5 105.5c15.7 15.7 15.7 41.1 0 56.9-7.8 7.8-18.1 11.8-28.4 11.8-10.3 0-20.6-3.9-28.4-11.8L174.2 231 68.6 336.6c-7.8 7.8-18.1 11.8-28.4 11.8-10.3 0-20.6-3.9-28.4-11.8-15.7-15.7-15.7-41.1 0-56.9l105.5-105.5L11.8 68.6c-15.7-15.7-15.7-41.1 0-56.8 15.7-15.7 41.1-15.7 56.8 0l105.6 105.6L279.7 11.8c15.7-15.7 41.1-15.7 56.8 0 15.8 15.7 15.8 41.1.1 56.8z"/></symbol><symbol id="icon-dishwasher" viewBox="88.8 0 434.4 612"><path d="M118.5 500.3h31.3c1.3.8 2.8 1.3 4.4 1.3 1.6 0 3.1-.5 4.4-1.3h157.9c16.5 0 29.9-14 29.9-31.2V140c0-17.2-13.4-31.2-29.9-31.2h-198c-16.5 0-29.9 14-29.9 31.2v329c-.1 17.3 13.4 31.3 29.9 31.3zM106.9 140c0-7 5.2-12.8 11.6-12.8h198c6.4 0 11.6 5.8 11.6 12.8v329c0 7.1-5.2 12.8-11.6 12.8H163.3V344c0-5.1-4.1-9.2-9.2-9.2s-9.2 4.1-9.2 9.2v137.9h-26.5c-6.4 0-11.6-5.7-11.6-12.8V140h.1z"/><path d="M390.9 0H43.5C19.5 0 0 20.5 0 45.6v520.9C0 591.6 19.5 612 43.5 612h347.4c24 0 43.5-20.5 43.5-45.5V45.6c0-25.1-19.5-45.6-43.5-45.6zM43.5 18.4h347.4c13.9 0 25.2 12.2 25.2 27.2v15.3H18.4V45.6c0-15 11.2-27.2 25.1-27.2zm372.6 60.8v461H18.4v-461h397.7zm-25.2 514.4H43.5c-13.9 0-25.1-12.2-25.1-27.2v-7.8h397.7v7.8c0 15-11.3 27.2-25.2 27.2z"/><circle cx="256.9" cy="218.4" r="17.1"/><circle cx="205.5" cy="172.8" r="17.1"/><circle cx="274" cy="418.2" r="17.1"/></symbol><symbol id="icon-dog" viewBox="0 18.6 538.8 501.6"><path d="M41.4 501.6c43.3 0 26.2-41.2 9.2-51.1-17-27.7 40.4-55.3 50.4-63.9 9.9-8.5 44.7-27.7 42.6-66.7-.7-16.3 75.9 17.7 100 22 24.1 4.3 74.5 3.5 83-5.7s-19.2 140.5 30.5 150.4c49.7 9.9 73.8-9.2 61.7-29.1-12.1-19.9-39-14.9-24.8-68.8s.7-56.1 0-58.9 75.2-77.3 76.6-112.1c1.4-34.8-11.4-92.2 33.3-110.7 44.7-18.4 34.1-42.6 32.6-49-1.4-6.4-49.7-5-49.7-5s-5-23.4-40.4-23.4l-7.1-25.5L425.1 19l-6.9-19s-69.5 88-91.5 129.1c-22 41.2-136.9 52.5-152.6 52.5s-90.8-6.4-63.2-44.7c16.4-12.1 39.7 24.8 41.9 30.5 2.1 5.7 63.9 14.2 33.3-56.8C155.6 39.6 59.8 34 30 90 .3 146.2 45.7 223.5 50.6 227.8c0 0-59.6 58.2-13.5 124.9C47.6 370.2 10.1 391 3 408c-7 17-4.8 93.6 38.4 93.6z"/></symbol><symbol id="icon-electricity" viewBox="0 0 398.528 398.528"><path d="M315.232 9.015C311.883 3.276 305.681 0 298.244 0h-91.308c-10.9 0-22.224 7.113-26.93 16.924L83.17 218.041c-3.162 6.56-2.967 13.518.471 19.037 3.463 5.568 9.592 8.811 16.859 8.966l71.662.902-51.877 129.675c-1.276 3.235-3.959 10.014.821 16.981 2.089 3.056 5.674 4.926 9.364 4.926h.837c6.999 0 11.217-5.308 13.241-7.868l167.628-210.49c7.153-8.966 4.202-17.013 3.121-19.354-1.122-2.243-5.625-9.592-17.046-9.592h-53.34l69.8-122.985c3.659-6.487 3.862-13.51.521-19.224z"/></symbol><symbol id="icon-facebook-circle" viewBox="0 0 49.7 49.7"><path d="M24.8 0C11.1 0 0 11.1 0 24.8c0 13.7 11.1 24.8 24.8 24.8 13.7 0 24.8-11.1 24.8-24.8C49.7 11.1 38.5 0 24.8 0zM31 25.7h-4v14.4h-6V25.7h-2.8v-5.1H21v-3.3c0-2.4 1.1-6 6-6h4.4v4.9h-3.2c-.5 0-1.2.3-1.2 1.4v3h4.6l-.6 5.1z"/></symbol><symbol id="icon-facebook" viewBox="22.1 0 52 96.1"><path d="M50 0H37.5c-14 0-23.1 9.3-23.1 23.7v10.9H2c-1.1 0-2 .9-2 2v15.8c0 1.1.9 2 2 2h12.5v39.9c0 1.1.9 2 2 2h16.4c1.1 0 2-.9 2-2v-40h14.7c1.1 0 2-.9 2-2V36.5c0-.5-.2-1-.6-1.4s-.9-.6-1.4-.6H34.8v-9.2c0-4.4 1.1-6.7 6.8-6.7H50c1.1 0 2-.9 2-2V2c0-1.1-.9-2-2-2z"/></symbol><symbol id="icon-google-plus-circle" viewBox="0 0 49.7 49.7"><path d="M21.5 28.9c-.2-.1-.3-.2-.5-.3-.5-.2-1-.2-1.6-.2h-.1c-2.5 0-4.7 1.5-4.7 3.3 0 1.9 1.9 3.4 4.3 3.4 3.2 0 4.8-1.1 4.8-3.3 0-.2 0-.4-.1-.6-.2-.9-.9-1.5-2.1-2.3zM19.7 22.4c.6 0 1.1-.2 1.5-.7.6-.7.9-1.9.7-3.1-.3-2.2-1.8-4-3.5-4.1h-.1c-.6 0-1.1.2-1.5.7-.6.7-.9 1.8-.7 3 .4 2.2 2 4.1 3.6 4.2z"/><path d="M24.8 0C11.1 0 0 11.1 0 24.8c0 13.7 11.1 24.8 24.8 24.8 13.7 0 24.8-11.1 24.8-24.8C49.7 11.1 38.5 0 24.8 0zM22 36.9c-.9.3-2 .4-3 .4-1.2 0-2.3-.1-3.4-.4-2.1-.5-3.6-1.5-4.3-2.8-.3-.5-.5-1.1-.5-1.7 0-.6.1-1.3.4-1.9 1.1-2.4 4.1-4 7.4-4h.1c-.3-.5-.4-1-.4-1.5 0-.3 0-.5.1-.8-3.5-.1-6-2.6-6-5.9 0-2.4 1.9-4.6 4.6-5.6.8-.3 1.6-.4 2.4-.4h7.4c.3 0 .5.2.6.4.1.2 0 .5-.2.6l-1.7 1.2c-.1.1-.2.1-.3.1h-.6c.8.9 1.2 2.2 1.2 3.7 0 1.6-.8 3.1-2.3 4.3-1.1.9-1.2 1.1-1.2 1.7 0 .3.8 1.2 1.7 1.8 2.1 1.5 2.8 2.9 2.8 5.3 0 2.5-1.9 4.7-4.8 5.5zm16.6-12.6c0 .3-.3.6-.6.6h-4.2V29c0 .3-.3.6-.6.6H32c-.3 0-.6-.3-.6-.6v-4.2h-4.2c-.3 0-.6-.3-.6-.6V23c0-.3.3-.6.6-.6h4.2v-4.2c0-.3.3-.6.6-.6h1.2c.3 0 .6.3.6.6v4.2H38c.3 0 .6.3.6.6v1.3z"/></symbol><symbol id="icon-google" viewBox="15.5 0 59 90"><path d="M59 0H34.6c-6.4 0-14.4.9-21.2 6.5-5.1 4.4-7.6 10.4-7.6 15.8 0 9.2 7.1 18.5 19.6 18.5 1.2 0 2.5-.1 3.8-.2-.6 1.4-1.2 2.6-1.2 4.6 0 3.7 1.9 5.9 3.5 8-5.3.4-15.2.9-22.6 5.4C2.1 62.8 0 68.9 0 73.1 0 81.8 8.3 90 25.4 90c20.3 0 31.1-11.2 31.1-22.3 0-8.1-4.7-12.2-9.9-16.5l-4.3-3.3c-1.3-1.1-3.1-2.5-3.1-5.1 0-2.6 1.8-4.3 3.3-5.8 5-3.9 9.9-8 9.9-16.8 0-9-5.7-13.7-8.4-15.9h7.3L59 0zM48.6 72.3c0 7.3-6 12.8-17.4 12.8-12.6 0-20.8-6-20.8-14.4S18 59.5 20.6 58.5c5-1.7 11.4-1.9 12.4-1.9 1.2 0 1.8 0 2.7.1 9 6.4 12.9 9.6 12.9 15.6zm-9.5-38.1c-1.9 1.9-5.1 3.3-8 3.3-10.2 0-14.8-13.1-14.8-21 0-3.1.6-6.3 2.6-8.7 1.9-2.4 5.2-3.9 8.3-3.9 9.8 0 14.9 13.2 14.9 21.7 0 2.2-.2 5.9-3 8.6z"/></symbol><symbol id="icon-heart" viewBox="0 0 510 469.2"><style>.st0{fill:#010101}</style><path class="st0" d="M255 469.2l-35.7-35.7C86.7 316.2 0 237.1 0 140.2 0 61.2 61.2 0 140.2 0c43.4 0 86.7 20.4 114.8 53.5C283 20.4 326.4 0 369.8 0 448.8 0 510 61.2 510 140.2c0 96.9-86.7 175.9-219.3 293.2L255 469.2z" id="favorite_1_"/></symbol><symbol id="icon-inventory-alive" viewBox="0 0 164 164"><title>icon-inventory-alive</title><g transform="translate(0 -.146)" fill="none" fill-rule="evenodd"><circle fill="#E9E9E9" cx="81.716" cy="82.448" r="81.5"/><g transform="translate(28 44)"><rect stroke="#424242" stroke-width="3" fill="#FFF" x="11" width="86" height="54" rx="15"/><g transform="translate(25 15)" stroke="#F90" stroke-width="2" fill="#F90"><circle cx="2.5" cy="2.5" r="2.5"/><circle cx="2.5" cy="15.5" r="2.5"/></g><g transform="translate(42.188 15.448)" stroke="#F90" stroke-width="2" fill="#F90"><circle cx="2.5" cy="2.5" r="2.5"/><circle cx="2.5" cy="15.5" r="2.5"/></g><g transform="translate(60.188 15.448)" stroke="#F90" stroke-width="2" fill="#F90"><circle cx="2.5" cy="2.5" r="2.5"/><circle cx="2.5" cy="15.5" r="2.5"/></g><g transform="translate(78.188 15.448)" stroke="#F90" stroke-width="2" fill="#F90"><circle cx="2.5" cy="2.5" r="2.5"/><circle cx="2.5" cy="15.5" r="2.5"/></g><path stroke="#424242" stroke-width="3" fill="#FFF" d="M14 45.448h75.432v19H14z"/><path stroke="#424242" stroke-width="3" fill="#FFF" d="M14 60.448h75.432v11H14z"/><path d="M11 33.448c-6.075 0-11 4.925-11 11a11 11 0 0 0 6 9.8s4.403 2.572 4.403 6.824S8.93 75.448 8.93 75.448H22v-32c-.55-5.606-5.262-10-11-10zM97 33.448c6.075 0 11 4.925 11 11a11 11 0 0 1-6 9.8s-4.403 2.572-4.403 6.824 1.474 14.376 1.474 14.376H86v-32c.55-5.606 5.262-10 11-10z" stroke="#424242" stroke-width="3" fill="#FFF"/></g></g></symbol><symbol id="icon-inventory" viewBox="0 0 167 167"><title>icon-inventory</title><g transform="translate(2 1)" stroke="#979797" fill="none" fill-rule="evenodd"><circle stroke-width="3" fill="#FFF" cx="81.716" cy="82.448" r="81.5"/><g transform="translate(28 44)"><rect stroke-width="3" fill="#FFF" x="11" width="86" height="54" rx="15"/><g transform="translate(25 15)" stroke-width="2" fill="#989898"><circle cx="2.5" cy="2.5" r="2.5"/><circle cx="2.5" cy="15.5" r="2.5"/></g><g transform="translate(42.188 15.448)" stroke-width="2" fill="#989898"><circle cx="2.5" cy="2.5" r="2.5"/><circle cx="2.5" cy="15.5" r="2.5"/></g><g transform="translate(60.188 15.448)" stroke-width="2" fill="#989898"><circle cx="2.5" cy="2.5" r="2.5"/><circle cx="2.5" cy="15.5" r="2.5"/></g><g transform="translate(78.188 15.448)" stroke-width="2" fill="#989898"><circle cx="2.5" cy="2.5" r="2.5"/><circle cx="2.5" cy="15.5" r="2.5"/></g><path stroke-width="3" fill="#FFF" d="M14 45.448h75.432v19H14z"/><path stroke-width="3" fill="#FFF" d="M14 60.448h75.432v11H14z"/><path d="M11 33.448c-6.075 0-11 4.925-11 11a11 11 0 0 0 6 9.8s4.403 2.572 4.403 6.824S8.93 75.448 8.93 75.448H22v-32c-.55-5.606-5.262-10-11-10zM97 33.448c6.075 0 11 4.925 11 11a11 11 0 0 1-6 9.8s-4.403 2.572-4.403 6.824 1.474 14.376 1.474 14.376H86v-32c.55-5.606 5.262-10 11-10z" stroke-width="3" fill="#FFF"/></g></g></symbol><symbol id="icon-mail-circle" viewBox="0 0 1000 1000"><path d="M500 1000c-46 0-90.3-6-133-18s-82.5-28.8-119.5-50.5-70.7-47.7-101-78c-30.3-30.3-56.3-64-78-101C46.8 715.5 30 675.7 18 633S0 546 0 500s6-90.3 18-133 28.8-82.5 50.5-119.5 47.7-70.7 78-101 64-56.3 101-78S324.3 30 367 18 454 0 500 0c68.7 0 133.5 13.2 194.5 39.5s114 62 159 107 80.7 98 107 159S1000 431.3 1000 500c0 46-6 90.3-18 133s-28.8 82.5-50.5 119.5-47.7 70.7-78 101c-30.3 30.3-64 56.3-101 78-37 21.7-76.8 38.5-119.5 50.5s-87 18-133 18zm241-706H267c-4.7 0-8.7 1.5-12 4.5-3.3 3-5 7.2-5 12.5v53c0 2.7 1 4 3 4l249 142 2 1c1.3 0 2.3-.3 3-1l241-142c1.3-.7 2.3-1 3-1 .7 0 1.7-.3 3-1 2.7 0 4-1.3 4-4v-51c0-5.3-1.7-9.5-5-12.5s-7.3-4.5-12-4.5zM401 507c.7-.7 1-1.7 1-3 0-2-.7-3-2-3l-143-82c-2-.7-3.7-.7-5 0-1.3 0-2 1-2 3v215c0 2 1 3.3 3 4h2c1.3 0 2-.3 2-1l144-133zm174 16c-.7-2-2.3-2.3-5-1l-55 32c-6.7 4-13.7 4-21 0l-48-27c-2-1.3-3.7-1.3-5 0L258 697c-.7.7-1 2-1 4 0 .7.7 1.7 2 3 4 1.3 6.7 2 8 2h469c1.3 0 2.7-.7 4-2 0-2.7-.3-4.3-1-5L575 523zm180-108h-4l-136 81c-1.3 0-2 1-2 3-.7.7-.3 1.7 1 3l136 147c1.3 1.3 2.3 2 3 2h2c2-2 3-3.3 3-4V419c0-1.3-1-2.7-3-4z"/></symbol><symbol id="icon-parking" viewBox="0 0 44.9 46"><path d="M22.1 15c-1.2 0-1.9.1-2.4.2v7.5c.5.1 1.1.1 1.9.1 3 0 4.9-1.5 4.9-4.1 0-2.3-1.6-3.7-4.4-3.7z"/><path d="M39.5 0H5.4C2.4 0 0 2.4 0 5.4v35.1c0 3 2.4 5.4 5.4 5.4h34.1c3 0 5.4-2.4 5.4-5.4V5.4c0-3-2.4-5.4-5.4-5.4zm2.1 39.6c0 1.6-1.3 3-3 3H6.3c-1.6 0-3-1.3-3-3V6.4c0-1.6 1.3-3 3-3h32.4c1.6 0 3 1.3 3 3l-.1 33.2z"/><path d="M38.6 5.5H6.3c-.5 0-.9.4-.9.9v33.3c0 .5.4.9.9.9h32.4c.5 0 .9-.4.9-.9V6.4c-.1-.5-.5-.9-1-.9zm-8.7 19.1c-2 1.8-4.9 2.7-8.2 2.7-.8 0-1.4 0-2-.1v9.1h-5.6v-25c1.8-.3 4.2-.5 7.7-.5s6 .7 7.7 2c1.6 1.3 2.7 3.4 2.7 5.9 0 2.3-.8 4.4-2.3 5.9z"/></symbol><symbol id="icon-person" viewBox="0 0 355.2 466.1"><path d="M233.8 191.9c28.8-18.5 48-50.8 48-87.7C281.8 46.7 235.2 0 177.6 0 120.1 0 73.4 46.7 73.4 104.2c0 36.8 19.2 69.1 48 87.7C53.5 197.9 0 255.2 0 324.7v108.2l.3 1.7 7.5 2.3C78 458.8 139 466.2 189.2 466.2c98 0 154.9-28 158.4-29.7l7-3.5h.7V324.7c-.1-69.5-53.5-126.7-121.5-132.8z"/></symbol><symbol id="icon-qa-about" viewBox="0 0 30 31"><title>icon-qa-about</title><g transform="translate(0 -.112)" fill="none" fill-rule="evenodd"><ellipse fill="#D8D8D8" cx="15" cy="16" rx="15" ry="15"/><text font-family="Source Sans Pro" font-size="24" fill="#FFF"><tspan x="8.588" y="24">R</tspan></text></g></symbol><symbol id="icon-qa-account" viewBox="0 0 30 31"><title>icon-qa-account</title><g transform="translate(0 .888)" fill="none" fill-rule="evenodd"><ellipse fill="#D8D8D8" cx="15" cy="15" rx="15" ry="15"/><g transform="translate(7 7.112)" stroke="#FFF" stroke-width="2"><ellipse fill="#D8D8D8" cx="8" cy="3.947" rx="4" ry="3.947"/><path d="M4.104 8.677C.598 10.13.212 11.977.212 14.626H8.37"/><path d="M12.108 8.677C15.614 10.13 16 11.977 16 14.626H8.212"/></g></g></symbol><symbol id="icon-qa-contract" viewBox="0 0 30 30"><title>icon-qa-contract</title><g fill="none" fill-rule="evenodd"><path d="M15 30c8.284 0 15-6.716 15-15 0-8.284-6.716-15-15-15C6.716 0 0 6.716 0 15c0 8.284 6.716 15 15 15z" fill="#DDD"/><path stroke="#FFF" stroke-width="2" fill="#FFF" d="M9.13 7.258h12.791v16H9.13z"/><path fill="#DDD" d="M11 10h9v2h-9zM11 14h9v2h-9zM11 18h9v2h-9z"/></g></symbol><symbol id="icon-qa-insurance" viewBox="0 0 30 30"><title>icon-qa-insurance</title><g fill="none" fill-rule="evenodd"><path d="M15 30c8.284 0 15-6.716 15-15 0-8.284-6.716-15-15-15C6.716 0 0 6.716 0 15c0 8.284 6.716 15 15 15z" fill="#DDD"/><path d="M10.19 11.242c3.094-.784 3.761-1.87 4.905-2.418 1.115.555 1.66 1.643 4.715 2.418-.333 6.077-2.283 8.888-2.283 8.888s-.547.343-2.057.941c0 0-.32.105-.47.105-.16 0-.467-.104-.467-.104-1.512-.599-2.06-.942-2.06-.942s-1.95-2.811-2.283-8.888z" stroke="#FFF" stroke-width="2" fill="#FFF"/></g></symbol><symbol id="icon-qa-landlord" viewBox="0 0 30 31"><title>icon-qa-landlord</title><g fill="none" fill-rule="evenodd"><path d="M15 30.434c8.284 0 15-6.715 15-15 0-8.284-6.716-15-15-15-8.284 0-15 6.716-15 15 0 8.285 6.716 15 15 15z" fill="#D8D8D8"/><path fill="#FFF" d="M14 12.14h2V26h-2z"/><circle fill="#FFF" cx="15" cy="10" r="4"/><path d="M15.385 17h1.927M15.385 20h3.468M15.385 23h1.927" stroke="#FFF" stroke-width="2" stroke-linecap="square"/></g></symbol><symbol id="icon-qa-payment" viewBox="0 0 30 31"><title>icon-qa-payment</title><g fill="none" fill-rule="evenodd"><path d="M15 30.434c8.284 0 15-6.715 15-15 0-8.284-6.716-15-15-15-8.284 0-15 6.716-15 15 0 8.285 6.716 15 15 15z" fill="#D8D8D8"/><path stroke="#FFF" stroke-width="2" d="M15 6.186h1v3.103h-1zM15 21.579h1v3.103h-1z"/><path d="M17.645 11.805a2.032 2.032 0 0 0-.93-.763 3.15 3.15 0 0 0-1.962-.153 1.97 1.97 0 0 0-.642.288 1.483 1.483 0 0 0-.46.512c-.116.21-.174.458-.174.745 0 .431.145.76.434.988.29.228.648.426 1.077.593.428.168.897.33 1.406.485.51.156.979.372 1.407.647.428.276.787.64 1.077 1.096.29.455.434 1.06.434 1.814 0 .683-.122 1.279-.365 1.788-.243.509-.57.931-.981 1.267a4.192 4.192 0 0 1-1.433.754 5.806 5.806 0 0 1-1.719.252c-.764 0-1.5-.132-2.206-.396a4.253 4.253 0 0 1-1.823-1.33l1.65-1.652c.266.42.616.746 1.05.98.435.233.895.35 1.381.35.255 0 .51-.036.764-.108.255-.072.487-.18.695-.324.208-.143.376-.326.504-.548.127-.221.19-.476.19-.763 0-.467-.144-.827-.434-1.078a3.806 3.806 0 0 0-1.076-.638 16.901 16.901 0 0 0-1.407-.494 5.825 5.825 0 0 1-1.407-.638 3.476 3.476 0 0 1-1.076-1.078c-.29-.449-.435-1.05-.435-1.805 0-.659.13-1.228.391-1.707A3.66 3.66 0 0 1 12.6 9.695a4.409 4.409 0 0 1 1.45-.71 6.031 6.031 0 0 1 3.551.072 4.34 4.34 0 0 1 1.641 1.006l-1.597 1.742z" fill="#FFF"/></g></symbol><symbol id="icon-qa-tenant" viewBox="0 0 30 30"><title>icon-qa-tenant</title><g fill="none" fill-rule="evenodd"><path d="M15 30c8.284 0 15-6.716 15-15 0-8.284-6.716-15-15-15C6.716 0 0 6.716 0 15c0 8.284 6.716 15 15 15z" fill="#DDD"/><path d="M19.141 14.578c.042.238.064.482.064.731v5.986h-8.41v-5.986c0-.237.02-.47.058-.696l3.448-3.449a4.223 4.223 0 0 1 1.432.006l3.408 3.408z" stroke="#FFF" stroke-width="2" fill="#FFF"/><rect fill="#FFF" x="17.159" y="9.262" width="1.954" height="3.689" rx="8"/><path fill="#FFF" d="M15 8.705l8.161 7.255H6.84z"/></g></symbol><symbol id="icon-rentout-address" viewBox="0 0 24 31"><title>icon-rentout-address</title><path d="M23 11.5C23 5.701 18.122 1 12.105 1 6.088 1 1.21 5.701 1.21 11.5c0 1.04.48 3.426.598 3.669 0 0 8.018 14.515 10.656 14.515s9.873-14.486 9.873-14.486c.06-.138.663-2.546.663-3.698zm-10.895 5.954c3.226 0 5.84-2.52 5.84-5.63 0-3.108-2.614-5.628-5.84-5.628s-5.84 2.52-5.84 5.629c0 3.109 2.614 5.629 5.84 5.629z" stroke="#191919" stroke-width="2" fill="none" fill-rule="evenodd"/></symbol><symbol id="icon-rentout-apartment-checked" viewBox="0 0 100 84"><title>icon-rentout-apartment-checked</title><g fill="none" fill-rule="evenodd"><g stroke="#D24E13"><g transform="translate(6.723 10.924)"><path fill="#FFF" d="M.749.351h37.998v60.428H.749z"/><rect fill="#EE7844" x="9.061" y="11.45" width="9.499" height="12.332" rx="3"/><rect fill="#EE7844" x="8.764" y="29.332" width="9.499" height="12.332" rx="3"/></g><g transform="translate(52.941 11.765)"><path fill="#FFF" d="M.749.351h37.998v60.428H.749z"/><rect fill="#EE7844" x="21.232" y="11.45" width="9.499" height="12.332" rx="3"/><rect fill="#EE7844" x="21.232" y="29.332" width="9.499" height="12.332" rx="3"/></g><path fill="#D24E13" d="M0 69.495h100v2.939H0z"/><path stroke-width="2" fill="#FFF" d="M27.494.418h45.013v72.016H27.494z"/><rect fill="#EE7844" x="36.988" y="10.285" width="11.253" height="14.697" rx="3"/><rect fill="#EE7844" x="51.758" y="10.285" width="11.253" height="14.697" rx="3"/><rect fill="#EE7844" x="36.988" y="31.596" width="11.253" height="14.697" rx="3"/><rect stroke-width="2" fill="#FFF" x="44.373" y="56.897" width="11.253" height="14.697" rx="3"/><rect fill="#EE7844" x="51.758" y="31.596" width="11.253" height="14.697" rx="3"/></g><g transform="translate(4.202 36.975)"><ellipse stroke="#D24E13" fill="#EE7844" cx="12.605" cy="12.605" rx="12.605" ry="12.605"/><path fill="#D24E13" d="M11.765 19.328h.84v26.891h-.84z"/><path d="M6.209 11.288l.688-.482 5.784 8.26-.688.482-5.784-8.26z" fill="#D24E13"/><path d="M18.161 11.288l-.688-.482-5.784 8.26.688.482 5.784-8.26z" fill="#D24E13"/></g><path d="M85.714 62.185c6.962 0 12.605-5.644 12.605-12.605 0-6.962-5.643-12.605-12.605-12.605-6.961 0-12.605 5.643-12.605 12.605 0 6.961 5.644 12.605 12.605 12.605z" stroke="#D24E13" fill="#EE7844"/><path fill="#D24E13" d="M84.874 56.303h.84v26.89h-.84z"/><path d="M79.318 48.262l.688-.482 5.784 8.26-.688.483-5.784-8.26z" fill="#D24E13"/><path d="M91.27 48.262l-.688-.482-5.784 8.26.688.483 5.784-8.26z" fill="#D24E13"/></g></symbol><symbol id="icon-rentout-apartment" viewBox="0 0 100 84"><title>icon-rentout-apartment</title><g fill="none" fill-rule="evenodd"><g stroke="#989898"><g transform="translate(6.723 10.924)"><path fill="#FFF" d="M.749.351h37.998v60.428H.749z"/><rect fill="#DDD" x="9.061" y="11.45" width="9.499" height="12.332" rx="3"/><rect fill="#FFF" x="8.764" y="29.332" width="9.499" height="12.332" rx="3"/></g><g transform="translate(52.941 11.765)"><path fill="#FFF" d="M.749.351h37.998v60.428H.749z"/><rect fill="#DDD" x="21.232" y="11.45" width="9.499" height="12.332" rx="3"/><rect fill="#FFF" x="21.232" y="29.332" width="9.499" height="12.332" rx="3"/></g><g><path fill="#989898" d="M0 69.495h100v2.939H0z"/><path stroke-width="2" fill="#FFF" d="M27.494.418h45.013v72.016H27.494z"/><rect fill="#DDD" x="37.34" y="10.285" width="11.253" height="14.697" rx="3"/><rect fill="#DDD" x="51.758" y="10.285" width="11.253" height="14.697" rx="3"/><rect fill="#DDD" x="36.988" y="31.596" width="11.253" height="14.697" rx="3"/><rect stroke-width="2" fill="#FFF" x="44.373" y="56.897" width="11.253" height="14.697" rx="3"/><rect fill="#DDD" x="51.758" y="31.596" width="11.253" height="14.697" rx="3"/></g></g><g transform="translate(1.68 36.975)"><ellipse stroke="#979797" fill="#D8D8D8" cx="12.605" cy="12.605" rx="12.605" ry="12.605"/><path d="M12.531 19.328h.074v26.89h-.84v-26.89h.073l-5.63-8.04.69-.482 5.287 7.551 5.288-7.551.688.482-5.63 8.04z" fill="#989898"/></g><g transform="translate(73.11 36.975)"><ellipse stroke="#979797" fill="#D8D8D8" cx="12.605" cy="12.605" rx="12.605" ry="12.605"/><path d="M12.531 19.328h.074v26.89h-.84v-26.89h.073l-5.63-8.04.69-.482 5.287 7.551 5.288-7.551.688.482-5.63 8.04z" fill="#989898"/></g></g></symbol><symbol id="icon-rentout-date" viewBox="0 0 27 26"><title>icon-rentout-date</title><g transform="translate(0 .05)" fill="none" fill-rule="evenodd"><text font-family="Source Sans Pro" font-size="12" font-weight="bold" fill="#1A1A1A"><tspan x="5.916" y="21">0 2</tspan></text><rect stroke="#1A1A1A" stroke-width="2" width="27" height="25" rx="2"/><path d="M1.5 7H26M8 10.5v-6M19 10.5v-6" stroke="#1A1A1A" stroke-width="2" stroke-linecap="square"/></g></symbol><symbol id="icon-rentout-extra" viewBox="0 0 32 31"><title>icon-rentout-extra</title><g transform="translate(1)" fill="none" fill-rule="evenodd"><ellipse stroke="#1A1A1A" stroke-width="2" cx="15" cy="15.5" rx="14.516" ry="14.5"/><circle fill="#303030" cx="15" cy="8" r="2"/><rect fill="#303030" x="13" y="12" width="4" height="14" rx="2"/></g></symbol><symbol id="icon-rentout-img" viewBox="0 0 30 22"><title>icon-rentout-img</title><g transform="translate(.5 .775)" fill="none" fill-rule="evenodd"><rect stroke="#1A1A1A" stroke-width="2" width="29" height="21" rx="2"/><path d="M10.641 8.29l-.016-.016-6.082 6.523.643.599 5.491-5.889 4.334 4.04.6-.642L10.65 8.28l-.009.01zM17.768 10.997l-4.183 4.485.643.6 4.183-4.486 4.9 4.57.6-.643-4.901-4.57.012-.013-.642-.6-.013.014-.07-.066-.6.643.07.066z" stroke="#1A1A1A" stroke-width="2"/><circle fill="#1A1A1A" cx="21.457" cy="6.274" r="2"/></g></symbol><symbol id="icon-rentout-openhouse" viewBox="0 0 32 32"><title>icon-rentout-openhouse</title><g transform="translate(1 1.267)" stroke="#1A1A1A" stroke-width="2" fill="none" fill-rule="evenodd"><ellipse cx="15" cy="14.5" rx="14.516" ry="14.5"/><path fill="#D8D8D8" d="M14 5h1v10h-1z"/><path d="M23.801 20.156l-9.073-4.623.454-.89 9.073 4.622-.454.891z" fill="#D8D8D8"/></g></symbol><symbol id="icon-rentout-price" viewBox="0 0 31 32"><title>icon-rentout-price</title><g fill="none" fill-rule="evenodd"><ellipse cx="15" cy="14.5" rx="14.516" ry="14.5" stroke="#1A1A1A" stroke-width="2" transform="translate(.5 1.768)"/><path stroke="#1A1A1A" stroke-width="2" d="M15.5 5.768h1v3h-1zM15.5 23.768h1v3h-1z"/><path d="M18.28 12.648a2.325 2.325 0 0 0-1.07-.85 3.737 3.737 0 0 0-2.26-.17c-.273.067-.52.173-.74.32-.22.147-.397.337-.53.57-.133.233-.2.51-.2.83 0 .48.167.847.5 1.1.333.253.747.473 1.24.66a23.03 23.03 0 0 0 1.62.54 6.587 6.587 0 0 1 1.62.72c.493.307.907.713 1.24 1.22.333.507.5 1.18.5 2.02 0 .76-.14 1.423-.42 1.99a4.055 4.055 0 0 1-1.13 1.41 4.886 4.886 0 0 1-1.65.84 6.9 6.9 0 0 1-1.98.28 7.43 7.43 0 0 1-2.54-.44 4.894 4.894 0 0 1-2.1-1.48l1.9-1.84c.307.467.71.83 1.21 1.09a3.398 3.398 0 0 0 2.47.27c.293-.08.56-.2.8-.36.24-.16.433-.363.58-.61.147-.247.22-.53.22-.85 0-.52-.167-.92-.5-1.2a4.417 4.417 0 0 0-1.24-.71 19.917 19.917 0 0 0-1.62-.55 6.822 6.822 0 0 1-1.62-.71 3.94 3.94 0 0 1-1.24-1.2c-.333-.5-.5-1.17-.5-2.01 0-.733.15-1.367.45-1.9.3-.533.693-.977 1.18-1.33a5.151 5.151 0 0 1 1.67-.79 7.17 7.17 0 0 1 4.09.08c.7.227 1.33.6 1.89 1.12l-1.84 1.94z" fill="#1A1A1A"/></g></symbol><symbol id="icon-rentout-property" viewBox="0 0 29 26"><title>icon-rentout-property</title><g transform="translate(1 1)" stroke="#1A1A1A" stroke-width="2" fill="none" fill-rule="evenodd"><path d="M15.874 1.842h-4.409l-8.251 8.251v14.892h20.842V10.024l-8.182-8.182z"/><rect x="10.691" y="15.846" width="5.888" height="9.139" rx="2"/><path d="M18.328 4.418l-3.365-3.365a1.65 1.65 0 0 0-1.185-.486 1.652 1.652 0 0 0-1.472.459L.916 12.416c-.65.65-.647 1.696 0 2.343a1.653 1.653 0 0 0 2.343.002L13.624 4.395l10.39 10.39c.648.649 1.694.646 2.34 0 .651-.65.646-1.695 0-2.341l-4.759-4.759a1.67 1.67 0 0 0 .049-.4v-3.32c0-.92-.743-1.656-1.658-1.656-.922 0-1.658.742-1.658 1.656v.453z" fill="#F7F7F7"/></g></symbol><symbol id="icon-rentout-sharedroom-checked" viewBox="0 0 97 82"><title>icon-rentout-sharedroom-checked</title><g stroke="#D24E13" fill="none" fill-rule="evenodd"><path fill="#979797" d="M24.786 12.192h-2v50h2z"/><path d="M28.54 27.033H16.863v25.775h61.846V27.033H67.954c-4.74-2.868-11.81-4.687-19.707-4.687-7.896 0-14.966 1.82-19.707 4.687z" stroke-width="2" fill="#FFF"/><path fill="#EE7844" d="M31.632 36.192h33.231v15.692h-33.23z"/><path stroke-width="2" fill="#FFF" d="M6.71 50.962h82.153v23.077H6.71z"/><path d="M86.6 81.423h9.647V68.5h-96v12.923h9.648l1.762-5.077h73.18l1.763 5.077z" stroke-width="2" fill="#EE7844"/><path d="M13.799.577h19.975c1.106 0 2.456 1.231 3.022 2.77L40.529 13.5c.562 1.53-.31 2.77-1.95 2.77H8.994c-1.639 0-2.515-1.232-1.95-2.77l3.734-10.154c.562-1.53 1.915-2.77 3.022-2.77z" stroke-width="2" fill="#FFF"/></g></symbol><symbol id="icon-rentout-sharedroom" viewBox="0 0 96 82"><title>icon-rentout-sharedroom</title><g stroke="#979797" fill="none" fill-rule="evenodd"><path fill="#979797" d="M24.539 12.192h-2v50h2z"/><path d="M28.293 27.033H16.615v25.775h61.847V27.033H67.707c-4.741-2.868-11.81-4.687-19.707-4.687s-14.966 1.82-19.707 4.687z" stroke-width="2" fill="#FFF"/><path fill="#D8D8D8" d="M31.385 36.192h33.231v15.692H31.385z"/><path stroke-width="2" fill="#FFF" d="M6.462 50.962h82.154v23.077H6.462z"/><path d="M86.353 81.423H96V68.5H0v12.923h9.647l1.763-5.077h73.18l1.763 5.077z" stroke-width="2" fill="#D8D8D8"/><path d="M13.551.577h19.976c1.106 0 2.456 1.231 3.021 2.77L40.282 13.5c.562 1.53-.31 2.77-1.95 2.77H8.746c-1.64 0-2.515-1.232-1.95-2.77L10.53 3.346c.562-1.53 1.914-2.77 3.021-2.77z" stroke-width="2" fill="#FFF"/></g></symbol><symbol id="icon-rentout-use" viewBox="0 0 28 26"><title>icon-rentout-use</title><g transform="translate(.5 -.303)" stroke="#1A1A1A" stroke-width="2" fill="none" fill-rule="evenodd"><rect y="5" width="27" height="21" rx="2"/><path d="M9 1h10v5H9z"/><path d="M1.5 12h24M8 16.27V12.5M19 16.27V12.5" stroke-linecap="square"/></g></symbol><symbol id="icon-rentout-villa-checked" viewBox="0 0 98 70"><title>icon-renout-villa-checked</title><g stroke="#D24E13" fill="none" fill-rule="evenodd"><path d="M12.517 20.645c-.116.228-.229.457-.337.687-5.568 3.17-9.096 8.334-9.187 13.508 1.74-2.302 4.177-4.45 7.137-6.245-.503 4.92.809 9.518 3.717 12.53-.583-4.201.131-9.232 2.206-14.252l6.255 35.47a2.72 2.72 0 1 0 5.355-.944L21.126 24.32l.068-.014c5.445 3.2 9.41 7.522 11.146 11.85 1.052-4.135-.28-8.7-3.364-12.51 3.426.142 6.528.892 9.024 2.17-2.52-5.006-8.633-7.872-15.488-7.515-.327-.18-.661-.353-1-.52 3.225-3.876 7.019-6.6 10.709-7.79-5.392-1.78-11.836.598-16.444 5.838C9.502 14.575 3.46 16.159 0 20c3.651-.77 8.013-.582 12.517.645z" fill="#EE7844"/><g transform="translate(33.242 1)"><path d="M34.513 6h-9.308L7.785 23.42v27.44a4.004 4.004 0 0 0 4.002 3.997h35.996a4 4 0 0 0 4.002-3.998V23.272L34.513 6z" stroke-width="2" fill="#FFF"/><rect fill="#EE7844" x="23.57" y="30.429" width="12.43" height="19.294" rx="2"/><path d="M38.933 9.607l-8.12-8.12a2.741 2.741 0 0 0-3.686-.168c-.13.09-.254.194-.37.31L1.637 26.75a2.742 2.742 0 0 0 .005 3.876 2.743 2.743 0 0 0 3.876.004L28.856 7.29l23.197 23.197a2.742 2.742 0 0 0 3.876-.005 2.743 2.743 0 0 0 .004-3.876L45.768 16.442c.107-.335.165-.693.165-1.064V8.371a3.5 3.5 0 0 0-7 0v1.236z" stroke-width="2" fill="#EE7844"/></g><path d="M61.496 70H4l1.333-8.699c.418-2.73 2.985-5.232 5.714-5.584l19.33-2.49c.4-2.775 2.652-4.792 5.953-4.916l16.451-.614c1.464-1.892 3.699-3.178 6.205-3.326l34.029-2.01C95.768 42.2 98 44.305 98 47.061V70H61.496z" fill="#EE7844"/></g></symbol><symbol id="icon-rentout-villa" viewBox="0 0 98 70"><title>icon-rentout-villa</title><g fill="none" fill-rule="evenodd"><path d="M12.517 20.645c-.116.228-.229.457-.337.687-5.568 3.17-9.096 8.334-9.187 13.508 1.74-2.302 4.177-4.45 7.137-6.245-.503 4.92.809 9.518 3.717 12.53-.583-4.201.131-9.232 2.206-14.252l6.255 35.47a2.72 2.72 0 1 0 5.355-.944L21.126 24.32l.068-.014c5.445 3.2 9.41 7.522 11.146 11.85 1.052-4.135-.28-8.7-3.364-12.51 3.426.142 6.528.892 9.024 2.17-2.52-5.006-8.633-7.872-15.488-7.515-.327-.18-.661-.353-1-.52 3.225-3.876 7.019-6.6 10.709-7.79-5.392-1.78-11.836.598-16.444 5.838C9.502 14.575 3.46 16.159 0 20c3.651-.77 8.013-.582 12.517.645z" stroke="#979797" fill="#DDD"/><g transform="translate(34.242 1)" stroke="#989898"><path d="M33.228 6H23.92L6.5 23.42v27.44a4.004 4.004 0 0 0 4.002 3.997h35.996A4 4 0 0 0 50.5 50.86V23.272L33.228 6z" stroke-width="2" fill="#FFF"/><rect fill="#DDD" x="22.57" y="30.429" width="12.43" height="19.294" rx="2"/><path d="M38.718 9.733l-8.12-8.12a2.741 2.741 0 0 0-3.685-.169c-.13.091-.254.194-.37.31l-25.12 25.12a2.742 2.742 0 0 0 .004 3.876 2.743 2.743 0 0 0 3.876.004L28.641 7.416l23.197 23.197a2.742 2.742 0 0 0 3.876-.004 2.743 2.743 0 0 0 .004-3.876L45.553 16.567c.107-.335.165-.693.165-1.064V8.497a3.5 3.5 0 0 0-7 0v1.236z" stroke-width="2" fill="#DDD"/></g><path d="M61.496 70H4l1.333-8.699c.418-2.73 2.985-5.232 5.714-5.584l19.33-2.49c.4-2.775 2.652-4.792 5.953-4.916l16.451-.614c1.464-1.892 3.699-3.178 6.205-3.326l34.029-2.01C95.768 42.2 98 44.305 98 47.061V70H61.496z" stroke="#989898" fill="#DDD"/></g></symbol><symbol id="icon-set-alive" viewBox="0 0 164 164"><title>icon-set-alive</title><g transform="rotate(45 81.447 83.079)" fill="none" fill-rule="evenodd"><circle fill="#E9E9E9" cx="81.5" cy="82" r="81.5"/><g stroke-width="3" fill="#FFF"><path stroke="#424242" d="M75 50h14v65H75z"/><path d="M49.672 89.5v-14h65v14h-65z" stroke="#F90"/><path d="M32 76.695l22-5.021v21.652l-22-5.021v-11.61z" stroke="#F90"/><path d="M87.833 33.588C93.22 35.864 97 41.196 97 47.412c0 8.284-6.716 15-15 15-8.284 0-15-6.716-15-15 0-6.216 3.78-11.548 9.167-13.824v13.824h11.666V33.588zM87.833 130.412C93.22 128.136 97 122.804 97 116.588c0-8.284-6.716-15-15-15-8.284 0-15 6.716-15 15 0 6.216 3.78 11.548 9.167 13.824v-13.824h11.666v13.824z" stroke="#424242"/><path stroke="#F90" d="M105 70h15v25h-15z"/><path stroke="#F90" d="M119.707 76.707h12.5v13h-12.5z"/></g></g></symbol><symbol id="icon-set" viewBox="0 0 167 167"><title>icon-set</title><g transform="rotate(45 80.563 84.86)" stroke="#979797" stroke-width="3" fill="#FFF" fill-rule="evenodd"><circle cx="81.5" cy="82" r="81.5"/><path d="M75 50h14v65H75z"/><path d="M52.5 89.5v-14h65v14z"/><path d="M32 76.695l22-5.021v21.652l-22-5.021v-11.61zM87.833 33.588C93.22 35.864 97 41.196 97 47.412c0 8.284-6.716 15-15 15-8.284 0-15-6.716-15-15 0-6.216 3.78-11.548 9.167-13.824v13.824h11.666V33.588zM87.833 130.412C93.22 128.136 97 122.804 97 116.588c0-8.284-6.716-15-15-15-8.284 0-15 6.716-15 15 0 6.216 3.78 11.548 9.167 13.824v-13.824h11.666v13.824zM105 70h15v25h-15zM120.414 76h12.5v13h-12.5z"/></g></symbol><symbol id="icon-shower" viewBox="0 0 67.1 79.5"><path d="M60.1 36.5H7c0-9 7.3-16.3 16.3-16.3h4.6V0h11.5v20.2H44c8.8 0 16.1 7.3 16.1 16.3zM36.3 43c0-1.5-1.2-2.7-2.7-2.7-1.5 0-2.7 1.2-2.7 2.7 0 1.5 1.2 2.7 2.7 2.7 1.5 0 2.7-1.2 2.7-2.7zm0 22.6c0-1.6-1.2-2.8-2.7-2.8-1.5 0-2.7 1.2-2.7 2.8 0 1.5 1.2 2.7 2.7 2.7 1.5 0 2.7-1.2 2.7-2.7zm0-11.3c0-1.6-1.2-2.7-2.7-2.7-1.5 0-2.7 1.2-2.7 2.7 0 1.5 1.2 2.7 2.7 2.7 1.5 0 2.7-1.2 2.7-2.7zm0 22.5c0-1.5-1.2-2.7-2.7-2.7-1.5 0-2.7 1.2-2.7 2.7 0 1.5 1.2 2.7 2.7 2.7 1.5 0 2.7-1.2 2.7-2.7zm29.1-.5c1.4-.6 2.1-2.1 1.5-3.5v-.1c-.6-1.4-2.1-2.1-3.5-1.5-1.4.5-2.1 2.2-1.5 3.5.4 1.1 1.4 1.7 2.5 1.7.4.1.7 0 1-.1zm-3.7-10.2c1.4-.5 2.1-2.1 1.5-3.5v-.1c-.6-1.4-2.1-2.1-3.5-1.5-1.4.6-2.1 2.2-1.5 3.5.4 1.1 1.4 1.7 2.5 1.7.3 0 .7 0 1-.1zm-4-10.2c1.4-.4 2.2-1.9 1.8-3.4v-.1c-.4-1.4-1.9-2.2-3.4-1.8-1.4.4-2.2 2-1.8 3.4.3 1.2 1.4 1.9 2.6 1.9.3.1.6.1.8 0zm-3.5-10.3c1.4-.5 2.1-2.1 1.5-3.5V42c-.6-1.4-2.1-2.1-3.5-1.5-1.4.6-2.1 2.2-1.5 3.6.4 1.1 1.4 1.7 2.5 1.7.3 0 .7-.1 1-.2zM49.4 78c1.5-.3 2.4-1.7 2.1-3.2v-.1c-.3-1.5-1.7-2.4-3.2-2.1-1.5.3-2.4 1.8-2.1 3.2.3 1.3 1.4 2.2 2.7 2.2.2.1.4.1.5 0zm-1.9-10.7c1.5-.2 2.6-1.5 2.4-3v-.1c-.1-1.5-1.5-2.6-3-2.4-1.5.1-2.6 1.5-2.4 3 .1 1.4 1.3 2.4 2.7 2.4.1.1.2.1.3.1zm-1.4-10.8c1.5-.3 2.4-1.7 2.1-3.2v-.1c-.3-1.5-1.7-2.4-3.2-2.1-1.5.3-2.4 1.7-2.1 3.2.3 1.3 1.4 2.2 2.7 2.2h.5zm-1.7-10.8c1.5-.3 2.4-1.7 2.1-3.2v-.1c-.3-1.5-1.8-2.4-3.2-2.1-1.5.3-2.4 1.7-2.1 3.2.3 1.3 1.4 2.2 2.7 2.2.2.1.3 0 .5 0zM5.2 74.8c.6-1.4-.1-3-1.5-3.5-1.4-.6-3 .1-3.5 1.5-.6 1.4.1 3 1.5 3.5.3.1.7.2 1 .2 1.1 0 2.1-.7 2.5-1.7zM9 64.5c.6-1.4-.1-3-1.5-3.5-1.4-.6-3 .1-3.5 1.5-.6 1.4.1 3 1.5 3.5.3.1.7.2 1 .2 1 0 2-.6 2.5-1.7zm3.8-10.4c.4-1.5-.4-3-1.8-3.4-1.5-.5-3 .4-3.4 1.8-.4 1.5.4 3 1.8 3.4.3.1.5.1.8.1 1.2 0 2.3-.7 2.6-1.9zm3.7-10c.6-1.5-.1-3-1.5-3.6-1.4-.6-3 .1-3.5 1.5-.6 1.4.1 3 1.5 3.5.3.1.7.2 1 .2 1 .1 2-.6 2.5-1.6zm4.4 31.8c.3-1.5-.6-2.9-2.1-3.2-1.5-.3-2.9.7-3.2 2.2-.3 1.5.7 2.9 2.1 3.2.2 0 .4.1.5.1 1.3-.1 2.4-1 2.7-2.3zm1.7-11c.2-1.5-.9-2.8-2.4-3-1.5-.2-2.8 1-3 2.4-.1 1.5.9 2.8 2.4 3h.3c1.4 0 2.6-1 2.7-2.4zm1.6-10.5c.3-1.5-.7-2.9-2.1-3.2-1.4-.3-2.9.7-3.2 2.1-.3 1.5.7 2.9 2.1 3.2.2 0 .4.1.5.1 1.3-.1 2.5-.9 2.7-2.2zm1.7-10.8c.3-1.5-.6-2.9-2.1-3.2-1.4-.3-2.9.7-3.2 2.2-.3 1.5.7 2.9 2.1 3.2.2 0 .4.1.5.1 1.3-.1 2.4-1 2.7-2.3z"/></symbol><symbol id="icon-sofa" viewBox="0 132.9 1000 734.2"><path d="M812.2 734.2c-21.5 0-39-17.5-39-39v-39h39c62.2 0 78-21.2 78-21.2v60.2c0 21.5-17.5 39-39 39h-39zM148.8 734.2c-21.5 0-39-17.5-39-39V635s15.8 21.2 78 21.2h39v39c0 21.5-17.5 39-39 39h-39zM1000 324.4c0-49.8-40.4-90.3-90.3-90.3-38.7 0-71.5 24.5-84.3 58.8l-42.8 95.9c-3.2-2-132.6-42.7-280.2-42.7S220.3 387 217 389.1l-40.5-89.9c-11-37.4-45.2-64.9-86.2-64.9C40.4 234.2 0 274.6 0 324.5c0 41.5 28.2 76.1 66.3 86.6L83 554.7c17.6 60.9 104.8 62.4 104.8 62.4h624.4s87.2-1.5 104.8-62.5L933.7 411c38.1-10.5 66.3-45.1 66.3-86.6z"/><path d="M90.3 187.3c59 0 112 38.9 130.1 95.1l19.7 43.9c38.2-13.8 175.6-27 262.4-27 84.4 0 219.8 12.3 257.3 26l22.4-50.3c20.3-52.5 71.4-87.7 127.6-87.7 4.1 0 8.1.9 12.2 1.2v-.7C922 84.1 837.9 0 734.2 0H265.9C162.2 0 78.1 84.1 78.1 187.8v.7c4.1-.3 8-1.2 12.2-1.2z"/></symbol><symbol id="icon-telephone-circle" viewBox="0 0 485.2 485.2"><path d="M242.6 0C108.6 0 0 108.6 0 242.6s108.6 242.6 242.6 242.6 242.6-108.6 242.6-242.6S376.6 0 242.6 0zm128.1 354l-19.4 19.4c-3.5 3.5-13.6 5.6-13.9 5.6-61.5.5-120.6-23.6-164.1-67.1-43.6-43.6-67.8-103-67.1-164.7 0 0 2.2-9.9 5.7-13.3l19.4-19.4c7.1-7.1 20.8-10.4 30.3-7.2l4.1 1.4c9.5 3.2 19.6 13.7 22.2 23.5l9.8 35.9c2.6 9.7-.9 23.6-8 30.7l-13 13c12.7 47.1 49.7 84.1 96.9 96.9l13-13c7.1-7.1 21-10.7 30.7-8.1l35.9 9.8c9.7 2.7 20.3 12.6 23.5 22.2l1.4 4.1c2.9 9.6-.3 23.2-7.4 30.3z"/></symbol><symbol id="icon-thermometer" viewBox="281.5 0 437.1 1000"><path d="M347.8 85.7c-7.1-16.7-17.2-31.7-30-44.6-12.9-12.9-27.9-23-44.6-30-17.3-7.3-35.7-11-54.6-11s-37.3 3.7-54.6 11c-16.7 7.1-31.7 17.2-44.6 30-12.9 12.9-23 27.9-30 44.6-7.3 17.3-11 35.7-11 54.6v473.6c-20.6 17.3-38 38.3-51 61.9C9.4 707.9 0 744.5 0 781.5c0 29.5 5.8 58.1 17.2 85.1 11 26 26.8 49.4 46.8 69.5 20.1 20.1 43.4 35.8 69.5 46.8 27 11.4 55.6 17.2 85.1 17.2s58.1-5.8 85.1-17.2c26-11 49.4-26.8 69.5-46.8 20.1-20.1 35.8-43.4 46.8-69.5 11.4-27 17.2-55.6 17.2-85.1 0-37-9.4-73.5-27.2-105.7-13-23.5-30.4-44.6-51-61.9V140.3c-.2-18.9-3.9-37.3-11.2-54.6zM391 781.5c0 95.2-77.2 172.4-172.4 172.4S46.1 876.7 46.1 781.5c0-60.5 31.2-113.7 78.3-144.5V140.3c0-52 42.1-94.1 94.1-94.1 52 0 94.1 42.1 94.1 94.1v6.9h-82.9c-12.7 0-23.1 10.3-23.1 23.1 0 12.7 10.3 23.1 23.1 23.1h82.9v46.1h-82.9c-12.7 0-23.1 10.3-23.1 23.1 0 12.7 10.3 23.1 23.1 23.1h82.9v46.1h-82.9c-12.7 0-23.1 10.3-23.1 23.1 0 12.7 10.3 23.1 23.1 23.1h82.9v259c47.2 30.8 78.4 84 78.4 144.5z"/><path d="M293.1 667l-16.3-10.6V470.5c0-32.1-26.1-58.3-58.3-58.3s-58.3 26.1-58.3 58.3v185.9L144 667c-38.8 25.4-62 68.1-62 114.4 0 36.5 14.2 70.8 40 96.5 25.8 25.8 60.1 40 96.5 40s70.8-14.2 96.5-40c25.8-25.8 40-60.1 40-96.5.1-46.2-23.1-89-61.9-114.4z"/></symbol><symbol id="icon-tick-alt" viewBox="0 34.3 490.4 421.9"><path d="M472 24.1l-13.1-11.3c-21.8-18.7-54.6-16.6-73.8 4.7L165.4 261.1 99.1 204c-21.8-18.8-54.5-16.7-73.8 4.6l-11.6 12.8C4.3 231.8-.6 245.5.1 259.6c.7 14 7 27.2 17.4 36.6L139 407.5c10.5 9.9 24.6 15 39 14.3 14.4-.8 27.9-7.4 37.3-18.3L477.6 98.7c9.2-10.6 13.7-24.5 12.7-38.5-1.1-14-7.6-27-18.3-36.1z"/></symbol><symbol id="icon-tick" viewBox="0 0 510 510"><path d="M255 0C114.8 0 0 114.8 0 255s114.8 255 255 255 255-114.8 255-255S395.2 0 255 0zm-51 382.5L76.5 255l35.7-35.7 91.8 91.8 193.8-193.8 35.7 35.7L204 382.5z"/></symbol><symbol id="icon-toilet" viewBox="36.6 0 926.8 1000"><path d="M286.2 33.3c0-18.4-14.9-33.3-33.3-33.3H33.3C14.9 0 0 14.9 0 33.3v500.4c0 8.5 6.9 15.4 15.4 15.4h255.3c8.5 0 15.4-6.9 15.4-15.4l.1-500.4zM911.4 549.1c8.5 0 15.4-6.9 15.4-15.4v-116c0-18.4-14.9-33.3-33.3-33.3H368.2c-8.5 0-15.4 6.9-15.4 15.4v133.8c0 8.5 6.9 15.4 15.4 15.4h543.2zM15.4 615.6C6.9 615.6 0 622.5 0 631v335.6c0 18.4 14.9 33.3 33.3 33.3h329.5c12.6 0 24.1-7.1 29.8-18.4l45.7-91.4h199.1c159.6 0 289.5-113.5 289.5-252.9V631c0-8.5-6.9-15.4-15.4-15.4H15.4z"/></symbol><symbol id="icon-trash" viewBox="0 0 32 32"><title/><path d="M21 6h4v1H8V6h4V5c0-1.112.894-2 1.997-2h5.006A2 2 0 0 1 21 5v1zM8 8v18.999A2.995 2.995 0 0 0 11 30h11a3 3 0 0 0 3-3.001V8H8zm1 1v18.01c0 1.099.893 1.99 1.992 1.99h11.016c1.1 0 1.992-.898 1.992-1.99V9H9zm3 2v16h1V11h-1zm4 0v16h1V11h-1zm4 0v16h1V11h-1zm-5.997-7A.999.999 0 0 0 13 5v1h7V5c0-.552-.438-1-1.003-1h-4.994z" fill="#929292" fill-rule="evenodd"/></symbol><symbol id="icon-tv" viewBox="0 50.6 612 510.8"><path d="M578.8.9V0H32.9v.9C15.3 2.1 2.1 16.2 0 33.2v358.7c0 6.9 1.8 12.7 4.8 17.9 6.9 12.1 17.1 18.3 31.1 18.3h197v49.7h-37.4c-9.3 0-16.5 7.2-16.5 16.5s7.2 16.5 16.5 16.5h220.7c9.3 0 16.8-7.2 16.8-16.5s-7.5-16.5-16.8-16.5h-37.4v-49.7h197c14.1 0 24.3-6.1 31.1-18.3 3.1-5.5 5.1-11.4 5.1-17.9V33.2c-2.1-17-16.2-31.1-33.2-32.3zm0 35.3v355.7c0 2.1-.9 3-3 3H35.9c-2.1 0-3-.9-3-3V33.2h545.8l.1 3z"/></symbol><symbol id="icon-twitter-circle" viewBox="0 0 49.7 49.7"><path d="M24.8 0C11.1 0 0 11.1 0 24.8c0 13.7 11.1 24.8 24.8 24.8 13.7 0 24.8-11.1 24.8-24.8C49.7 11.1 38.5 0 24.8 0zm11.1 19.1v.7c0 7.6-5.7 16.3-16.3 16.3-3.2 0-6.2-.9-8.8-2.6.4.1.9.1 1.4.1 2.7 0 5.1-.9 7.1-2.4-2.5 0-4.6-1.7-5.3-4 .3.1.7.1 1.1.1.5 0 1-.1 1.5-.2-2.6-.5-4.6-2.8-4.6-5.6v-.1c.8.4 1.7.7 2.6.7-1.5-1-2.5-2.8-2.5-4.8 0-1 .3-2 .8-2.9 2.8 3.5 7 5.7 11.8 6-.1-.4-.1-.9-.1-1.3 0-3.2 2.6-5.7 5.7-5.7 1.6 0 3.1.7 4.2 1.8 1.3-.3 2.5-.7 3.6-1.4-.4 1.3-1.3 2.5-2.5 3.2 1.2-.1 2.3-.4 3.3-.9-.9 1.2-1.9 2.2-3 3z"/></symbol><symbol id="icon-washing-machine" viewBox="66.8 0 487.6 621.3"><path d="M285.1 402.3c-23.8 38.8-70.7 32-85.7 1.4-39.5 42.9-71.6-1.4-71.6-1.4 7.2 57.2 56 101.4 115.1 101.4 60.1 0 109.5-45.6 115.4-104.2.1-.1-52.8 30.6-73.2 2.8z"/><path d="M243.1 531.9c-75.9 0-137.5-61.5-137.5-137.5 0-75.9 61.5-137.5 137.5-137.5 75.9 0 137.5 61.6 137.5 137.5 0 76-61.6 137.5-137.5 137.5zM0 177.5V605c0 9 7.6 16.3 17 16.3h453.6c9.4 0 17-7.3 17-16.3V177.5H0zM170.2 97.5c-13.5 0-24.4-10.9-24.4-24.4 0-13.5 10.9-24.4 24.4-24.4 13.5 0 24.4 10.9 24.4 24.4 0 13.5-10.9 24.4-24.4 24.4zm-80.5 0c-13.5 0-24.4-10.9-24.4-24.4 0-13.5 10.9-24.4 24.4-24.4 13.5 0 24.4 10.9 24.4 24.4 0 13.5-10.9 24.4-24.4 24.4zM470.6 0H17C7.6 0 0 7.9 0 17.6v128.7h487.6V17.6c0-9.7-7.6-17.6-17-17.6z"/></symbol><symbol id="icon-water" viewBox="57.3 0 268.7 383.3"><path d="M215.9 106.9c-27.2-44.9-57.4-83.7-73-102.8-2.1-2.6-5.2-4.1-8.5-4.1s-6.4 1.5-8.5 4.1c-15.6 19.2-45.8 58-73 102.9C17.8 164.7 0 212.6 0 249c0 74.1 60.3 134.3 134.3 134.3S268.7 323.1 268.7 249c0-36.5-17.8-84.3-52.8-142.1zm-63.1 227c-7.8 2-16 3-24.2 3-50.2 0-91-37.9-91-84.6 0-11.3 3-24.4 8.8-39.1 1-2.5 3.8-3.9 6.6-3.3 2.8.6 4.6 3 4.4 5.6-.3 3.1-.5 6.2-.5 9.1 0 50.7 40.9 93.2 95.1 98.8 2.7.3 4.8 2.3 5 4.8.1 2.7-1.6 5-4.2 5.7z"/></symbol><symbol id="icon-wheelchair" viewBox="33.1 0 933.8 1000"><path d="M271.6 138.7c-5.3-12.1-8-25.3-8-39.5 0-13.5 2.7-26.3 8-38.4 5.3-12.1 12.5-22.6 21.3-31.5 8.9-8.9 19.4-16 31.5-21.3 12.1-5.3 25.3-8 39.5-8 13.5 0 26.3 2.7 38.4 8 12.1 5.3 22.8 12.5 32 21.3s16.4 19.4 21.3 31.5 7.5 24.9 7.5 38.4c0 27.7-9.6 51.4-28.8 71s-42.7 29.3-70.4 29.3c-14.2 0-27.4-2.7-39.5-8s-22.6-12.5-31.5-21.3c-8.8-8.9-16-19.4-21.3-31.5zm387.9 546.5c-12.1-2.8-22.9-1.1-32.5 5.3s-15.8 15.3-18.7 26.7c-2.1 10.7-5.3 21-9.6 30.9-9.2 24.9-22.2 47.7-39 68.3-16.7 20.6-35.9 38.4-57.6 53.4-21.7 14.9-45.5 26.5-71.5 34.7-26 8.2-52.8 12.3-80.6 12.3-36.3 0-70.4-6.8-102.5-20.3-32-13.5-59.9-31.7-83.8-54.4-23.8-22.8-42.7-49.6-56.6-80.6-13.9-30.9-20.8-64.2-20.8-99.8 0-26.3 4.1-51.8 12.3-76.3 8.2-24.5 19.7-47.3 34.7-68.3 14.9-21 32.7-39.5 53.4-55.5 20.6-16 43.8-29 69.4-39 11.4-3.6 19.6-10.7 24.5-21.3s5.3-21.3 1.1-32c-4.3-10.7-11.9-18.3-22.9-22.9-11-4.6-22.2-5.2-33.6-1.6-33.4 12.8-64 29.9-91.8 51.2-27.7 21.3-51.6 45.9-71.5 73.6s-35.2 58-45.9 90.7C5.3 593 0 626.8 0 661.7c0 47 9.2 90.9 27.7 131.8 18.5 40.9 43.6 76.7 75.2 107.3 31.7 30.6 68.7 54.8 111 72.6 42.3 17.8 87.7 26.7 136.1 26.7 37 0 72.6-5.3 106.7-16 34.1-10.7 65.8-25.8 95-45.4 29.2-19.6 54.8-43.2 76.8-71 22.1-27.7 39.1-58.3 51.2-91.8 5-12.1 9.2-25.6 12.8-40.6 2.8-12.1 1.1-22.8-5.3-32-6.3-9.2-15.6-15.3-27.7-18.1zm269 163.3L765.2 564.6c-5.7-12.1-14.2-21.7-25.6-28.8-11.4-7.1-24.2-10.7-38.4-10.7H519.7l-21.3-104.6h141.9c8.5.7 16.7-.7 24.5-4.3 7.8-3.6 13.9-9.2 18.1-17.1 5.7-10 6.9-20.6 3.7-32-3.2-11.4-10.1-19.9-20.8-25.6-5.7-3.6-12.1-5.3-19.2-5.3H480.2l-9.6-49.1c0-1.4-.2-2.3-.5-2.7-.4-.4-.5-1.2-.5-2.7l-1.1-3.2c-5-16.4-14.4-29.9-28.3-40.6s-30.1-16-48.6-16c-22.8 0-42 7.6-57.6 22.9-15.7 15.3-23.5 33.6-23.5 55 0 3.6.4 6.4 1.1 8.5h-1.1l58.7 282.8c2.8 16.4 10.7 29.7 23.5 40s27.7 15.5 44.8 15.5c5 0 8.9-.4 11.7-1.1h242.3L832.4 891c4.3 9.2 10.7 16.7 19.2 22.4 8.5 5.7 18.5 8.5 29.9 8.5 14.2 0 26.5-5 36.8-14.9 10.3-10 15.5-22.1 15.5-36.3 0-7.7-1.8-15.1-5.3-22.2z"/></symbol><symbol id="icon-wifi" viewBox="0 82.4 612 447.1"><path d="M306 335.3c-30.9 0-55.9 25-55.9 55.9 0 30.8 25 55.9 55.9 55.9s55.9-25 55.9-55.9c0-30.8-25.1-55.9-55.9-55.9zm299.4-195.4C530.7 51 421.5 0 306 0S81.3 51 6.6 139.9c-9.9 11.8-8.4 29.4 3.4 39.4 5.2 4.4 11.6 6.6 17.9 6.6 8 0 15.9-3.4 21.4-10C113.4 99.6 207 55.9 306 55.9s192.6 43.7 256.7 120c5.5 6.6 13.5 10 21.4 10 6.4 0 12.7-2.1 18-6.6 11.7-9.9 13.3-27.6 3.3-39.4zM306 111.8c-82.5 0-160.5 36.4-213.9 99.9-9.9 11.8-8.4 29.4 3.4 39.4 5.2 4.4 11.6 6.6 18 6.6 8 0 15.9-3.4 21.4-10 42.7-50.8 105.1-80 171.1-80s128.4 29.2 171.1 80c5.5 6.6 13.5 10 21.4 10 6.4 0 12.7-2.1 18-6.6 11.8-9.9 13.4-27.6 3.4-39.4-53.4-63.5-131.4-99.9-213.9-99.9zm0 111.7c-49.6 0-96.3 21.9-128.3 59.9-9.9 11.8-8.4 29.4 3.4 39.4 5.2 4.4 11.6 6.6 18 6.6 8 0 15.9-3.4 21.4-10 21.4-25.4 52.6-40 85.5-40s64.2 14.6 85.5 40c5.5 6.6 13.5 10 21.4 10 6.4 0 12.7-2.1 18-6.6 11.8-9.9 13.4-27.6 3.4-39.4-32-38-78.8-59.9-128.3-59.9z"/></symbol></svg>