<?xml version="1.0" encoding="UTF-8"?><!DOCTYPE svg PUBLIC "-//W3C//DTD SVG 1.1//EN" "http://www.w3.org/Graphics/SVG/1.1/DTD/svg11.dtd"><svg xmlns="http://www.w3.org/2000/svg"><symbol id="icon-arrows" viewBox="0 0 1000 1000"><path d="M34.8 302.2c19.2 0 34.8-15.6 34.8-34.8V118.9L294 343.2c6.8 6.8 15.7 10.2 24.6 10.2 8.9 0 17.8-3.4 24.6-10.2 13.6-13.6 13.6-35.7 0-49.3L118.9 69.7h148.5c19.2 0 34.8-15.6 34.8-34.8S286.7 0 267.4 0H34.8C15.6 0 0 15.6 0 34.8v232.6c0 19.2 15.6 34.8 34.8 34.8zM965.2 697.7c-19.2 0-34.8 15.6-34.8 34.8V881L699.1 649.9c-13.6-13.6-35.7-13.6-49.3 0-13.6 13.6-13.6 35.7 0 49.3L881 930.4H732.6c-19.2 0-34.8 15.6-34.8 34.8 0 19.2 15.6 34.8 34.8 34.8h232.6c19.2 0 34.8-15.6 34.8-34.8V732.6c0-19.3-15.6-34.9-34.8-34.9zM300.9 649.9L69.7 881.1V732.6c0-19.2-15.6-34.8-34.8-34.8S0 713.3 0 732.6v232.6c0 19.2 15.6 34.8 34.8 34.8h232.6c19.2 0 34.8-15.6 34.8-34.8 0-19.2-15.6-34.8-34.8-34.8H118.9l231.2-231.2c13.6-13.6 13.6-35.7 0-49.3-13.6-13.6-35.6-13.6-49.2 0zM965.2 0H732.6c-19.2 0-34.8 15.6-34.8 34.8s15.6 34.8 34.8 34.8h148.5L656.8 293.9c-13.6 13.6-13.6 35.7 0 49.3 6.8 6.8 15.7 10.2 24.6 10.2 8.9 0 17.8-3.4 24.6-10.2l224.3-224.3v148.5c0 19.2 15.6 34.8 34.8 34.8s34.8-15.6 34.8-34.8V34.8C1000 15.6 984.4 0 965.2 0z"/></symbol><symbol id="icon-box" viewBox="0 0 256.1 261.4"><path d="M128 0l111.2 49.6L128 108.8 16.9 49.6zM0 70.5l114.8 61.3v127.5L0 179.1zM256.1 193.4l-114.8 68V131.8l114.8-61.3z"/></symbol><symbol id="icon-calendar" viewBox="0 0 1000 1000"><path d="M888.9 111.1h-50v111.1H661.1V111.1H338.9v111.1H161.1V111.1h-50C50 111.1 0 161.1 0 222.2v666.7C0 950 50 1000 111.1 1000h777.8c61.1 0 111.1-50 111.1-111.1V222.2c0-61.1-50-111.1-111.1-111.1zm0 777.8H111.1V444.4h777.8v444.5zM288.9 0h-77.8v188.9h77.8V0zm500 0h-77.8v188.9h77.8V0z"/></symbol><symbol id="icon-chevron" viewBox="0 0 55.8 100"><path d="M5.8 100c-1.5 0-3-.6-4.1-1.7-2.3-2.3-2.3-5.9 0-8.2L41.8 50 1.7 9.9C-.6 7.6-.6 4 1.7 1.7 4-.6 7.6-.6 9.9 1.7l44.2 44.2c2.3 2.3 2.3 5.9 0 8.2L9.9 98.3c-1.1 1.1-2.6 1.7-4.1 1.7z"/></symbol><symbol id="icon-cigarette" viewBox="0 225 1000 550"><path d="M965.5 349.7H21.2C9.5 349.7 0 359.2 0 370.9v157.9C0 540.5 9.5 550 21.2 550h944.3c11.7 0 21.2-9.5 21.2-21.2V370.9c0-11.7-9.5-21.2-21.2-21.2zm-672 42.4H870v115.5H293.5V392.1zm650.8 115.5h-31.8V392.1h31.8v115.5zM900.2 126c-15.9-41.6-3.7-91.2 29.7-120.7 8.8-7.8 22.2-6.9 29.9 1.8 7.8 8.8 6.9 22.2-1.8 29.9-20 17.7-27.7 48.8-18.1 73.8 4.9 12.9 14 24.9 23.7 37.6 10.8 14.1 21.9 28.7 29.1 46.7 18.8 47.1.4 106.1-41.8 134.2-3.6 2.4-7.7 3.6-11.8 3.6-6.8 0-13.6-3.3-17.7-9.4-6.5-9.7-3.9-22.9 5.9-29.4 25.7-17.1 37.3-54.5 25.9-83.2-5-12.6-13.9-24.3-23.4-36.7-11-14.5-22.5-29.5-29.6-48.2z"/></symbol><symbol id="icon-circle" viewBox="0 0 40 40"><circle cx="20" cy="20" r="20"/></symbol><symbol id="icon-clock" viewBox="0 0 97.2 97.2"><path d="M48.6 0C21.8 0 0 21.8 0 48.6s21.8 48.6 48.6 48.6 48.6-21.8 48.6-48.6S75.4 0 48.6 0zm0 86.8c-21.1 0-38.2-17.2-38.2-38.2s17.2-38.2 38.2-38.2 38.2 17.2 38.2 38.2-17.1 38.2-38.2 38.2z"/><path d="M73.9 47.1H52.1V20.8c0-2.2-1.8-4-4-4s-4 1.8-4 4v30.3c0 2.2 1.8 4 4 4h25.8c2.2 0 4-1.8 4-4s-1.8-4-4-4z"/></symbol><symbol id="icon-cross" viewBox="0 0 348.3 348.3"><path d="M336.6 68.6L231 174.2l105.5 105.5c15.7 15.7 15.7 41.1 0 56.9-7.8 7.8-18.1 11.8-28.4 11.8-10.3 0-20.6-3.9-28.4-11.8L174.2 231 68.6 336.6c-7.8 7.8-18.1 11.8-28.4 11.8-10.3 0-20.6-3.9-28.4-11.8-15.7-15.7-15.7-41.1 0-56.9l105.5-105.5L11.8 68.6c-15.7-15.7-15.7-41.1 0-56.8 15.7-15.7 41.1-15.7 56.8 0l105.6 105.6L279.7 11.8c15.7-15.7 41.1-15.7 56.8 0 15.8 15.7 15.8 41.1.1 56.8z"/></symbol><symbol id="icon-dishwasher" viewBox="88.8 0 434.4 612"><path d="M118.5 500.3h31.3c1.3.8 2.8 1.3 4.4 1.3 1.6 0 3.1-.5 4.4-1.3h157.9c16.5 0 29.9-14 29.9-31.2V140c0-17.2-13.4-31.2-29.9-31.2h-198c-16.5 0-29.9 14-29.9 31.2v329c-.1 17.3 13.4 31.3 29.9 31.3zM106.9 140c0-7 5.2-12.8 11.6-12.8h198c6.4 0 11.6 5.8 11.6 12.8v329c0 7.1-5.2 12.8-11.6 12.8H163.3V344c0-5.1-4.1-9.2-9.2-9.2s-9.2 4.1-9.2 9.2v137.9h-26.5c-6.4 0-11.6-5.7-11.6-12.8V140h.1z"/><path d="M390.9 0H43.5C19.5 0 0 20.5 0 45.6v520.9C0 591.6 19.5 612 43.5 612h347.4c24 0 43.5-20.5 43.5-45.5V45.6c0-25.1-19.5-45.6-43.5-45.6zM43.5 18.4h347.4c13.9 0 25.2 12.2 25.2 27.2v15.3H18.4V45.6c0-15 11.2-27.2 25.1-27.2zm372.6 60.8v461H18.4v-461h397.7zm-25.2 514.4H43.5c-13.9 0-25.1-12.2-25.1-27.2v-7.8h397.7v7.8c0 15-11.3 27.2-25.2 27.2z"/><circle cx="256.9" cy="218.4" r="17.1"/><circle cx="205.5" cy="172.8" r="17.1"/><circle cx="274" cy="418.2" r="17.1"/></symbol><symbol id="icon-dog" viewBox="0 18.6 538.8 501.6"><path d="M41.4 501.6c43.3 0 26.2-41.2 9.2-51.1-17-27.7 40.4-55.3 50.4-63.9 9.9-8.5 44.7-27.7 42.6-66.7-.7-16.3 75.9 17.7 100 22 24.1 4.3 74.5 3.5 83-5.7s-19.2 140.5 30.5 150.4c49.7 9.9 73.8-9.2 61.7-29.1-12.1-19.9-39-14.9-24.8-68.8s.7-56.1 0-58.9 75.2-77.3 76.6-112.1c1.4-34.8-11.4-92.2 33.3-110.7 44.7-18.4 34.1-42.6 32.6-49-1.4-6.4-49.7-5-49.7-5s-5-23.4-40.4-23.4l-7.1-25.5L425.1 19l-6.9-19s-69.5 88-91.5 129.1c-22 41.2-136.9 52.5-152.6 52.5s-90.8-6.4-63.2-44.7c16.4-12.1 39.7 24.8 41.9 30.5 2.1 5.7 63.9 14.2 33.3-56.8C155.6 39.6 59.8 34 30 90 .3 146.2 45.7 223.5 50.6 227.8c0 0-59.6 58.2-13.5 124.9C47.6 370.2 10.1 391 3 408c-7 17-4.8 93.6 38.4 93.6z"/></symbol><symbol id="icon-electricity" viewBox="0 0 398.528 398.528"><path d="M315.232 9.015C311.882 3.275 305.682 0 298.244 0h-91.308c-10.9 0-22.224 7.113-26.93 16.924L83.17 218.04c-3.162 6.56-2.967 13.52.47 19.038 3.464 5.568 9.593 8.81 16.86 8.966l71.662.902-51.877 129.675c-1.276 3.236-3.96 10.015.82 16.982 2.09 3.056 5.675 4.926 9.365 4.926h.837c7 0 11.217-5.308 13.24-7.868l167.63-210.49c7.152-8.966 4.2-17.013 3.12-19.354-1.122-2.243-5.625-9.592-17.046-9.592h-53.34l69.8-122.985c3.66-6.488 3.863-13.51.522-19.225z"/></symbol><symbol id="icon-facebook-circle" viewBox="0 0 49.7 49.7"><path d="M24.8 0C11.1 0 0 11.1 0 24.8c0 13.7 11.1 24.8 24.8 24.8 13.7 0 24.8-11.1 24.8-24.8C49.7 11.1 38.5 0 24.8 0zM31 25.7h-4v14.4h-6V25.7h-2.8v-5.1H21v-3.3c0-2.4 1.1-6 6-6h4.4v4.9h-3.2c-.5 0-1.2.3-1.2 1.4v3h4.6l-.6 5.1z"/></symbol><symbol id="icon-facebook" viewBox="22.1 0 52 96.1"><path d="M50 0H37.5c-14 0-23.1 9.3-23.1 23.7v10.9H2c-1.1 0-2 .9-2 2v15.8c0 1.1.9 2 2 2h12.5v39.9c0 1.1.9 2 2 2h16.4c1.1 0 2-.9 2-2v-40h14.7c1.1 0 2-.9 2-2V36.5c0-.5-.2-1-.6-1.4s-.9-.6-1.4-.6H34.8v-9.2c0-4.4 1.1-6.7 6.8-6.7H50c1.1 0 2-.9 2-2V2c0-1.1-.9-2-2-2z"/></symbol><symbol id="icon-google-plus-circle" viewBox="0 0 49.7 49.7"><path d="M21.5 28.9c-.2-.1-.3-.2-.5-.3-.5-.2-1-.2-1.6-.2h-.1c-2.5 0-4.7 1.5-4.7 3.3 0 1.9 1.9 3.4 4.3 3.4 3.2 0 4.8-1.1 4.8-3.3 0-.2 0-.4-.1-.6-.2-.9-.9-1.5-2.1-2.3zM19.7 22.4c.6 0 1.1-.2 1.5-.7.6-.7.9-1.9.7-3.1-.3-2.2-1.8-4-3.5-4.1h-.1c-.6 0-1.1.2-1.5.7-.6.7-.9 1.8-.7 3 .4 2.2 2 4.1 3.6 4.2z"/><path d="M24.8 0C11.1 0 0 11.1 0 24.8c0 13.7 11.1 24.8 24.8 24.8 13.7 0 24.8-11.1 24.8-24.8C49.7 11.1 38.5 0 24.8 0zM22 36.9c-.9.3-2 .4-3 .4-1.2 0-2.3-.1-3.4-.4-2.1-.5-3.6-1.5-4.3-2.8-.3-.5-.5-1.1-.5-1.7 0-.6.1-1.3.4-1.9 1.1-2.4 4.1-4 7.4-4h.1c-.3-.5-.4-1-.4-1.5 0-.3 0-.5.1-.8-3.5-.1-6-2.6-6-5.9 0-2.4 1.9-4.6 4.6-5.6.8-.3 1.6-.4 2.4-.4h7.4c.3 0 .5.2.6.4.1.2 0 .5-.2.6l-1.7 1.2c-.1.1-.2.1-.3.1h-.6c.8.9 1.2 2.2 1.2 3.7 0 1.6-.8 3.1-2.3 4.3-1.1.9-1.2 1.1-1.2 1.7 0 .3.8 1.2 1.7 1.8 2.1 1.5 2.8 2.9 2.8 5.3 0 2.5-1.9 4.7-4.8 5.5zm16.6-12.6c0 .3-.3.6-.6.6h-4.2V29c0 .3-.3.6-.6.6H32c-.3 0-.6-.3-.6-.6v-4.2h-4.2c-.3 0-.6-.3-.6-.6V23c0-.3.3-.6.6-.6h4.2v-4.2c0-.3.3-.6.6-.6h1.2c.3 0 .6.3.6.6v4.2H38c.3 0 .6.3.6.6v1.3z"/></symbol><symbol id="icon-google" viewBox="15.5 0 59 90"><path d="M59 0H34.6c-6.4 0-14.4.9-21.2 6.5-5.1 4.4-7.6 10.4-7.6 15.8 0 9.2 7.1 18.5 19.6 18.5 1.2 0 2.5-.1 3.8-.2-.6 1.4-1.2 2.6-1.2 4.6 0 3.7 1.9 5.9 3.5 8-5.3.4-15.2.9-22.6 5.4C2.1 62.8 0 68.9 0 73.1 0 81.8 8.3 90 25.4 90c20.3 0 31.1-11.2 31.1-22.3 0-8.1-4.7-12.2-9.9-16.5l-4.3-3.3c-1.3-1.1-3.1-2.5-3.1-5.1 0-2.6 1.8-4.3 3.3-5.8 5-3.9 9.9-8 9.9-16.8 0-9-5.7-13.7-8.4-15.9h7.3L59 0zM48.6 72.3c0 7.3-6 12.8-17.4 12.8-12.6 0-20.8-6-20.8-14.4S18 59.5 20.6 58.5c5-1.7 11.4-1.9 12.4-1.9 1.2 0 1.8 0 2.7.1 9 6.4 12.9 9.6 12.9 15.6zm-9.5-38.1c-1.9 1.9-5.1 3.3-8 3.3-10.2 0-14.8-13.1-14.8-21 0-3.1.6-6.3 2.6-8.7 1.9-2.4 5.2-3.9 8.3-3.9 9.8 0 14.9 13.2 14.9 21.7 0 2.2-.2 5.9-3 8.6z"/></symbol><symbol id="icon-heart" viewBox="0 0 510 469.2"><style>.st0{fill:#010101}</style><path class="st0" d="M255 469.2l-35.7-35.7C86.7 316.2 0 237.1 0 140.2 0 61.2 61.2 0 140.2 0c43.4 0 86.7 20.4 114.8 53.5C283 20.4 326.4 0 369.8 0 448.8 0 510 61.2 510 140.2c0 96.9-86.7 175.9-219.3 293.2L255 469.2z" id="favorite_1_"/></symbol><symbol id="icon-mail-circle" viewBox="0 0 1000 1000"><path d="M500 1000c-46 0-90.3-6-133-18s-82.5-28.8-119.5-50.5-70.7-47.7-101-78c-30.3-30.3-56.3-64-78-101C46.8 715.5 30 675.7 18 633S0 546 0 500s6-90.3 18-133 28.8-82.5 50.5-119.5 47.7-70.7 78-101 64-56.3 101-78S324.3 30 367 18 454 0 500 0c68.7 0 133.5 13.2 194.5 39.5s114 62 159 107 80.7 98 107 159S1000 431.3 1000 500c0 46-6 90.3-18 133s-28.8 82.5-50.5 119.5-47.7 70.7-78 101c-30.3 30.3-64 56.3-101 78-37 21.7-76.8 38.5-119.5 50.5s-87 18-133 18zm241-706H267c-4.7 0-8.7 1.5-12 4.5-3.3 3-5 7.2-5 12.5v53c0 2.7 1 4 3 4l249 142 2 1c1.3 0 2.3-.3 3-1l241-142c1.3-.7 2.3-1 3-1 .7 0 1.7-.3 3-1 2.7 0 4-1.3 4-4v-51c0-5.3-1.7-9.5-5-12.5s-7.3-4.5-12-4.5zM401 507c.7-.7 1-1.7 1-3 0-2-.7-3-2-3l-143-82c-2-.7-3.7-.7-5 0-1.3 0-2 1-2 3v215c0 2 1 3.3 3 4h2c1.3 0 2-.3 2-1l144-133zm174 16c-.7-2-2.3-2.3-5-1l-55 32c-6.7 4-13.7 4-21 0l-48-27c-2-1.3-3.7-1.3-5 0L258 697c-.7.7-1 2-1 4 0 .7.7 1.7 2 3 4 1.3 6.7 2 8 2h469c1.3 0 2.7-.7 4-2 0-2.7-.3-4.3-1-5L575 523zm180-108h-4l-136 81c-1.3 0-2 1-2 3-.7.7-.3 1.7 1 3l136 147c1.3 1.3 2.3 2 3 2h2c2-2 3-3.3 3-4V419c0-1.3-1-2.7-3-4z"/></symbol><symbol id="icon-parking" viewBox="0 0 44.9 46"><path d="M22.1 15c-1.2 0-1.9.1-2.4.2v7.5c.5.1 1.1.1 1.9.1 3 0 4.9-1.5 4.9-4.1 0-2.3-1.6-3.7-4.4-3.7z"/><path d="M39.5 0H5.4C2.4 0 0 2.4 0 5.4v35.1c0 3 2.4 5.4 5.4 5.4h34.1c3 0 5.4-2.4 5.4-5.4V5.4c0-3-2.4-5.4-5.4-5.4zm2.1 39.6c0 1.6-1.3 3-3 3H6.3c-1.6 0-3-1.3-3-3V6.4c0-1.6 1.3-3 3-3h32.4c1.6 0 3 1.3 3 3l-.1 33.2z"/><path d="M38.6 5.5H6.3c-.5 0-.9.4-.9.9v33.3c0 .5.4.9.9.9h32.4c.5 0 .9-.4.9-.9V6.4c-.1-.5-.5-.9-1-.9zm-8.7 19.1c-2 1.8-4.9 2.7-8.2 2.7-.8 0-1.4 0-2-.1v9.1h-5.6v-25c1.8-.3 4.2-.5 7.7-.5s6 .7 7.7 2c1.6 1.3 2.7 3.4 2.7 5.9 0 2.3-.8 4.4-2.3 5.9z"/></symbol><symbol id="icon-person" viewBox="0 0 355.2 466.1"><path d="M233.8 191.9c28.8-18.5 48-50.8 48-87.7C281.8 46.7 235.2 0 177.6 0 120.1 0 73.4 46.7 73.4 104.2c0 36.8 19.2 69.1 48 87.7C53.5 197.9 0 255.2 0 324.7v108.2l.3 1.7 7.5 2.3C78 458.8 139 466.2 189.2 466.2c98 0 154.9-28 158.4-29.7l7-3.5h.7V324.7c-.1-69.5-53.5-126.7-121.5-132.8z"/></symbol><symbol id="icon-shower" viewBox="0 0 67.1 79.5"><path d="M60.1 36.5H7c0-9 7.3-16.3 16.3-16.3h4.6V0h11.5v20.2H44c8.8 0 16.1 7.3 16.1 16.3zM36.3 43c0-1.5-1.2-2.7-2.7-2.7-1.5 0-2.7 1.2-2.7 2.7 0 1.5 1.2 2.7 2.7 2.7 1.5 0 2.7-1.2 2.7-2.7zm0 22.6c0-1.6-1.2-2.8-2.7-2.8-1.5 0-2.7 1.2-2.7 2.8 0 1.5 1.2 2.7 2.7 2.7 1.5 0 2.7-1.2 2.7-2.7zm0-11.3c0-1.6-1.2-2.7-2.7-2.7-1.5 0-2.7 1.2-2.7 2.7 0 1.5 1.2 2.7 2.7 2.7 1.5 0 2.7-1.2 2.7-2.7zm0 22.5c0-1.5-1.2-2.7-2.7-2.7-1.5 0-2.7 1.2-2.7 2.7 0 1.5 1.2 2.7 2.7 2.7 1.5 0 2.7-1.2 2.7-2.7zm29.1-.5c1.4-.6 2.1-2.1 1.5-3.5v-.1c-.6-1.4-2.1-2.1-3.5-1.5-1.4.5-2.1 2.2-1.5 3.5.4 1.1 1.4 1.7 2.5 1.7.4.1.7 0 1-.1zm-3.7-10.2c1.4-.5 2.1-2.1 1.5-3.5v-.1c-.6-1.4-2.1-2.1-3.5-1.5-1.4.6-2.1 2.2-1.5 3.5.4 1.1 1.4 1.7 2.5 1.7.3 0 .7 0 1-.1zm-4-10.2c1.4-.4 2.2-1.9 1.8-3.4v-.1c-.4-1.4-1.9-2.2-3.4-1.8-1.4.4-2.2 2-1.8 3.4.3 1.2 1.4 1.9 2.6 1.9.3.1.6.1.8 0zm-3.5-10.3c1.4-.5 2.1-2.1 1.5-3.5V42c-.6-1.4-2.1-2.1-3.5-1.5-1.4.6-2.1 2.2-1.5 3.6.4 1.1 1.4 1.7 2.5 1.7.3 0 .7-.1 1-.2zM49.4 78c1.5-.3 2.4-1.7 2.1-3.2v-.1c-.3-1.5-1.7-2.4-3.2-2.1-1.5.3-2.4 1.8-2.1 3.2.3 1.3 1.4 2.2 2.7 2.2.2.1.4.1.5 0zm-1.9-10.7c1.5-.2 2.6-1.5 2.4-3v-.1c-.1-1.5-1.5-2.6-3-2.4-1.5.1-2.6 1.5-2.4 3 .1 1.4 1.3 2.4 2.7 2.4.1.1.2.1.3.1zm-1.4-10.8c1.5-.3 2.4-1.7 2.1-3.2v-.1c-.3-1.5-1.7-2.4-3.2-2.1-1.5.3-2.4 1.7-2.1 3.2.3 1.3 1.4 2.2 2.7 2.2h.5zm-1.7-10.8c1.5-.3 2.4-1.7 2.1-3.2v-.1c-.3-1.5-1.8-2.4-3.2-2.1-1.5.3-2.4 1.7-2.1 3.2.3 1.3 1.4 2.2 2.7 2.2.2.1.3 0 .5 0zM5.2 74.8c.6-1.4-.1-3-1.5-3.5-1.4-.6-3 .1-3.5 1.5-.6 1.4.1 3 1.5 3.5.3.1.7.2 1 .2 1.1 0 2.1-.7 2.5-1.7zM9 64.5c.6-1.4-.1-3-1.5-3.5-1.4-.6-3 .1-3.5 1.5-.6 1.4.1 3 1.5 3.5.3.1.7.2 1 .2 1 0 2-.6 2.5-1.7zm3.8-10.4c.4-1.5-.4-3-1.8-3.4-1.5-.5-3 .4-3.4 1.8-.4 1.5.4 3 1.8 3.4.3.1.5.1.8.1 1.2 0 2.3-.7 2.6-1.9zm3.7-10c.6-1.5-.1-3-1.5-3.6-1.4-.6-3 .1-3.5 1.5-.6 1.4.1 3 1.5 3.5.3.1.7.2 1 .2 1 .1 2-.6 2.5-1.6zm4.4 31.8c.3-1.5-.6-2.9-2.1-3.2-1.5-.3-2.9.7-3.2 2.2-.3 1.5.7 2.9 2.1 3.2.2 0 .4.1.5.1 1.3-.1 2.4-1 2.7-2.3zm1.7-11c.2-1.5-.9-2.8-2.4-3-1.5-.2-2.8 1-3 2.4-.1 1.5.9 2.8 2.4 3h.3c1.4 0 2.6-1 2.7-2.4zm1.6-10.5c.3-1.5-.7-2.9-2.1-3.2-1.4-.3-2.9.7-3.2 2.1-.3 1.5.7 2.9 2.1 3.2.2 0 .4.1.5.1 1.3-.1 2.5-.9 2.7-2.2zm1.7-10.8c.3-1.5-.6-2.9-2.1-3.2-1.4-.3-2.9.7-3.2 2.2-.3 1.5.7 2.9 2.1 3.2.2 0 .4.1.5.1 1.3-.1 2.4-1 2.7-2.3z"/></symbol><symbol id="icon-sofa" viewBox="0 132.9 1000 734.2"><path d="M812.2 734.2c-21.5 0-39-17.5-39-39v-39h39c62.2 0 78-21.2 78-21.2v60.2c0 21.5-17.5 39-39 39h-39zM148.8 734.2c-21.5 0-39-17.5-39-39V635s15.8 21.2 78 21.2h39v39c0 21.5-17.5 39-39 39h-39zM1000 324.4c0-49.8-40.4-90.3-90.3-90.3-38.7 0-71.5 24.5-84.3 58.8l-42.8 95.9c-3.2-2-132.6-42.7-280.2-42.7S220.3 387 217 389.1l-40.5-89.9c-11-37.4-45.2-64.9-86.2-64.9C40.4 234.2 0 274.6 0 324.5c0 41.5 28.2 76.1 66.3 86.6L83 554.7c17.6 60.9 104.8 62.4 104.8 62.4h624.4s87.2-1.5 104.8-62.5L933.7 411c38.1-10.5 66.3-45.1 66.3-86.6z"/><path d="M90.3 187.3c59 0 112 38.9 130.1 95.1l19.7 43.9c38.2-13.8 175.6-27 262.4-27 84.4 0 219.8 12.3 257.3 26l22.4-50.3c20.3-52.5 71.4-87.7 127.6-87.7 4.1 0 8.1.9 12.2 1.2v-.7C922 84.1 837.9 0 734.2 0H265.9C162.2 0 78.1 84.1 78.1 187.8v.7c4.1-.3 8-1.2 12.2-1.2z"/></symbol><symbol id="icon-telephone-circle" viewBox="0 0 485.2 485.2"><path d="M242.6 0C108.6 0 0 108.6 0 242.6s108.6 242.6 242.6 242.6 242.6-108.6 242.6-242.6S376.6 0 242.6 0zm128.1 354l-19.4 19.4c-3.5 3.5-13.6 5.6-13.9 5.6-61.5.5-120.6-23.6-164.1-67.1-43.6-43.6-67.8-103-67.1-164.7 0 0 2.2-9.9 5.7-13.3l19.4-19.4c7.1-7.1 20.8-10.4 30.3-7.2l4.1 1.4c9.5 3.2 19.6 13.7 22.2 23.5l9.8 35.9c2.6 9.7-.9 23.6-8 30.7l-13 13c12.7 47.1 49.7 84.1 96.9 96.9l13-13c7.1-7.1 21-10.7 30.7-8.1l35.9 9.8c9.7 2.7 20.3 12.6 23.5 22.2l1.4 4.1c2.9 9.6-.3 23.2-7.4 30.3z"/></symbol><symbol id="icon-thermometer" viewBox="281.5 0 437.1 1000"><path d="M347.8 85.7c-7.1-16.7-17.2-31.7-30-44.6-12.9-12.9-27.9-23-44.6-30-17.3-7.3-35.7-11-54.6-11s-37.3 3.7-54.6 11c-16.7 7.1-31.7 17.2-44.6 30-12.9 12.9-23 27.9-30 44.6-7.3 17.3-11 35.7-11 54.6v473.6c-20.6 17.3-38 38.3-51 61.9C9.4 707.9 0 744.5 0 781.5c0 29.5 5.8 58.1 17.2 85.1 11 26 26.8 49.4 46.8 69.5 20.1 20.1 43.4 35.8 69.5 46.8 27 11.4 55.6 17.2 85.1 17.2s58.1-5.8 85.1-17.2c26-11 49.4-26.8 69.5-46.8 20.1-20.1 35.8-43.4 46.8-69.5 11.4-27 17.2-55.6 17.2-85.1 0-37-9.4-73.5-27.2-105.7-13-23.5-30.4-44.6-51-61.9V140.3c-.2-18.9-3.9-37.3-11.2-54.6zM391 781.5c0 95.2-77.2 172.4-172.4 172.4S46.1 876.7 46.1 781.5c0-60.5 31.2-113.7 78.3-144.5V140.3c0-52 42.1-94.1 94.1-94.1 52 0 94.1 42.1 94.1 94.1v6.9h-82.9c-12.7 0-23.1 10.3-23.1 23.1 0 12.7 10.3 23.1 23.1 23.1h82.9v46.1h-82.9c-12.7 0-23.1 10.3-23.1 23.1 0 12.7 10.3 23.1 23.1 23.1h82.9v46.1h-82.9c-12.7 0-23.1 10.3-23.1 23.1 0 12.7 10.3 23.1 23.1 23.1h82.9v259c47.2 30.8 78.4 84 78.4 144.5z"/><path d="M293.1 667l-16.3-10.6V470.5c0-32.1-26.1-58.3-58.3-58.3s-58.3 26.1-58.3 58.3v185.9L144 667c-38.8 25.4-62 68.1-62 114.4 0 36.5 14.2 70.8 40 96.5 25.8 25.8 60.1 40 96.5 40s70.8-14.2 96.5-40c25.8-25.8 40-60.1 40-96.5.1-46.2-23.1-89-61.9-114.4z"/></symbol><symbol id="icon-tick-alt" viewBox="0 34.3 490.4 421.9"><path d="M472 24.1l-13.1-11.3c-21.8-18.7-54.6-16.6-73.8 4.7L165.4 261.1 99.1 204c-21.8-18.8-54.5-16.7-73.8 4.6l-11.6 12.8C4.3 231.8-.6 245.5.1 259.6c.7 14 7 27.2 17.4 36.6L139 407.5c10.5 9.9 24.6 15 39 14.3 14.4-.8 27.9-7.4 37.3-18.3L477.6 98.7c9.2-10.6 13.7-24.5 12.7-38.5-1.1-14-7.6-27-18.3-36.1z"/></symbol><symbol id="icon-tick" viewBox="0 0 510 510"><path d="M255 0C114.8 0 0 114.8 0 255s114.8 255 255 255 255-114.8 255-255S395.2 0 255 0zm-51 382.5L76.5 255l35.7-35.7 91.8 91.8 193.8-193.8 35.7 35.7L204 382.5z"/></symbol><symbol id="icon-toilet" viewBox="36.6 0 926.8 1000"><path d="M286.2 33.3c0-18.4-14.9-33.3-33.3-33.3H33.3C14.9 0 0 14.9 0 33.3v500.4c0 8.5 6.9 15.4 15.4 15.4h255.3c8.5 0 15.4-6.9 15.4-15.4l.1-500.4zM911.4 549.1c8.5 0 15.4-6.9 15.4-15.4v-116c0-18.4-14.9-33.3-33.3-33.3H368.2c-8.5 0-15.4 6.9-15.4 15.4v133.8c0 8.5 6.9 15.4 15.4 15.4h543.2zM15.4 615.6C6.9 615.6 0 622.5 0 631v335.6c0 18.4 14.9 33.3 33.3 33.3h329.5c12.6 0 24.1-7.1 29.8-18.4l45.7-91.4h199.1c159.6 0 289.5-113.5 289.5-252.9V631c0-8.5-6.9-15.4-15.4-15.4H15.4z"/></symbol><symbol id="icon-tv" viewBox="0 50.6 612 510.8"><path d="M578.8.9V0H32.9v.9C15.3 2.1 2.1 16.2 0 33.2v358.7c0 6.9 1.8 12.7 4.8 17.9 6.9 12.1 17.1 18.3 31.1 18.3h197v49.7h-37.4c-9.3 0-16.5 7.2-16.5 16.5s7.2 16.5 16.5 16.5h220.7c9.3 0 16.8-7.2 16.8-16.5s-7.5-16.5-16.8-16.5h-37.4v-49.7h197c14.1 0 24.3-6.1 31.1-18.3 3.1-5.5 5.1-11.4 5.1-17.9V33.2c-2.1-17-16.2-31.1-33.2-32.3zm0 35.3v355.7c0 2.1-.9 3-3 3H35.9c-2.1 0-3-.9-3-3V33.2h545.8l.1 3z"/></symbol><symbol id="icon-twitter-circle" viewBox="0 0 49.7 49.7"><path d="M24.8 0C11.1 0 0 11.1 0 24.8c0 13.7 11.1 24.8 24.8 24.8 13.7 0 24.8-11.1 24.8-24.8C49.7 11.1 38.5 0 24.8 0zm11.1 19.1v.7c0 7.6-5.7 16.3-16.3 16.3-3.2 0-6.2-.9-8.8-2.6.4.1.9.1 1.4.1 2.7 0 5.1-.9 7.1-2.4-2.5 0-4.6-1.7-5.3-4 .3.1.7.1 1.1.1.5 0 1-.1 1.5-.2-2.6-.5-4.6-2.8-4.6-5.6v-.1c.8.4 1.7.7 2.6.7-1.5-1-2.5-2.8-2.5-4.8 0-1 .3-2 .8-2.9 2.8 3.5 7 5.7 11.8 6-.1-.4-.1-.9-.1-1.3 0-3.2 2.6-5.7 5.7-5.7 1.6 0 3.1.7 4.2 1.8 1.3-.3 2.5-.7 3.6-1.4-.4 1.3-1.3 2.5-2.5 3.2 1.2-.1 2.3-.4 3.3-.9-.9 1.2-1.9 2.2-3 3z"/></symbol><symbol id="icon-washing-machine" viewBox="66.8 0 487.6 621.3"><path d="M285.1 402.3c-23.8 38.8-70.7 32-85.7 1.4-39.5 42.9-71.6-1.4-71.6-1.4 7.2 57.2 56 101.4 115.1 101.4 60.1 0 109.5-45.6 115.4-104.2.1-.1-52.8 30.6-73.2 2.8z"/><path d="M243.1 531.9c-75.9 0-137.5-61.5-137.5-137.5 0-75.9 61.5-137.5 137.5-137.5 75.9 0 137.5 61.6 137.5 137.5 0 76-61.6 137.5-137.5 137.5zM0 177.5V605c0 9 7.6 16.3 17 16.3h453.6c9.4 0 17-7.3 17-16.3V177.5H0zM170.2 97.5c-13.5 0-24.4-10.9-24.4-24.4 0-13.5 10.9-24.4 24.4-24.4 13.5 0 24.4 10.9 24.4 24.4 0 13.5-10.9 24.4-24.4 24.4zm-80.5 0c-13.5 0-24.4-10.9-24.4-24.4 0-13.5 10.9-24.4 24.4-24.4 13.5 0 24.4 10.9 24.4 24.4 0 13.5-10.9 24.4-24.4 24.4zM470.6 0H17C7.6 0 0 7.9 0 17.6v128.7h487.6V17.6c0-9.7-7.6-17.6-17-17.6z"/></symbol><symbol id="icon-water" viewBox="57.3 0 268.7 383.3"><path d="M215.9 106.9c-27.2-44.9-57.4-83.7-73-102.8-2.1-2.6-5.2-4.1-8.5-4.1s-6.4 1.5-8.5 4.1c-15.6 19.2-45.8 58-73 102.9C17.8 164.7 0 212.6 0 249c0 74.1 60.3 134.3 134.3 134.3S268.7 323.1 268.7 249c0-36.5-17.8-84.3-52.8-142.1zm-63.1 227c-7.8 2-16 3-24.2 3-50.2 0-91-37.9-91-84.6 0-11.3 3-24.4 8.8-39.1 1-2.5 3.8-3.9 6.6-3.3 2.8.6 4.6 3 4.4 5.6-.3 3.1-.5 6.2-.5 9.1 0 50.7 40.9 93.2 95.1 98.8 2.7.3 4.8 2.3 5 4.8.1 2.7-1.6 5-4.2 5.7z"/></symbol><symbol id="icon-wheelchair" viewBox="33.1 0 933.8 1000"><path d="M271.6 138.7c-5.3-12.1-8-25.3-8-39.5 0-13.5 2.7-26.3 8-38.4 5.3-12.1 12.5-22.6 21.3-31.5 8.9-8.9 19.4-16 31.5-21.3 12.1-5.3 25.3-8 39.5-8 13.5 0 26.3 2.7 38.4 8 12.1 5.3 22.8 12.5 32 21.3s16.4 19.4 21.3 31.5 7.5 24.9 7.5 38.4c0 27.7-9.6 51.4-28.8 71s-42.7 29.3-70.4 29.3c-14.2 0-27.4-2.7-39.5-8s-22.6-12.5-31.5-21.3c-8.8-8.9-16-19.4-21.3-31.5zm387.9 546.5c-12.1-2.8-22.9-1.1-32.5 5.3s-15.8 15.3-18.7 26.7c-2.1 10.7-5.3 21-9.6 30.9-9.2 24.9-22.2 47.7-39 68.3-16.7 20.6-35.9 38.4-57.6 53.4-21.7 14.9-45.5 26.5-71.5 34.7-26 8.2-52.8 12.3-80.6 12.3-36.3 0-70.4-6.8-102.5-20.3-32-13.5-59.9-31.7-83.8-54.4-23.8-22.8-42.7-49.6-56.6-80.6-13.9-30.9-20.8-64.2-20.8-99.8 0-26.3 4.1-51.8 12.3-76.3 8.2-24.5 19.7-47.3 34.7-68.3 14.9-21 32.7-39.5 53.4-55.5 20.6-16 43.8-29 69.4-39 11.4-3.6 19.6-10.7 24.5-21.3s5.3-21.3 1.1-32c-4.3-10.7-11.9-18.3-22.9-22.9-11-4.6-22.2-5.2-33.6-1.6-33.4 12.8-64 29.9-91.8 51.2-27.7 21.3-51.6 45.9-71.5 73.6s-35.2 58-45.9 90.7C5.3 593 0 626.8 0 661.7c0 47 9.2 90.9 27.7 131.8 18.5 40.9 43.6 76.7 75.2 107.3 31.7 30.6 68.7 54.8 111 72.6 42.3 17.8 87.7 26.7 136.1 26.7 37 0 72.6-5.3 106.7-16 34.1-10.7 65.8-25.8 95-45.4 29.2-19.6 54.8-43.2 76.8-71 22.1-27.7 39.1-58.3 51.2-91.8 5-12.1 9.2-25.6 12.8-40.6 2.8-12.1 1.1-22.8-5.3-32-6.3-9.2-15.6-15.3-27.7-18.1zm269 163.3L765.2 564.6c-5.7-12.1-14.2-21.7-25.6-28.8-11.4-7.1-24.2-10.7-38.4-10.7H519.7l-21.3-104.6h141.9c8.5.7 16.7-.7 24.5-4.3 7.8-3.6 13.9-9.2 18.1-17.1 5.7-10 6.9-20.6 3.7-32-3.2-11.4-10.1-19.9-20.8-25.6-5.7-3.6-12.1-5.3-19.2-5.3H480.2l-9.6-49.1c0-1.4-.2-2.3-.5-2.7-.4-.4-.5-1.2-.5-2.7l-1.1-3.2c-5-16.4-14.4-29.9-28.3-40.6s-30.1-16-48.6-16c-22.8 0-42 7.6-57.6 22.9-15.7 15.3-23.5 33.6-23.5 55 0 3.6.4 6.4 1.1 8.5h-1.1l58.7 282.8c2.8 16.4 10.7 29.7 23.5 40s27.7 15.5 44.8 15.5c5 0 8.9-.4 11.7-1.1h242.3L832.4 891c4.3 9.2 10.7 16.7 19.2 22.4 8.5 5.7 18.5 8.5 29.9 8.5 14.2 0 26.5-5 36.8-14.9 10.3-10 15.5-22.1 15.5-36.3 0-7.7-1.8-15.1-5.3-22.2z"/></symbol><symbol id="icon-wifi" viewBox="0 82.4 612 447.1"><path d="M306 335.3c-30.9 0-55.9 25-55.9 55.9 0 30.8 25 55.9 55.9 55.9s55.9-25 55.9-55.9c0-30.8-25.1-55.9-55.9-55.9zm299.4-195.4C530.7 51 421.5 0 306 0S81.3 51 6.6 139.9c-9.9 11.8-8.4 29.4 3.4 39.4 5.2 4.4 11.6 6.6 17.9 6.6 8 0 15.9-3.4 21.4-10C113.4 99.6 207 55.9 306 55.9s192.6 43.7 256.7 120c5.5 6.6 13.5 10 21.4 10 6.4 0 12.7-2.1 18-6.6 11.7-9.9 13.3-27.6 3.3-39.4zM306 111.8c-82.5 0-160.5 36.4-213.9 99.9-9.9 11.8-8.4 29.4 3.4 39.4 5.2 4.4 11.6 6.6 18 6.6 8 0 15.9-3.4 21.4-10 42.7-50.8 105.1-80 171.1-80s128.4 29.2 171.1 80c5.5 6.6 13.5 10 21.4 10 6.4 0 12.7-2.1 18-6.6 11.8-9.9 13.4-27.6 3.4-39.4-53.4-63.5-131.4-99.9-213.9-99.9zm0 111.7c-49.6 0-96.3 21.9-128.3 59.9-9.9 11.8-8.4 29.4 3.4 39.4 5.2 4.4 11.6 6.6 18 6.6 8 0 15.9-3.4 21.4-10 21.4-25.4 52.6-40 85.5-40s64.2 14.6 85.5 40c5.5 6.6 13.5 10 21.4 10 6.4 0 12.7-2.1 18-6.6 11.8-9.9 13.4-27.6 3.4-39.4-32-38-78.8-59.9-128.3-59.9z"/></symbol></svg>