<svg xmlns="http://www.w3.org/2000/svg" width="100" height="16.8" viewBox="0 0 100 16.8"><g fill="#FFF"><path d="M11.6 16.6H10L7.7 8.4c-.1-.4-.2-.8-.2-1.3-.2.5-.2.9-.3 1.3l-2.3 8.2H3.3L0 5.2h1.9l2 8.2c.1.2.2.8.2 1.4.1-.5.2-1.2.3-1.4l2.3-8.2h1.6l2.2 8.2c.1.5.2.8.3 1.4.1-.6.1-.9.3-1.4l2-8.2h1.7l-3.2 11.4zM20.4 16.8c-2.7 0-4.3-1.2-4.3-3.4 0-2.7 2.7-3.8 6.4-4.2v-.7c0-1.6-.8-2.3-2.4-2.3-1 0-2.1.3-2.8.7l-.4-1.1c.8-.5 2.1-.8 3.4-.8 2.5 0 4 1.2 4 3.7V16c-1 .5-2.4.8-3.9.8zm2.1-6.6c-2.9.3-4.6 1.1-4.6 3.1 0 1.5.9 2.4 2.7 2.4.7 0 1.4-.1 1.9-.4v-5.1zM29.6 16.8c-1.1 0-2.3-.3-3.1-.8l.5-1.2c.7.4 1.5.7 2.3.7 1.3 0 2.2-.8 2.2-2 0-2.8-4.8-1.7-4.8-5.4 0-1.8 1.4-3.1 3.5-3.1 1.1 0 2.1.3 2.8.8l-.5 1.1c-.6-.4-1.4-.7-2.1-.7-1.3 0-1.9.8-1.9 1.8 0 2.6 4.9 1.5 4.9 5.4.1 1.9-1.4 3.4-3.8 3.4zM39.9 16.8c-2.7 0-4.3-1.2-4.3-3.4 0-2.7 2.7-3.8 6.4-4.2v-.7c0-1.6-.8-2.3-2.4-2.3-1 0-2.1.3-2.8.7l-.4-1.1c.8-.5 2.1-.8 3.4-.8 2.5 0 4 1.2 4 3.7V16c-1 .5-2.3.8-3.9.8zm2.1-6.6c-2.9.3-4.6 1.1-4.6 3.1 0 1.5.9 2.4 2.7 2.4.7 0 1.4-.1 1.9-.4v-5.1zM50.1 16.8c-1.4 0-2.6-.4-3.4-.8V0h1.8v5.5c.7-.3 1.5-.5 2.3-.5 2.7 0 4.5 2.2 4.5 5.6 0 3.7-1.8 6.2-5.2 6.2zm.3-10.7c-.7 0-1.3.2-1.8.4v8.8c.4.2 1 .3 1.6.3 2.3 0 3.3-2 3.3-4.8s-1.2-4.7-3.1-4.7zM58.9 3c-.6 0-1.1-.5-1.1-1S58.3.9 58.9.9c.6 0 1.1.5 1.1 1S59.5 3 58.9 3zM58 16.6V5.2h1.9v11.4H58zM74.4 16.6H72l-2-7.3c0-.4-.1-.9-.2-1.3-.1.5-.1.9-.3 1.4l-1.9 7.3h-2.3L62 5.2h2.6l1.6 7.4c.1.5.2.9.2 1.5.1-.6.2-1.1.3-1.5l2-7.4H71l1.9 7.4c.1.4.2.8.3 1.5.1-.7.1-1.2.2-1.5l1.7-7.4h2.3l-3 11.4zM81.4 11.8c.2 2 1.3 3.2 3.2 3.2 1 0 2.2-.3 2.8-.7L88 16c-.9.5-2.3.8-3.8.8-3.4 0-5.4-2.4-5.4-6s1.9-5.8 5-5.8c3 0 4.6 1.9 4.6 5.5v.4l-7 .9zm2.3-5.3c-1.6 0-2.4 1.5-2.4 3.8v.2l4.7-.7c-.1-2.1-.8-3.3-2.3-3.3zM94.5 16.8c-1.5 0-2.9-.3-3.7-.8V0h2.6v5.5c.5-.3 1.2-.5 2-.5 2.8 0 4.6 2.2 4.6 5.6 0 3.8-2 6.2-5.5 6.2zm.3-10.3c-.5 0-1.1.1-1.5.3V15c.3.1.8.2 1.3.2 2 0 2.8-1.8 2.8-4.4 0-2.7-.9-4.3-2.6-4.3z"/></g></svg>