<?xml version="1.0" ?><svg height="40" id="svg9844" version="1.1" viewBox="0 0 60.000001 60.000001" width="40" xmlns="http://www.w3.org/2000/svg" xmlns:cc="http://creativecommons.org/ns#" xmlns:dc="http://purl.org/dc/elements/1.1/" xmlns:inkscape="http://www.inkscape.org/namespaces/inkscape" xmlns:rdf="http://www.w3.org/1999/02/22-rdf-syntax-ns#" xmlns:sodipodi="http://sodipodi.sourceforge.net/DTD/sodipodi-0.dtd" xmlns:svg="http://www.w3.org/2000/svg"><defs id="defs9846"/><g id="layer1" transform="translate(0,-992.36216)"><path d="m 44.02905,1015.4923 c -0.3558,-1.5456 -1.62,-2.6859 -3.1419,-2.856 -3.6036,-0.4023 -7.2516,-0.4044 -10.882501,-0.4023 -3.6315,0 -7.2798,0 -10.8837,0.4023 -1.521,0.1701 -2.7843,1.3104 -3.1401,2.856 -0.5064,2.2011 -0.5121,4.6038 -0.5121,6.87 0,2.2662 0,4.6686 0.5064,6.8697 0.3552,1.5453 1.6188,2.6856 3.1407,2.8557 3.6036,0.4026 7.2516,0.4047 10.8831,0.4026 3.632101,0 7.279201,0 10.882501,-0.4026 1.521,-0.1701 2.7855,-1.3104 3.1413,-2.8557 0.5067,-2.2011 0.5085,-4.6035 0.5085,-6.8697 0,-2.2662 0.0039,-4.6689 -0.5022,-6.87 z m -17.779501,11.3808 c 0,-3.2145 0,-6.396 0,-9.6111 3.0801,1.6071 6.140101,3.2034 9.239401,4.8204 -3.0903,1.6026 -6.151201,3.1893 -9.239401,4.7907 z" id="path9206" style="clip-rule:evenodd;fill:#ffffff;fill-opacity:1;fill-rule:evenodd"/><circle cx="30" cy="1022.3622" id="path9266-42" r="30" style="opacity:0.19100001;fill:#cccccc;fill-opacity:1;stroke:none;stroke-width:4.51399994;stroke-miterlimit:4;stroke-dasharray:none;stroke-opacity:1"/></g></svg>