<?xml version="1.0" encoding="UTF-8" standalone="no"?>
<svg width="51px" height="51px" viewBox="0 0 51 51" version="1.1" xmlns="http://www.w3.org/2000/svg" xmlns:xlink="http://www.w3.org/1999/xlink" xmlns:sketch="http://www.bohemiancoding.com/sketch/ns">
    <!-- Generator: Sketch 3.3 (11970) - http://www.bohemiancoding.com/sketch -->
    <title>youtube-color</title>
    <desc>Created with Sketch.</desc>
    <defs></defs>
    <g id="front-page" stroke="none" stroke-width="1" fill="none" fill-rule="evenodd" sketch:type="MSPage">
        <g id="social-media-icons" sketch:type="MSLayerGroup" transform="translate(-227.000000, -77.000000)" fill="#CF3427">
            <path d="M259.977842,108.616667 C259.746176,108.616667 259.579509,108.681667 259.477842,108.82 C259.377009,108.95 259.327842,109.173333 259.327842,109.483333 L259.327842,110.23 L260.613676,110.23 L260.613676,109.483333 C260.613676,109.173333 260.562009,108.95 260.459509,108.82 C260.362842,108.681667 260.198676,108.616667 259.977842,108.616667 L259.977842,108.616667 Z M254.962842,108.590833 C255.157842,108.590833 255.310342,108.654167 255.416176,108.7825 C255.518676,108.910833 255.570342,109.101667 255.570342,109.350833 L255.570342,113.170833 C255.570342,113.409167 255.526176,113.576667 255.442842,113.68 C255.359509,113.785833 255.229509,113.8375 255.051176,113.8375 C254.927842,113.8375 254.812009,113.81 254.700342,113.7575 C254.587842,113.705833 254.472009,113.615 254.354509,113.496667 L254.354509,108.8875 C254.453676,108.785833 254.553676,108.71 254.654509,108.661667 C254.755342,108.6125 254.857842,108.590833 254.962842,108.590833 L254.962842,108.590833 Z M259.328676,111.381667 L259.328676,112.775 C259.328676,113.165 259.376176,113.435 259.470342,113.586667 C259.568676,113.7375 259.731176,113.810833 259.963676,113.810833 C260.204509,113.810833 260.372842,113.7475 260.468676,113.62 C260.563676,113.4925 260.614509,113.2125 260.614509,112.775833 L260.614509,112.438333 L262.110342,112.438333 L262.110342,112.818333 C262.110342,113.5775 261.929509,114.148333 261.562842,114.534167 C261.200342,114.916667 260.655342,115.106667 259.931176,115.106667 C259.280342,115.106667 258.766176,114.905 258.392009,114.4975 C258.018676,114.0925 257.828676,113.533333 257.828676,112.819167 L257.828676,109.4975 C257.828676,108.8575 258.036176,108.3325 258.447009,107.929167 C258.857842,107.525 259.387009,107.323333 260.039509,107.323333 C260.705342,107.323333 261.217009,107.510833 261.575342,107.885 C261.932842,108.258333 262.110342,108.795833 262.110342,109.4975 L262.110342,111.384167 L259.328676,111.384167 L259.328676,111.381667 Z M256.724509,114.579167 C256.498676,114.859167 256.167009,114.996667 255.735342,114.996667 C255.449509,114.996667 255.197009,114.945 254.975342,114.836667 C254.752842,114.729167 254.542842,114.564167 254.353676,114.335833 L254.353676,114.903333 L252.883676,114.903333 L252.883676,104.876667 L254.353676,104.876667 L254.353676,108.105833 C254.551176,107.880833 254.757842,107.7075 254.977009,107.591667 C255.199509,107.473333 255.422009,107.415833 255.647842,107.415833 C256.109509,107.415833 256.460342,107.573333 256.702009,107.886667 C256.947009,108.2025 257.067009,108.664167 257.067009,109.27 L257.067009,113.375 C257.067009,113.898333 256.952842,114.299167 256.724509,114.579167 L256.724509,114.579167 Z M250.337009,114.903333 L250.337009,114.09 C250.066176,114.390833 249.788676,114.62 249.496176,114.775 C249.205342,114.934167 248.924509,115.01 248.651176,115.01 C248.313676,115.01 248.063676,114.9025 247.890342,114.68 C247.722842,114.458333 247.636176,114.131667 247.636176,113.689167 L247.636176,107.504167 L249.089509,107.504167 L249.089509,113.178333 C249.089509,113.354167 249.120342,113.48 249.178676,113.559167 C249.242842,113.638333 249.342009,113.676667 249.477009,113.676667 C249.583676,113.676667 249.720342,113.625 249.883676,113.52 C250.047842,113.415833 250.196176,113.284167 250.335342,113.124167 L250.335342,107.504167 L251.788676,107.504167 L251.788676,114.9025 L250.337009,114.9025 L250.337009,114.903333 Z M245.302009,106.333333 L245.302009,114.903333 L243.662009,114.903333 L243.662009,106.333333 L241.967009,106.333333 L241.967009,104.876667 L246.997009,104.876667 L246.997009,106.333333 L245.302009,106.333333 L245.302009,106.333333 Z M252.033676,101.648333 C252.033676,101.6475 262.100342,101.663333 263.295342,102.856667 C264.494509,104.0525 264.507842,109.951667 264.507842,109.985833 C264.507842,109.985833 264.497842,115.916667 263.295342,117.115833 C262.100342,118.3075 252.033676,118.333333 252.033676,118.333333 C252.033676,118.333333 241.967842,118.3075 240.770342,117.115 C239.572009,115.919167 239.569509,110.03 239.569509,109.985 C239.569509,109.950833 239.572842,104.051667 240.770342,102.855833 C241.968676,101.663333 252.033676,101.6475 252.033676,101.648333 L252.033676,101.648333 Z M259.972009,98.5458333 L258.333676,98.5458333 L258.333676,97.6458333 C258.035342,97.9766667 257.720342,98.2316667 257.392009,98.4033333 C257.065342,98.5766667 256.749509,98.6633333 256.442009,98.6633333 C256.060342,98.6633333 255.777842,98.5416667 255.586176,98.2991667 C255.395342,98.0566667 255.298676,97.6933333 255.298676,97.2066667 L255.298676,90.3966667 L256.933676,90.3966667 L256.933676,96.6441667 C256.933676,96.8366667 256.971176,96.9766667 257.039509,97.0625 C257.106176,97.1491667 257.219509,97.1925 257.372009,97.1925 C257.491176,97.1925 257.644509,97.135 257.828676,97.0208333 C258.012009,96.9066667 258.181176,96.7608333 258.332842,96.5816667 L258.332842,90.3966667 L259.971176,90.3966667 L259.971176,98.5458333 L259.972009,98.5458333 Z M251.077842,97.1566667 C251.193676,97.2791667 251.360342,97.3391667 251.577842,97.3391667 C251.799509,97.3391667 251.974509,97.2766667 252.106176,97.1533333 C252.237009,97.0266667 252.302009,96.855 252.302009,96.6383333 L252.302009,92.1991667 C252.302009,92.0208333 252.235342,91.8766667 252.101176,91.7666667 C251.967842,91.6575 251.792842,91.6033333 251.577842,91.6033333 C251.377009,91.6033333 251.215342,91.6575 251.089509,91.7666667 C250.966176,91.8766667 250.902009,92.0208333 250.902009,92.1991667 L250.902009,96.6383333 C250.902009,96.8608333 250.962009,97.0325 251.077842,97.1566667 L251.077842,97.1566667 Z M249.878676,90.7525 C250.318676,90.3783333 250.912842,90.1908333 251.655342,90.1908333 C252.332009,90.1908333 252.888676,90.3883333 253.322842,90.7833333 C253.753676,91.1775 253.970342,91.6858333 253.970342,92.3066667 L253.970342,96.5158333 C253.970342,97.2125 253.757842,97.7583333 253.335342,98.1558333 C252.907842,98.5525 252.325342,98.7508333 251.580342,98.7508333 C250.865342,98.7508333 250.291176,98.5458333 249.860342,98.1375 C249.432842,97.7275 249.217009,97.1766667 249.217009,96.4841667 L249.217009,92.2608333 C249.216176,91.6283333 249.436176,91.1258333 249.878676,90.7525 L249.878676,90.7525 Z M244.757009,87.5 L242.899509,87.5 L245.094509,94.1691667 L245.094509,98.5458333 L246.938676,98.5458333 L246.938676,93.9625 L249.083676,87.5 L247.208676,87.5 L246.070342,91.915 L245.954509,91.915 L244.757009,87.5 L244.757009,87.5 Z M252.038676,127.5 C238.232009,127.5 227.038676,116.306667 227.038676,102.5 C227.038676,88.6925 238.232009,77.5 252.038676,77.5 C265.845342,77.5 277.038676,88.6925 277.038676,102.5 C277.038676,116.306667 265.845342,127.5 252.038676,127.5 L252.038676,127.5 Z" id="youtube-color" sketch:type="MSShapeGroup"></path>
        </g>
    </g>
</svg>