<?xml version="1.0" encoding="UTF-8" standalone="no"?>
<svg width="51px" height="51px" viewBox="0 0 51 51" version="1.1" xmlns="http://www.w3.org/2000/svg" xmlns:xlink="http://www.w3.org/1999/xlink" xmlns:sketch="http://www.bohemiancoding.com/sketch/ns">
    <!-- Generator: Sketch 3.3 (11970) - http://www.bohemiancoding.com/sketch -->
    <title>youtube-black</title>
    <desc>Created with Sketch.</desc>
    <defs></defs>
    <g id="front-page" stroke="none" stroke-width="1" fill="none" fill-rule="evenodd" sketch:type="MSPage">
        <g id="social-media-icons" sketch:type="MSLayerGroup" transform="translate(-227.000000, 0.000000)" fill="#232323">
            <path d="M259.977842,31.6166667 C259.746176,31.6166667 259.579509,31.6816667 259.477842,31.82 C259.377009,31.95 259.327842,32.1733333 259.327842,32.4833333 L259.327842,33.23 L260.613676,33.23 L260.613676,32.4833333 C260.613676,32.1733333 260.562009,31.95 260.459509,31.82 C260.362842,31.6816667 260.198676,31.6166667 259.977842,31.6166667 L259.977842,31.6166667 Z M254.962842,31.5908333 C255.157842,31.5908333 255.310342,31.6541667 255.416176,31.7825 C255.518676,31.9108333 255.570342,32.1016667 255.570342,32.3508333 L255.570342,36.1708333 C255.570342,36.4091667 255.526176,36.5766667 255.442842,36.68 C255.359509,36.7858333 255.229509,36.8375 255.051176,36.8375 C254.927842,36.8375 254.812009,36.81 254.700342,36.7575 C254.587842,36.7058333 254.472009,36.615 254.354509,36.4966667 L254.354509,31.8875 C254.453676,31.7858333 254.553676,31.71 254.654509,31.6616667 C254.755342,31.6125 254.857842,31.5908333 254.962842,31.5908333 L254.962842,31.5908333 Z M259.328676,34.3816667 L259.328676,35.775 C259.328676,36.165 259.376176,36.435 259.470342,36.5866667 C259.568676,36.7375 259.731176,36.8108333 259.963676,36.8108333 C260.204509,36.8108333 260.372842,36.7475 260.468676,36.62 C260.563676,36.4925 260.614509,36.2125 260.614509,35.7758333 L260.614509,35.4383333 L262.110342,35.4383333 L262.110342,35.8183333 C262.110342,36.5775 261.929509,37.1483333 261.562842,37.5341667 C261.200342,37.9166667 260.655342,38.1066667 259.931176,38.1066667 C259.280342,38.1066667 258.766176,37.905 258.392009,37.4975 C258.018676,37.0925 257.828676,36.5333333 257.828676,35.8191667 L257.828676,32.4975 C257.828676,31.8575 258.036176,31.3325 258.447009,30.9291667 C258.857842,30.525 259.387009,30.3233333 260.039509,30.3233333 C260.705342,30.3233333 261.217009,30.5108333 261.575342,30.885 C261.932842,31.2583333 262.110342,31.7958333 262.110342,32.4975 L262.110342,34.3841667 L259.328676,34.3841667 L259.328676,34.3816667 Z M256.724509,37.5791667 C256.498676,37.8591667 256.167009,37.9966667 255.735342,37.9966667 C255.449509,37.9966667 255.197009,37.945 254.975342,37.8366667 C254.752842,37.7291667 254.542842,37.5641667 254.353676,37.3358333 L254.353676,37.9033333 L252.883676,37.9033333 L252.883676,27.8766667 L254.353676,27.8766667 L254.353676,31.1058333 C254.551176,30.8808333 254.757842,30.7075 254.977009,30.5916667 C255.199509,30.4733333 255.422009,30.4158333 255.647842,30.4158333 C256.109509,30.4158333 256.460342,30.5733333 256.702009,30.8866667 C256.947009,31.2025 257.067009,31.6641667 257.067009,32.27 L257.067009,36.375 C257.067009,36.8983333 256.952842,37.2991667 256.724509,37.5791667 L256.724509,37.5791667 Z M250.337009,37.9033333 L250.337009,37.09 C250.066176,37.3908333 249.788676,37.62 249.496176,37.775 C249.205342,37.9341667 248.924509,38.01 248.651176,38.01 C248.313676,38.01 248.063676,37.9025 247.890342,37.68 C247.722842,37.4583333 247.636176,37.1316667 247.636176,36.6891667 L247.636176,30.5041667 L249.089509,30.5041667 L249.089509,36.1783333 C249.089509,36.3541667 249.120342,36.48 249.178676,36.5591667 C249.242842,36.6383333 249.342009,36.6766667 249.477009,36.6766667 C249.583676,36.6766667 249.720342,36.625 249.883676,36.52 C250.047842,36.4158333 250.196176,36.2841667 250.335342,36.1241667 L250.335342,30.5041667 L251.788676,30.5041667 L251.788676,37.9025 L250.337009,37.9025 L250.337009,37.9033333 Z M245.302009,29.3333333 L245.302009,37.9033333 L243.662009,37.9033333 L243.662009,29.3333333 L241.967009,29.3333333 L241.967009,27.8766667 L246.997009,27.8766667 L246.997009,29.3333333 L245.302009,29.3333333 L245.302009,29.3333333 Z M252.033676,24.6483333 C252.033676,24.6475 262.100342,24.6633333 263.295342,25.8566667 C264.494509,27.0525 264.507842,32.9516667 264.507842,32.9858333 C264.507842,32.9858333 264.497842,38.9166667 263.295342,40.1158333 C262.100342,41.3075 252.033676,41.3333333 252.033676,41.3333333 C252.033676,41.3333333 241.967842,41.3075 240.770342,40.115 C239.572009,38.9191667 239.569509,33.03 239.569509,32.985 C239.569509,32.9508333 239.572842,27.0516667 240.770342,25.8558333 C241.968676,24.6633333 252.033676,24.6475 252.033676,24.6483333 L252.033676,24.6483333 Z M259.972009,21.5458333 L258.333676,21.5458333 L258.333676,20.6458333 C258.035342,20.9766667 257.720342,21.2316667 257.392009,21.4033333 C257.065342,21.5766667 256.749509,21.6633333 256.442009,21.6633333 C256.060342,21.6633333 255.777842,21.5416667 255.586176,21.2991667 C255.395342,21.0566667 255.298676,20.6933333 255.298676,20.2066667 L255.298676,13.3966667 L256.933676,13.3966667 L256.933676,19.6441667 C256.933676,19.8366667 256.971176,19.9766667 257.039509,20.0625 C257.106176,20.1491667 257.219509,20.1925 257.372009,20.1925 C257.491176,20.1925 257.644509,20.135 257.828676,20.0208333 C258.012009,19.9066667 258.181176,19.7608333 258.332842,19.5816667 L258.332842,13.3966667 L259.971176,13.3966667 L259.971176,21.5458333 L259.972009,21.5458333 Z M251.077842,20.1566667 C251.193676,20.2791667 251.360342,20.3391667 251.577842,20.3391667 C251.799509,20.3391667 251.974509,20.2766667 252.106176,20.1533333 C252.237009,20.0266667 252.302009,19.855 252.302009,19.6383333 L252.302009,15.1991667 C252.302009,15.0208333 252.235342,14.8766667 252.101176,14.7666667 C251.967842,14.6575 251.792842,14.6033333 251.577842,14.6033333 C251.377009,14.6033333 251.215342,14.6575 251.089509,14.7666667 C250.966176,14.8766667 250.902009,15.0208333 250.902009,15.1991667 L250.902009,19.6383333 C250.902009,19.8608333 250.962009,20.0325 251.077842,20.1566667 L251.077842,20.1566667 Z M249.878676,13.7525 C250.318676,13.3783333 250.912842,13.1908333 251.655342,13.1908333 C252.332009,13.1908333 252.888676,13.3883333 253.322842,13.7833333 C253.753676,14.1775 253.970342,14.6858333 253.970342,15.3066667 L253.970342,19.5158333 C253.970342,20.2125 253.757842,20.7583333 253.335342,21.1558333 C252.907842,21.5525 252.325342,21.7508333 251.580342,21.7508333 C250.865342,21.7508333 250.291176,21.5458333 249.860342,21.1375 C249.432842,20.7275 249.217009,20.1766667 249.217009,19.4841667 L249.217009,15.2608333 C249.216176,14.6283333 249.436176,14.1258333 249.878676,13.7525 L249.878676,13.7525 Z M244.757009,10.5 L242.899509,10.5 L245.094509,17.1691667 L245.094509,21.5458333 L246.938676,21.5458333 L246.938676,16.9625 L249.083676,10.5 L247.208676,10.5 L246.070342,14.915 L245.954509,14.915 L244.757009,10.5 L244.757009,10.5 Z M252.038676,50.5 C238.232009,50.5 227.038676,39.3066667 227.038676,25.5 C227.038676,11.6925 238.232009,0.5 252.038676,0.5 C265.845342,0.5 277.038676,11.6925 277.038676,25.5 C277.038676,39.3066667 265.845342,50.5 252.038676,50.5 L252.038676,50.5 Z" id="youtube-black" sketch:type="MSShapeGroup"></path>
        </g>
    </g>
</svg>