<!-- Generator: Adobe Illustrator 18.0.0, SVG Export Plug-In  -->
<svg version="1.1"
	 xmlns="http://www.w3.org/2000/svg" xmlns:xlink="http://www.w3.org/1999/xlink" xmlns:a="http://ns.adobe.com/AdobeSVGViewerExtensions/3.0/"
	 x="0px" y="0px" viewBox="0 0 49.6 49.8" enable-background="new 0 0 49.6 49.8"
	 xml:space="preserve">
<defs>
</defs>
<path d="M0,26.5c6.2,0,12,2.4,16.4,6.8c4.4,4.4,6.8,10.3,6.8,16.5h9.5C32.7,31.6,18,16.9,0,16.9C0,16.9,0,26.5,0,26.5z M0,9.5
	c22.1,0,40,18,40,40.2h9.5C49.6,22.3,27.3,0,0,0C0,0,0,9.5,0,9.5z M13.2,43.1c0,3.6-3,6.6-6.6,6.6S0,46.8,0,43.1
	c0-3.7,3-6.6,6.6-6.6S13.2,39.5,13.2,43.1z"/>
</svg>
