<!-- Generator: Adobe Illustrator 18.0.0, SVG Export Plug-In  -->
<svg version="1.1"
	 xmlns="http://www.w3.org/2000/svg" xmlns:xlink="http://www.w3.org/1999/xlink" xmlns:a="http://ns.adobe.com/AdobeSVGViewerExtensions/3.0/"
	 x="0px" y="0px" width="94.1px" height="96.8px" viewBox="0 0 94.1 96.8" enable-background="new 0 0 94.1 96.8"
	 xml:space="preserve">
<defs>
</defs>
<g>
	<g>
		<path d="M61.3,0H38.2C27.9,0,20.8,2.3,14.4,7.6c-5,4.4-8.1,10.7-8.1,16.9c0,9.6,7.3,19.8,20.9,19.8c1.3,0,2.8-0.1,4-0.3l-0.2,0.5
			C30.5,45.8,30,47,30,49c0,3.8,1.8,6.1,3.6,8.3l0.2,0.3l-0.4,0c-5.6,0.4-16,1.1-23.7,5.8C0.7,68.7,0,76.5,0,78.8
			c0,9,8.4,18.1,27.1,18.1c21.8,0,33.1-12,33.1-23.9c0-8.8-5.1-13.1-10.6-17.7L45,51.7c-1.4-1.2-3.2-2.6-3.2-5.4
			c0-2.7,1.8-4.4,3.3-6l0.2-0.2c5-3.9,10.6-8.4,10.6-18c0-9.7-6-14.6-8.9-17h7.7c0.1,0,0.2,0,0.3-0.1l6.6-4.2
			c0.2-0.1,0.3-0.3,0.2-0.6C61.7,0.1,61.5,0,61.3,0z M33.3,91.5c-13.3,0-22.2-6.2-22.2-15.4c0-6,3.6-10.4,10.8-13
			c5.7-1.9,13.2-2,13.2-2c1.3,0,1.9,0,2.9,0.1c9.3,6.6,13.7,10.1,13.7,16.7C51.8,86.3,44.7,91.5,33.3,91.5z M33.1,40.8
			c-11.1,0-15.8-14.6-15.8-22.5c0-4,0.9-7,2.8-9.4c2-2.5,5.5-4.2,8.8-4.2c10.2,0,15.9,13.7,15.9,23.2c0,1.5,0,6.1-3.1,9.2
			C39.6,39.3,36.2,40.8,33.1,40.8z"/>
		<path d="M93.6,45.2H81.5V33.1c0-0.3-0.2-0.5-0.5-0.5h-5.2c-0.3,0-0.5,0.2-0.5,0.5v12.1H63.1c-0.3,0-0.5,0.2-0.5,0.5V51
			c0,0.3,0.2,0.5,0.5,0.5h12.1v12.2c0,0.3,0.2,0.5,0.5,0.5H81c0.3,0,0.5-0.2,0.5-0.5V51.5h12.2c0.3,0,0.5-0.2,0.5-0.5v-5.3
			C94.1,45.4,93.9,45.2,93.6,45.2z"/>
	</g>
</g>
</svg>
