<!-- Generator: Adobe Illustrator 18.0.0, SVG Export Plug-In  -->
<svg version="1.1"
	 xmlns="http://www.w3.org/2000/svg" xmlns:xlink="http://www.w3.org/1999/xlink" xmlns:a="http://ns.adobe.com/AdobeSVGViewerExtensions/3.0/"
	 x="0px" y="0px" width="28.8px" height="27.5px" viewBox="0 0 28.8 27.5" enable-background="new 0 0 28.8 27.5"
	 xml:space="preserve">
<defs>
</defs>
<g transform="translate(96 240)">
	<path d="M-67.2-223.1v10.6h-6.2v-9.9c0-2.5-0.9-4.2-3.1-4.2c-1.7,0-2.7,1.1-3.2,2.3c-0.2,0.4-0.2,0.9-0.2,1.5v10.4H-86
		c0,0,0.1-16.8,0-18.6h6.2v2.6c0,0,0,0,0,0.1h0v-0.1c0.8-1.3,2.3-3.1,5.6-3.1C-70.2-231.5-67.2-228.8-67.2-223.1L-67.2-223.1z
		 M-92.5-240c-2.1,0-3.5,1.4-3.5,3.2c0,1.8,1.3,3.2,3.4,3.2h0c2.2,0,3.5-1.4,3.5-3.2C-89.1-238.6-90.4-240-92.5-240L-92.5-240z
		 M-95.6-212.5h6.2V-231h-6.2V-212.5z"/>
</g>
</svg>
