<!-- Generator: Adobe Illustrator 18.0.0, SVG Export Plug-In  -->
<svg version="1.1"
	 xmlns="http://www.w3.org/2000/svg" xmlns:xlink="http://www.w3.org/1999/xlink" xmlns:a="http://ns.adobe.com/AdobeSVGViewerExtensions/3.0/"
	 x="0px" y="0px" width="497.2px" height="612px" viewBox="0 0 497.2 612" enable-background="new 0 0 497.2 612"
	 xml:space="preserve">
<defs>
</defs>
<g id="_x34__1_">
	<g>
		<path fill="#010101" d="M344.2,535.5c10.6,0,19.1-8.6,19.1-19.1V286.9c0-10.6-8.6-19.1-19.1-19.1s-19.1,8.6-19.1,19.1v229.5
			C325.1,526.9,333.7,535.5,344.2,535.5z M459,76.5H344.2V38.2C344.2,17.1,327.1,0,306,0H191.2C170.1,0,153,17.1,153,38.2v38.2H38.2
			C17.1,76.5,0,93.6,0,114.8V153c0,21.1,17.1,38.2,38.2,38.2v344.2c0,42.2,34.3,76.5,76.5,76.5h267.8c42.2,0,76.5-34.3,76.5-76.5
			V191.2c21.1,0,38.2-17.1,38.2-38.2v-38.2C497.2,93.6,480.1,76.5,459,76.5z M191.2,57.4c0-10.6,8.6-19.1,19.1-19.1h76.5
			c10.6,0,19.1,8.6,19.1,19.1v19.1c-18.5,0-114.8,0-114.8,0V57.4z M420.8,535.5c0,21.1-17.1,38.2-38.2,38.2H114.8
			c-21.1,0-38.2-17.1-38.2-38.2V191.2h344.2V535.5z M439.9,153H57.4c-10.6,0-19.1-8.6-19.1-19.1s8.6-19.1,19.1-19.1h382.5
			c10.6,0,19.1,8.6,19.1,19.1S450.4,153,439.9,153z M153,535.5c10.6,0,19.1-8.6,19.1-19.1V286.9c0-10.6-8.6-19.1-19.1-19.1
			s-19.1,8.6-19.1,19.1v229.5C133.9,526.9,142.4,535.5,153,535.5z M248.6,535.5c10.6,0,19.1-8.6,19.1-19.1V286.9
			c0-10.6-8.6-19.1-19.1-19.1s-19.1,8.6-19.1,19.1v229.5C229.5,526.9,238.1,535.5,248.6,535.5z"/>
	</g>
</g>
</svg>
