<!-- Generator: Adobe Illustrator 18.0.0, SVG Export Plug-In  -->
<svg version="1.1"
	 xmlns="http://www.w3.org/2000/svg" xmlns:xlink="http://www.w3.org/1999/xlink" xmlns:a="http://ns.adobe.com/AdobeSVGViewerExtensions/3.0/"
	 x="0px" y="0px" viewBox="0 0 20 18" enable-background="new 0 0 20 18" xml:space="preserve">
<defs>
</defs>
<g id="Page-1_1_">
	<g id="Core_1_" transform="translate(-254.000000, -339.000000)">
		<g id="print_1_" transform="translate(254.000000, 339.000000)">
			<path id="Shape_1_" d="M17,5H3C1.3,5,0,6.3,0,8v6h4v4h12v-4h4V8C20,6.3,18.7,5,17,5L17,5z M14,16H6v-5h8V16L14,16z M17,9
				c-0.6,0-1-0.4-1-1s0.4-1,1-1s1,0.4,1,1S17.6,9,17,9L17,9z M16,0H4v4h12V0L16,0z"/>
		</g>
	</g>
</g>
</svg>
