<!-- Generator: Adobe Illustrator 18.0.0, SVG Export Plug-In  -->
<svg version="1.1"
	 xmlns="http://www.w3.org/2000/svg" xmlns:xlink="http://www.w3.org/1999/xlink" xmlns:a="http://ns.adobe.com/AdobeSVGViewerExtensions/3.0/"
	 x="0px" y="0px" width="131.4px" height="104.5px" viewBox="0 0 131.4 104.5" enable-background="new 0 0 131.4 104.5"
	 xml:space="preserve">
<defs>
</defs>
<g>
	<path d="M65.7,21.1L18.8,59.7c0,0.1,0,0.1,0,0.2c0,0.1,0,0.2,0,0.2v39.1c0,1.4,0.5,2.6,1.5,3.7c1,1,2.3,1.6,3.7,1.6h31.3V73.2h20.9
		v31.3h31.3c1.4,0,2.6-0.5,3.7-1.6c1-1,1.6-2.3,1.6-3.7V60.2c0-0.2,0-0.4-0.1-0.5L65.7,21.1z"/>
	<path d="M130.4,50.9l-17.8-14.8V2.9c0-0.8-0.2-1.4-0.7-1.9c-0.5-0.5-1.1-0.7-1.9-0.7H94.4c-0.8,0-1.4,0.2-1.9,0.7
		c-0.5,0.5-0.7,1.1-0.7,1.9v15.9L71.9,2.1C70.1,0.7,68.1,0,65.7,0s-4.5,0.7-6.2,2.1L0.9,50.9c-0.5,0.4-0.8,1-0.9,1.8
		s0.1,1.4,0.6,1.9l5.1,6c0.4,0.5,1,0.8,1.7,0.9c0.7,0.1,1.3-0.1,2-0.6l56.4-47l56.4,47c0.4,0.4,1,0.6,1.7,0.6h0.2
		c0.7-0.1,1.3-0.4,1.7-0.9l5.1-6c0.4-0.5,0.6-1.2,0.6-1.9C131.3,51.9,131,51.4,130.4,50.9z"/>
</g>
</svg>
