<!-- Generator: Adobe Illustrator 18.0.0, SVG Export Plug-In  -->
<svg version="1.1"
	 xmlns="http://www.w3.org/2000/svg" xmlns:xlink="http://www.w3.org/1999/xlink" xmlns:a="http://ns.adobe.com/AdobeSVGViewerExtensions/3.0/"
	 x="0px" y="0px" width="38.5px" height="49.8px" viewBox="0 0 38.5 49.8" enable-background="new 0 0 38.5 49.8"
	 xml:space="preserve">
<defs>
</defs>
<path d="M20.4,0C6.9,0,0,9.7,0,17.9c0,4.9,1.9,9.3,5.9,10.9c0.7,0.3,1.2,0,1.4-0.7c0.1-0.5,0.4-1.8,0.6-2.3
	c0.2-0.7,0.1-1-0.4-1.6c-1.2-1.4-1.9-3.1-1.9-5.6c0-7.2,5.4-13.7,14.1-13.7c7.7,0,11.9,4.7,11.9,11c0,8.2-3.6,15.2-9.1,15.2
	c-3,0-5.2-2.5-4.5-5.5c0.9-3.6,2.5-7.5,2.5-10.1c0-2.3-1.3-4.3-3.9-4.3c-3.1,0-5.5,3.2-5.5,7.4c0,2.7,0.9,4.5,0.9,4.5
	S8.9,36.3,8.4,38.6c-1.1,4.6-0.2,10.3-0.1,10.9c0,0.3,0.5,0.4,0.7,0.2c0.3-0.4,3.9-4.9,5.2-9.4c0.4-1.3,2-7.9,2-7.9
	c1,1.9,3.9,3.6,7,3.6c9.2,0,15.4-8.4,15.4-19.6C38.5,7.9,31.4,0,20.4,0z"/>
</svg>
