<?xml version="1.0" encoding="utf-8"?>
<!-- Generator: Adobe Illustrator 17.1.0, SVG Export Plug-In . SVG Version: 6.00 Build 0)  -->
<!DOCTYPE svg PUBLIC "-//W3C//DTD SVG 1.1//EN" "http://www.w3.org/Graphics/SVG/1.1/DTD/svg11.dtd">
<svg version="1.1" id="Layer_1" xmlns="http://www.w3.org/2000/svg" xmlns:xlink="http://www.w3.org/1999/xlink" x="0px" y="0px"
	 viewBox="0 0 50 50" enable-background="new 0 0 50 50" xml:space="preserve">
<path d="M33.3,5.7c-7.6-7.6-20-7.6-27.6,0c-7.6,7.6-7.6,20,0,27.6c6.8,6.8,17.3,7.5,24.9,2.2c0.2,0.8,0.5,1.5,1.1,2.1l11.1,11.1
	c1.6,1.6,4.2,1.6,5.8,0c1.6-1.6,1.6-4.2,0-5.8L37.5,31.7c-0.6-0.6-1.3-1-2.1-1.1C40.8,23,40,12.5,33.3,5.7z M29.8,29.8
	c-5.7,5.7-14.9,5.7-20.6,0c-5.7-5.7-5.7-14.9,0-20.6c5.7-5.7,14.9-5.7,20.6,0S35.5,24.1,29.8,29.8z"/>
</svg>
