<!-- Generator: Adobe Illustrator 18.0.0, SVG Export Plug-In  -->
<svg version="1.1"
	 xmlns="http://www.w3.org/2000/svg" xmlns:xlink="http://www.w3.org/1999/xlink" xmlns:a="http://ns.adobe.com/AdobeSVGViewerExtensions/3.0/"
	 x="0px" y="0px" width="100px" height="100px" viewBox="0 0 100 100" enable-background="new 0 0 100 100" xml:space="preserve">
<defs>
</defs>
<path d="M50,0C22.5,0,0,22.5,0,50s22.5,50,50,50s50-22.5,50-50C100,22.5,77.5,0,50,0z M50,91.7
	C27.1,91.7,8.3,72.9,8.3,50S27.1,8.3,50,8.3S91.7,27.1,91.7,50S72.9,91.7,50,91.7z M25,75l32.9-17.1L75,25L42.1,42.1L25,75z
	 M50,45.4c2.5,0,4.6,2.1,4.6,4.6c0,2.5-2.1,4.6-4.6,4.6c-2.5,0-4.6-2.1-4.6-4.6C45.4,47.5,47.5,45.4,50,45.4z"/>
</svg>
