<!-- Generator: Adobe Illustrator 18.0.0, SVG Export Plug-In  -->
<svg version="1.1"
	 xmlns="http://www.w3.org/2000/svg" xmlns:xlink="http://www.w3.org/1999/xlink" xmlns:a="http://ns.adobe.com/AdobeSVGViewerExtensions/3.0/"
	 x="0px" y="0px" viewBox="0 0 100 100" enable-background="new 0 0 100 100" xml:space="preserve">
<defs>
</defs>
<g>
	<path d="M50,0C22.4,0,0,22.4,0,50s22.4,50,50,50s50-22.4,50-50S77.6,0,50,0z M50,91.4C26.1,91.4,8.5,73.9,8.5,50
		S26.1,8.6,50,8.6S91.4,26.1,91.4,50S73.9,91.4,50,91.4z"/>
	<path d="M68.1,33.6L42.3,59.4L31.9,49c-1.3-1.3-3.3-1.3-4.6,0s-1.3,3.3,0,4.6L40,66.4c0.7,0.7,1.5,0.9,2.3,0.9
		s1.7-0.3,2.3-0.9l0,0l28.1-28.1c1.3-1.3,1.3-3.3,0-4.6C71.4,32.4,69.4,32.4,68.1,33.6z"/>
</g>
</svg>
