<!-- Generator: Adobe Illustrator 18.0.0, SVG Export Plug-In  -->
<svg version="1.1"
     xmlns="http://www.w3.org/2000/svg" xmlns:xlink="http://www.w3.org/1999/xlink" xmlns:a="http://ns.adobe.com/AdobeSVGViewerExtensions/3.0/"
     x="0px" y="0px" width="801px" height="437.7px" viewBox="0 0 801 437.7" enable-background="new 0 0 801 437.7"
     xml:space="preserve">
<defs>
</defs>
<g>
    <rect x="0" fill="#FFFFFF " width="800" height="436"/>
    <g>
        <polygon fill="#ED1C24 " points="801,175.2 440,175.2 440,0 360,0 360,175.2 0,175.2 0,262.5 360,262.5 360,437.7 440,437.7 
            440,262.5 801,262.5         "/>
        <polygon fill="#1A2F7C " points="334.3,0 334.3,132 91,0         "/>
        <polygon fill="#ED1C24 " points="0,0 0,32.5 206.5,145.5 266.5,145.5         "/>
        <polygon fill="#1A2F7C " points="0,49 0,145.5 177.5,145.5         "/>
        <polygon fill="#1A2F7C " points="467.7,0 467.7,132 711,0         "/>
        <polygon fill="#ED1C24 " points="741.3,0 800,0 534.8,145.5 474.8,145.5         "/>
        <polygon fill="#1A2F7C " points="800,49 800,145.5 622.5,145.5         "/>
        <polyline fill="#1A2F7C " points="334.3,304 91,436 334.3,436         "/>
        <polyline fill="#ED1C24 " points="324.5,290.5 58,436 0,436 264.5,290.5         "/>
        <polyline fill="#1A2F7C " points="177.5,290.5 0,387 0,290.5         "/>
        <polygon fill="#1A2F7C " points="465.7,436 465.7,304 709,436         "/>
        <polygon fill="#ED1C24 " points="800,436 800,404 592.8,290.5 532.8,290.5         "/>
        <polygon fill="#1A2F7C " points="800,387 800,290.5 622.5,290.5         "/>
    </g>
</g>
</svg>