<svg height="30" viewBox="0 0 30 30" width="30" xmlns="http://www.w3.org/2000/svg"><path d="M28.6 7.6l-5.4-6.3-1-1.3H9C7.3 0 6 1.4 6 3v4h2V4c0-1 .8-2 1.8-2h11v5.3c0 2 1.6 3.5 3.5 3.5H28v15c0 1-1 1.8-1.8 1.8H9.7c-1 0-1.6-1-1.6-2v-1.2H6v2c0 1.8 1.4 3.4 3 3.4h17.7c1.7 0 3-1.5 3-3.2V9l-1-1.4" fill="#434440"/><path d="M20 25.4H0V6h20v19.4m-18-2h16V8H2" fill="#EA4C3A"/><path d="M10.3 9c.3.2.3.4.2 1.3 0 1-.5 2.5-1 4C8.8 16 8 17.7 7 18.8c-.6 1.2-1.3 2-2 2.4-.3.5-.7.6-1 .6h-.3V21s0-.4.5-.7c.5-.4 1-.8 2-1.2l2.6-1H14l1.2.3c.4 0 .8.3 1 .5.4 0 .6.5.7.8v.8l-1 .6h-1l-1-.6-1.5-1.2-2-2-1.2-2-.6-2.2v-3c0-.4 0-.6.2-.8l.3-.2h.8" fill="none" stroke="#EA4C3A" stroke-linejoin="round" stroke-miterlimit="10" stroke-width=".8"/></svg>