<!-- Generator: Adobe Illustrator 18.0.0, SVG Export Plug-In  -->
<svg version="1.1"
	 xmlns="http://www.w3.org/2000/svg" xmlns:xlink="http://www.w3.org/1999/xlink" xmlns:a="http://ns.adobe.com/AdobeSVGViewerExtensions/3.0/"
	 x="0px" y="0px" width="100px" height="16.8px" viewBox="0 0 100 16.8" enable-background="new 0 0 100 16.8" xml:space="preserve"
	>
<defs>
</defs>
<g>
	<path fill="#FFFFFF" d="M11.6,16.6H10L7.7,8.4C7.6,8,7.5,7.6,7.5,7.1h0C7.3,7.6,7.3,8,7.2,8.4l-2.3,8.2H3.3L0,5.2h1.9l2,8.2
		c0.1,0.2,0.2,0.8,0.2,1.4h0c0.1-0.5,0.2-1.2,0.3-1.4l2.3-8.2h1.6l2.2,8.2c0.1,0.5,0.2,0.8,0.3,1.4h0c0.1-0.6,0.1-0.9,0.3-1.4l2-8.2
		h1.7L11.6,16.6z"/>
	<path fill="#FFFFFF" d="M20.4,16.8c-2.7,0-4.3-1.2-4.3-3.4c0-2.7,2.7-3.8,6.4-4.2V8.5c0-1.6-0.8-2.3-2.4-2.3c-1,0-2.1,0.3-2.8,0.7
		l-0.4-1.1C17.7,5.3,19,5,20.3,5c2.5,0,4,1.2,4,3.7V16C23.3,16.5,21.9,16.8,20.4,16.8z M22.5,10.2c-2.9,0.3-4.6,1.1-4.6,3.1
		c0,1.5,0.9,2.4,2.7,2.4c0.7,0,1.4-0.1,1.9-0.4V10.2z"/>
	<path fill="#FFFFFF" d="M29.6,16.8c-1.1,0-2.3-0.3-3.1-0.8l0.5-1.2c0.7,0.4,1.5,0.7,2.3,0.7c1.3,0,2.2-0.8,2.2-2
		c0-2.8-4.8-1.7-4.8-5.4c0-1.8,1.4-3.1,3.5-3.1c1.1,0,2.1,0.3,2.8,0.8l-0.5,1.1c-0.6-0.4-1.4-0.7-2.1-0.7c-1.3,0-1.9,0.8-1.9,1.8
		c0,2.6,4.9,1.5,4.9,5.4C33.5,15.3,32,16.8,29.6,16.8z"/>
	<path fill="#FFFFFF" d="M39.9,16.8c-2.7,0-4.3-1.2-4.3-3.4c0-2.7,2.7-3.8,6.4-4.2V8.5c0-1.6-0.8-2.3-2.4-2.3c-1,0-2.1,0.3-2.8,0.7
		l-0.4-1.1C37.2,5.3,38.5,5,39.8,5c2.5,0,4,1.2,4,3.7V16C42.8,16.5,41.5,16.8,39.9,16.8z M42,10.2c-2.9,0.3-4.6,1.1-4.6,3.1
		c0,1.5,0.9,2.4,2.7,2.4c0.7,0,1.4-0.1,1.9-0.4V10.2z"/>
	<path fill="#FFFFFF" d="M50.1,16.8c-1.4,0-2.6-0.4-3.4-0.8V0h1.8v5.5C49.2,5.2,50,5,50.8,5c2.7,0,4.5,2.2,4.5,5.6
		C55.3,14.3,53.5,16.8,50.1,16.8z M50.4,6.1c-0.7,0-1.3,0.2-1.8,0.4v8.8c0.4,0.2,1,0.3,1.6,0.3c2.3,0,3.3-2,3.3-4.8
		S52.3,6.1,50.4,6.1z"/>
	<path fill="#FFFFFF" d="M58.9,3c-0.6,0-1.1-0.5-1.1-1s0.5-1.1,1.1-1.1c0.6,0,1.1,0.5,1.1,1S59.5,3,58.9,3z M58,16.6V5.2h1.9v11.4
		H58z"/>
	<path fill="#FFFFFF" d="M74.4,16.6H72l-2-7.3C70,8.9,69.9,8.4,69.8,8h0c-0.1,0.5-0.1,0.9-0.3,1.4l-1.9,7.3h-2.3L62,5.2h2.6l1.6,7.4
		c0.1,0.5,0.2,0.9,0.2,1.5h0c0.1-0.6,0.2-1.1,0.3-1.5l2-7.4H71l1.9,7.4c0.1,0.4,0.2,0.8,0.3,1.5h0c0.1-0.7,0.1-1.2,0.2-1.5l1.7-7.4
		h2.3L74.4,16.6z"/>
	<path fill="#FFFFFF" d="M81.4,11.8c0.2,2,1.3,3.2,3.2,3.2c1,0,2.2-0.3,2.8-0.7L88,16c-0.9,0.5-2.3,0.8-3.8,0.8
		c-3.4,0-5.4-2.4-5.4-6S80.7,5,83.8,5c3,0,4.6,1.9,4.6,5.5v0.4L81.4,11.8z M83.7,6.5c-1.6,0-2.4,1.5-2.4,3.8v0.2l4.7-0.7
		C85.9,7.7,85.2,6.5,83.7,6.5z"/>
	<path fill="#FFFFFF" d="M94.5,16.8c-1.5,0-2.9-0.3-3.7-0.8V0h2.6v5.5C93.9,5.2,94.6,5,95.4,5c2.8,0,4.6,2.2,4.6,5.6
		C100,14.4,98,16.8,94.5,16.8z M94.8,6.5c-0.5,0-1.1,0.1-1.5,0.3V15c0.3,0.1,0.8,0.2,1.3,0.2c2,0,2.8-1.8,2.8-4.4
		C97.4,8.1,96.5,6.5,94.8,6.5z"/>
</g>
</svg>
